# Blender v2.93.3 OBJ File: 'stains.blend'
# www.blender.org
mtllib stain-5.mtl
o NurbsPath.026_NurbsPath.023
v -4.406497 3.928807 -0.134997
v -4.721588 3.838023 -0.134994
v -5.008983 3.727303 -0.134975
v -5.268743 3.598475 -0.134922
v -5.500930 3.453373 -0.134821
v -5.705605 3.293824 -0.134653
v -5.882830 3.121660 -0.134403
v -6.032664 2.938712 -0.134054
v -6.155170 2.746809 -0.133590
v -6.250407 2.547784 -0.132994
v -6.318438 2.343465 -0.132250
v -6.359324 2.135683 -0.131341
v -6.373125 1.926270 -0.130251
v -6.360401 1.717246 -0.128971
v -6.323715 1.511404 -0.127526
v -6.266129 1.311727 -0.125950
v -6.190700 1.121198 -0.124274
v -6.100492 0.942801 -0.122533
v -5.998563 0.779518 -0.120759
v -5.887977 0.634334 -0.118984
v -5.771793 0.510231 -0.117243
v -5.653072 0.410193 -0.115568
v -5.534876 0.337203 -0.113991
v -5.420266 0.294244 -0.112547
v -5.312301 0.284299 -0.111267
v -5.212929 0.309265 -0.110179
v -5.119641 0.366685 -0.109289
v -5.028812 0.453017 -0.108597
v -4.936821 0.564717 -0.108103
v -4.840042 0.698241 -0.107806
v -4.734851 0.850048 -0.107707
v -4.617628 1.016593 -0.107806
v -4.484748 1.194333 -0.108103
v -4.332586 1.379725 -0.108597
v -4.157520 1.569227 -0.109289
v -3.955927 1.759293 -0.110179
v -3.724181 1.946383 -0.111267
v -3.460830 2.127523 -0.112547
v -3.173090 2.302026 -0.113991
v -2.870345 2.469778 -0.115568
v -2.561982 2.630663 -0.117243
v -2.257386 2.784564 -0.118984
v -1.965941 2.931366 -0.120759
v -1.697033 3.070955 -0.122533
v -1.460048 3.203213 -0.124274
v -1.264370 3.328026 -0.125950
v -1.119385 3.445278 -0.127526
v -1.034478 3.554853 -0.128971
v -1.019034 3.656636 -0.130251
v -1.079393 3.750337 -0.131341
v -1.209716 3.834976 -0.132250
v -1.401118 3.909396 -0.132994
v -1.644717 3.972443 -0.133590
v -1.931628 4.022963 -0.134055
v -2.252968 4.059800 -0.134403
v -2.599853 4.081799 -0.134653
v -2.963399 4.087804 -0.134821
v -3.334723 4.076663 -0.134922
v -3.704941 4.047218 -0.134975
v -4.065170 3.998315 -0.134994
v -4.395623 3.857041 0.062066
v -4.696404 3.770381 0.062068
v -4.970748 3.664688 0.062087
v -5.218712 3.541711 0.062137
v -5.440356 3.403198 0.062234
v -5.635736 3.250894 0.062393
v -5.804913 3.086548 0.062632
v -5.947943 2.911909 0.062965
v -6.064886 2.728721 0.063408
v -6.155797 2.538733 0.063977
v -6.220740 2.343692 0.064688
v -6.259768 2.145346 0.065555
v -6.272943 1.945443 0.066596
v -6.260797 1.745911 0.067818
v -6.225777 1.549416 0.069197
v -6.170805 1.358807 0.070702
v -6.098802 1.176931 0.072301
v -6.012690 1.006634 0.073963
v -5.915390 0.850767 0.075657
v -5.809827 0.712176 0.077351
v -5.698918 0.593709 0.079013
v -5.585589 0.498213 0.080612
v -5.472760 0.428537 0.082117
v -5.363355 0.387530 0.083496
v -5.260293 0.378037 0.084718
v -5.165433 0.401869 0.085756
v -5.076382 0.456682 0.086606
v -4.989677 0.539093 0.087266
v -4.901863 0.645720 0.087738
v -4.809479 0.773181 0.088021
v -4.709066 0.918094 0.088116
v -4.597166 1.077075 0.088021
v -4.470320 1.246744 0.087738
v -4.325068 1.423718 0.087266
v -4.157952 1.604613 0.086606
v -3.965513 1.786049 0.085756
v -3.744292 1.964642 0.084718
v -3.492899 2.137557 0.083496
v -3.218226 2.304136 0.082117
v -2.929229 2.464270 0.080612
v -2.634869 2.617848 0.079013
v -2.344105 2.764760 0.077351
v -2.065895 2.904896 0.075657
v -1.809199 3.038146 0.073963
v -1.582976 3.164398 0.072301
v -1.396184 3.283543 0.070702
v -1.257783 3.395471 0.069197
v -1.176731 3.500070 0.067818
v -1.161989 3.597230 0.066596
v -1.219607 3.686677 0.065555
v -1.344011 3.767472 0.064687
v -1.526722 3.838513 0.063977
v -1.759259 3.898696 0.063408
v -2.033140 3.946923 0.062965
v -2.339888 3.982086 0.062632
v -2.671021 4.003087 0.062393
v -3.018058 4.008819 0.062233
v -3.372519 3.998183 0.062137
v -3.725925 3.970076 0.062087
v -4.069795 3.923394 0.062068
vt 0.000000 0.000000
vt 0.000000 0.000000
vt 0.000000 0.000000
vt 0.000000 0.000000
vt 0.000000 0.000000
vt 0.000000 0.000000
vt 0.000000 0.000000
vt 0.000000 0.000000
vt 0.000000 0.000000
vt 0.000000 0.000000
vt 0.000000 0.000000
vt 0.000000 0.000000
vt 0.000000 0.000000
vt 0.000000 0.000000
vt 0.000000 0.000000
vt 0.000000 0.000000
vt 0.000000 0.000000
vt 0.000000 0.000000
vt 0.000000 0.000000
vt 0.000000 0.000000
vt 0.000000 0.000000
vt 0.000000 0.000000
vt 0.000000 0.000000
vt 0.000000 0.000000
vt 0.000000 0.000000
vt 0.000000 0.000000
vt 0.000000 0.000000
vt 0.000000 0.000000
vt 0.000000 0.000000
vt 0.000000 0.000000
vt 0.000000 0.000000
vt 0.000000 0.000000
vt 0.000000 0.000000
vt 0.000000 0.000000
vt 0.000000 0.000000
vt 0.000000 0.000000
vt 0.000000 0.000000
vt 0.000000 0.000000
vt 0.000000 0.000000
vt 0.000000 0.000000
vt 0.000000 0.000000
vt 0.000000 0.000000
vt 0.000000 0.000000
vt 0.000000 0.000000
vt 0.000000 0.000000
vt 0.000000 0.000000
vt 0.000000 0.000000
vt 0.000000 0.000000
vt 0.000000 0.000000
vt 0.000000 0.000000
vt 0.000000 0.000000
vt 0.000000 0.000000
vt 0.000000 0.000000
vt 0.000000 0.000000
vt 0.000000 0.000000
vt 0.000000 0.000000
vt 0.000000 0.000000
vt 0.000000 0.000000
vt 0.000000 0.000000
vt 0.000000 0.000000
vt 0.000000 0.000000
vt 0.000000 0.000000
vt 0.000000 0.000000
vt 0.000000 0.000000
vt 0.000000 0.000000
vt 0.000000 0.000000
vt 0.000000 0.000000
vt 0.000000 0.000000
vt 0.000000 0.000000
vt 0.000000 0.000000
vt 0.000000 0.000000
vt 0.000000 0.000000
vt 0.000000 0.000000
vt 0.000000 0.000000
vt 0.000000 0.000000
vt 0.000000 0.000000
vt 0.000000 0.000000
vt 0.000000 0.000000
vt 0.000000 0.000000
vt 0.000000 0.000000
vt 0.000000 0.000000
vt 0.000000 0.000000
vt 0.000000 0.000000
vt 0.000000 0.000000
vt 0.000000 0.000000
vt 0.000000 0.000000
vt 0.000000 0.000000
vt 0.000000 0.000000
vt 0.000000 0.000000
vt 0.000000 0.000000
vt 0.000000 0.000000
vt 0.000000 0.000000
vt 0.000000 0.000000
vt 0.000000 0.000000
vt 0.000000 0.000000
vt 0.000000 0.000000
vt 0.000000 0.000000
vt 0.000000 0.000000
vt 0.000000 0.000000
vt 0.000000 0.000000
vt 0.000000 0.000000
vt 0.000000 0.000000
vt 0.000000 0.000000
vt 0.000000 0.000000
vt 0.000000 0.000000
vt 0.000000 0.000000
vt 0.000000 0.000000
vt 0.000000 0.000000
vt 0.000000 0.000000
vt 0.000000 0.000000
vt 0.000000 0.000000
vt 0.000000 0.000000
vt 0.000000 0.000000
vt 0.000000 0.000000
vt 0.000000 0.000000
vt 0.000000 0.000000
vt 0.000000 0.000000
vt 0.000000 0.000000
vt 0.000000 0.000000
vt 0.000000 0.000000
vn 0.0047 -0.0095 -0.9999
vn -0.0047 0.0095 0.9999
vn 0.7071 -0.6956 0.1272
vn 0.6529 -0.7455 0.1338
vn 0.6511 -0.7471 0.1339
vn 0.7033 -0.6993 0.1279
vn -0.8000 0.4407 0.4071
vn -0.8425 0.3371 0.4202
vn -0.8397 0.3454 0.4192
vn -0.7961 0.4488 0.4060
vn 0.5922 -0.7944 0.1348
vn 0.5934 -0.7935 0.1348
vn -0.8724 0.2277 0.4325
vn -0.8707 0.2356 0.4317
vn 0.5370 -0.8335 0.1305
vn 0.5403 -0.8312 0.1309
vn -0.8888 0.1149 0.4437
vn -0.8881 0.1220 0.4431
vn 0.4963 -0.8594 0.1235
vn 0.5004 -0.8568 0.1244
vn -0.8913 0.0019 0.4534
vn -0.8915 0.0078 0.4530
vn 0.4690 -0.8755 0.1162
vn 0.4728 -0.8733 0.1174
vn -0.8812 -0.1042 0.4612
vn -0.8818 -0.0997 0.4609
vn 0.4532 -0.8845 0.1106
vn 0.4557 -0.8831 0.1116
vn -0.8615 -0.1987 0.4673
vn -0.8624 -0.1953 0.4671
vn 0.4481 -0.8874 0.1084
vn 0.4484 -0.8872 0.1086
vn -0.8349 -0.2825 0.4723
vn -0.8359 -0.2797 0.4722
vn 0.4546 -0.8836 0.1123
vn 0.4514 -0.8855 0.1104
vn -0.8028 -0.3580 0.4768
vn -0.8039 -0.3556 0.4767
vn 0.4754 -0.8707 0.1260
vn 0.4668 -0.8761 0.1202
vn -0.7654 -0.4277 0.4809
vn -0.7666 -0.4256 0.4808
vn 0.5163 -0.8419 0.1566
vn 0.4992 -0.8545 0.1434
vn -0.7216 -0.4942 0.4848
vn -0.7229 -0.4924 0.4847
vn 0.5880 -0.7789 0.2180
vn 0.5575 -0.8079 0.1909
vn -0.6690 -0.5602 0.4884
vn -0.6702 -0.5589 0.4884
vn 0.7020 -0.6286 0.3347
vn 0.6566 -0.6983 0.2851
vn -0.6031 -0.6285 0.4913
vn -0.6036 -0.6279 0.4912
vn 0.8132 -0.2811 0.5096
vn 0.7893 -0.4111 0.4561
vn -0.5157 -0.7014 0.4921
vn -0.5142 -0.7025 0.4921
vn 0.8201 -0.1174 0.5601
vn -0.3931 -0.7795 0.4876
vn -0.3856 -0.7836 0.4871
vn 0.6619 0.4335 0.6115
vn 0.5808 0.5569 0.5937
vn 0.5526 0.5933 0.5853
vn -0.2140 -0.8565 0.4697
vn -0.1901 -0.8639 0.4663
vn 0.4012 0.7472 0.5297
vn 0.3692 0.7725 0.5166
vn 0.0397 -0.9055 0.4225
vn 0.0946 -0.9076 0.4090
vn 0.2806 0.8321 0.4784
vn 0.2568 0.8456 0.4680
vn 0.3323 -0.8813 0.3360
vn 0.3998 -0.8624 0.3107
vn 0.1983 0.8745 0.4426
vn 0.1809 0.8819 0.4353
vn 0.5699 -0.7872 0.2358
vn 0.6169 -0.7580 0.2120
vn 0.1367 0.8985 0.4172
vn 0.1236 0.9027 0.4121
vn 0.7107 -0.6852 0.1591
vn 0.7349 -0.6626 0.1444
vn -0.2231 0.9119 0.3444
vn -0.2993 0.8901 0.3438
vn -0.2988 0.8903 0.3438
vn -0.2245 0.9116 0.3444
vn 0.0861 0.9133 0.3982
vn 0.0758 0.9157 0.3946
vn 0.7808 -0.6141 0.1146
vn 0.7913 -0.6018 0.1077
vn -0.3786 0.8584 0.3462
vn -0.3762 0.8595 0.3461
vn 0.0408 0.9227 0.3833
vn 0.0324 0.9241 0.3808
vn 0.8106 -0.5778 0.0946
vn 0.8138 -0.5737 0.0926
vn -0.4584 0.8163 0.3515
vn -0.4546 0.8185 0.3512
vn -0.0029 0.9285 0.3714
vn -0.0099 0.9291 0.3697
vn 0.8170 -0.5696 0.0903
vn 0.8160 -0.5708 0.0909
vn -0.5371 0.7631 0.3594
vn -0.5323 0.7667 0.3589
vn -0.0482 0.9311 0.3616
vn -0.0539 0.9312 0.3605
vn 0.8074 -0.5823 0.0955
vn 0.8040 -0.5866 0.0972
vn -0.6128 0.6986 0.3695
vn -0.6074 0.7036 0.3687
vn -0.0978 0.9302 0.3537
vn -0.1024 0.9300 0.3531
vn 0.7851 -0.6104 0.1055
vn 0.7805 -0.6158 0.1073
vn -0.6832 0.6228 0.3812
vn -0.6779 0.6292 0.3802
vn -0.1551 0.9246 0.3479
vn -0.1583 0.9242 0.3476
vn 0.7514 -0.6494 0.1170
vn 0.7467 -0.6546 0.1184
vn -0.7463 0.5365 0.3939
vn -0.7415 0.5439 0.3929
usemtl Dirt/Rot
s 1
f 1/1/1 60/2/1 59/3/1 58/4/1 57/5/1 56/6/1 55/7/1 54/8/1 53/9/1 52/10/1 51/11/1 50/12/1 49/13/1 48/14/1 47/15/1 46/16/1 45/17/1 44/18/1 43/19/1 42/20/1 41/21/1 40/22/1 39/23/1 38/24/1 37/25/1 36/26/1 35/27/1 34/28/1 33/29/1 32/30/1 31/31/1 30/32/1 29/33/1 28/34/1 27/35/1 26/36/1 25/37/1 24/38/1 23/39/1 22/40/1 21/41/1 20/42/1 19/43/1 18/44/1 17/45/1 16/46/1 15/47/1 14/48/1 13/49/1 12/50/1 11/51/1 10/52/1 9/53/1 8/54/1 7/55/1 6/56/1 5/57/1 4/58/1 3/59/1 2/60/1
f 61/61/2 62/62/2 63/63/2 64/64/2 65/65/2 66/66/2 67/67/2 68/68/2 69/69/2 70/70/2 71/71/2 72/72/2 73/73/2 74/74/2 75/75/2 76/76/2 77/77/2 78/78/2 79/79/2 80/80/2 81/81/2 82/82/2 83/83/2 84/84/2 85/85/2 86/86/2 87/87/2 88/88/2 89/89/2 90/90/2 91/91/2 92/92/2 93/93/2 94/94/2 95/95/2 96/96/2 97/97/2 98/98/2 99/99/2 100/100/2 101/101/2 102/102/2 103/103/2 104/104/2 105/105/2 106/106/2 107/107/2 108/108/2 109/109/2 110/110/2 111/111/2 112/112/2 113/113/2 114/114/2 115/115/2 116/116/2 117/117/2 118/118/2 119/119/2 120/120/2
f 35/27/3 36/26/4 96/96/5 95/95/6
f 9/53/7 10/52/8 70/70/9 69/69/10
f 36/26/4 37/25/11 97/97/12 96/96/5
f 10/52/8 11/51/13 71/71/14 70/70/9
f 37/25/11 38/24/15 98/98/16 97/97/12
f 11/51/13 12/50/17 72/72/18 71/71/14
f 38/24/15 39/23/19 99/99/20 98/98/16
f 12/50/17 13/49/21 73/73/22 72/72/18
f 39/23/19 40/22/23 100/100/24 99/99/20
f 13/49/21 14/48/25 74/74/26 73/73/22
f 40/22/23 41/21/27 101/101/28 100/100/24
f 14/48/25 15/47/29 75/75/30 74/74/26
f 41/21/27 42/20/31 102/102/32 101/101/28
f 15/47/29 16/46/33 76/76/34 75/75/30
f 42/20/31 43/19/35 103/103/36 102/102/32
f 16/46/33 17/45/37 77/77/38 76/76/34
f 43/19/35 44/18/39 104/104/40 103/103/36
f 17/45/37 18/44/41 78/78/42 77/77/38
f 44/18/39 45/17/43 105/105/44 104/104/40
f 18/44/41 19/43/45 79/79/46 78/78/42
f 45/17/43 46/16/47 106/106/48 105/105/44
f 19/43/45 20/42/49 80/80/50 79/79/46
f 46/16/47 47/15/51 107/107/52 106/106/48
f 20/42/49 21/41/53 81/81/54 80/80/50
f 47/15/51 48/14/55 108/108/56 107/107/52
f 21/41/53 22/40/57 82/82/58 81/81/54
f 48/14/55 49/13/59 109/109/59 108/108/56
f 22/40/57 23/39/60 83/83/61 82/82/58
f 49/13/62 50/12/63 110/110/64 109/109/62
f 23/39/60 24/38/65 84/84/66 83/83/61
f 50/12/63 51/11/67 111/111/68 110/110/64
f 24/38/65 25/37/69 85/85/70 84/84/66
f 51/11/67 52/10/71 112/112/72 111/111/68
f 25/37/69 26/36/73 86/86/74 85/85/70
f 52/10/71 53/9/75 113/113/76 112/112/72
f 26/36/73 27/35/77 87/87/78 86/86/74
f 53/9/75 54/8/79 114/114/80 113/113/76
f 27/35/77 28/34/81 88/88/82 87/87/78
f 1/1/83 2/60/84 62/62/85 61/61/86
f 54/8/79 55/7/87 115/115/88 114/114/80
f 28/34/81 29/33/89 89/89/90 88/88/82
f 2/60/84 3/59/91 63/63/92 62/62/85
f 55/7/87 56/6/93 116/116/94 115/115/88
f 29/33/89 30/32/95 90/90/96 89/89/90
f 3/59/91 4/58/97 64/64/98 63/63/92
f 56/6/93 57/5/99 117/117/100 116/116/94
f 30/32/95 31/31/101 91/91/102 90/90/96
f 4/58/97 5/57/103 65/65/104 64/64/98
f 57/5/99 58/4/105 118/118/106 117/117/100
f 31/31/101 32/30/107 92/92/108 91/91/102
f 5/57/103 6/56/109 66/66/110 65/65/104
f 58/4/105 59/3/111 119/119/112 118/118/106
f 32/30/107 33/29/113 93/93/114 92/92/108
f 6/56/109 7/55/115 67/67/116 66/66/110
f 59/3/111 60/2/117 120/120/118 119/119/112
f 33/29/113 34/28/119 94/94/120 93/93/114
f 7/55/115 8/54/121 68/68/122 67/67/116
f 60/2/117 1/1/83 61/61/86 120/120/118
f 34/28/119 35/27/3 95/95/6 94/94/120
f 8/54/121 9/53/7 69/69/10 68/68/122
