# Blender v2.93.3 OBJ File: 'stains.blend'
# www.blender.org
mtllib stain-6.mtl
o NurbsPath.027_NurbsPath.024
v -4.436212 3.438703 -0.134997
v -4.759298 3.456254 -0.134994
v -5.055617 3.456858 -0.134975
v -5.324921 3.440556 -0.134922
v -5.566961 3.407392 -0.134821
v -5.781489 3.357408 -0.134653
v -5.968257 3.290647 -0.134403
v -6.127016 3.207150 -0.134054
v -6.257517 3.106962 -0.133590
v -6.359513 2.990124 -0.132994
v -6.432754 2.856679 -0.132250
v -6.476992 2.706669 -0.131341
v -6.491980 2.540138 -0.130251
v -6.478331 2.357441 -0.128960
v -6.440120 2.160200 -0.127439
v -6.382282 1.950346 -0.125654
v -6.309754 1.729815 -0.123574
v -6.227474 1.500539 -0.121165
v -6.140377 1.264453 -0.118395
v -6.053401 1.023491 -0.115231
v -5.971481 0.779585 -0.111641
v -5.899555 0.534671 -0.107591
v -5.842560 0.290683 -0.103049
v -5.805432 0.049552 -0.097983
v -5.793108 -0.186785 -0.092359
v -5.808298 -0.416109 -0.086183
v -5.844802 -0.635049 -0.079614
v -5.894197 -0.839946 -0.072849
v -5.948054 -1.027143 -0.066085
v -5.997950 -1.192982 -0.059518
v -6.035460 -1.333805 -0.053347
v -6.052155 -1.445954 -0.047767
v -6.039614 -1.525771 -0.042975
v -5.989407 -1.569599 -0.039169
v -5.893112 -1.573779 -0.036546
v -5.742301 -1.534654 -0.035302
v -5.528550 -1.448565 -0.035635
v -5.247185 -1.313499 -0.037670
v -4.908539 -1.134021 -0.041248
v -4.526695 -0.916338 -0.046140
v -4.115739 -0.666659 -0.052116
v -3.689754 -0.391192 -0.058945
v -3.262824 -0.096145 -0.066398
v -2.849034 0.212273 -0.074246
v -2.462468 0.527854 -0.082257
v -2.117208 0.844390 -0.090202
v -1.827342 1.155673 -0.097851
v -1.606951 1.455494 -0.104975
v -1.470120 1.737645 -0.111343
v -1.426860 1.997049 -0.116777
v -1.470897 2.233148 -0.121308
v -1.591883 2.446518 -0.125018
v -1.779471 2.637732 -0.127988
v -2.023314 2.807364 -0.130301
v -2.313067 2.955988 -0.132040
v -2.638381 3.084178 -0.133286
v -2.988910 3.192508 -0.134121
v -3.354307 3.281551 -0.134627
v -3.724226 3.351883 -0.134887
v -4.088318 3.404076 -0.134983
v -4.450189 3.337777 0.063096
v -4.758603 3.354531 0.063099
v -5.041465 3.355108 0.063117
v -5.298540 3.339546 0.063167
v -5.529589 3.307888 0.063264
v -5.734375 3.260174 0.063424
v -5.912662 3.196444 0.063662
v -6.064211 3.116740 0.063995
v -6.188787 3.021101 0.064438
v -6.286150 2.909568 0.065007
v -6.356065 2.782184 0.065718
v -6.398294 2.638986 0.066586
v -6.412601 2.480017 0.067627
v -6.399572 2.305617 0.068859
v -6.363097 2.117333 0.070311
v -6.307885 1.917009 0.072014
v -6.238651 1.706492 0.074000
v -6.160107 1.487628 0.076299
v -6.076965 1.262263 0.078944
v -5.993939 1.032243 0.081964
v -5.915740 0.799414 0.085391
v -5.847080 0.565622 0.089257
v -5.792672 0.332713 0.093593
v -5.757231 0.102533 0.098429
v -5.745467 -0.123072 0.103798
v -5.759966 -0.341982 0.109693
v -5.794814 -0.550979 0.115964
v -5.841965 -0.746572 0.122421
v -5.893376 -0.925268 0.128878
v -5.941006 -1.083576 0.135147
v -5.976812 -1.218004 0.141038
v -5.992750 -1.325060 0.146365
v -5.980778 -1.401253 0.150939
v -5.932851 -1.443091 0.154572
v -5.840929 -1.447081 0.157076
v -5.696967 -1.409732 0.158263
v -5.492922 -1.327553 0.157946
v -5.224335 -1.198620 0.156003
v -4.901067 -1.027293 0.152587
v -4.536563 -0.819495 0.147917
v -4.144269 -0.581154 0.142213
v -3.737629 -0.318197 0.135694
v -3.330086 -0.036548 0.128579
v -2.935087 0.257864 0.121088
v -2.566076 0.559114 0.113441
v -2.236495 0.861276 0.105856
v -1.959791 1.158423 0.098554
v -1.749408 1.444629 0.091754
v -1.618791 1.713967 0.085676
v -1.577496 1.961590 0.080488
v -1.619533 2.186968 0.076163
v -1.735025 2.390649 0.072622
v -1.914095 2.573179 0.069786
v -2.146864 2.735108 0.067578
v -2.423459 2.876983 0.065918
v -2.734000 2.999352 0.064729
v -3.068611 3.102762 0.063932
v -3.417415 3.187762 0.063449
v -3.770535 3.254900 0.063201
v -4.118093 3.304723 0.063109
vt 0.000000 0.000000
vt 0.000000 0.000000
vt 0.000000 0.000000
vt 0.000000 0.000000
vt 0.000000 0.000000
vt 0.000000 0.000000
vt 0.000000 0.000000
vt 0.000000 0.000000
vt 0.000000 0.000000
vt 0.000000 0.000000
vt 0.000000 0.000000
vt 0.000000 0.000000
vt 0.000000 0.000000
vt 0.000000 0.000000
vt 0.000000 0.000000
vt 0.000000 0.000000
vt 0.000000 0.000000
vt 0.000000 0.000000
vt 0.000000 0.000000
vt 0.000000 0.000000
vt 0.000000 0.000000
vt 0.000000 0.000000
vt 0.000000 0.000000
vt 0.000000 0.000000
vt 0.000000 0.000000
vt 0.000000 0.000000
vt 0.000000 0.000000
vt 0.000000 0.000000
vt 0.000000 0.000000
vt 0.000000 0.000000
vt 0.000000 0.000000
vt 0.000000 0.000000
vt 0.000000 0.000000
vt 0.000000 0.000000
vt 0.000000 0.000000
vt 0.000000 0.000000
vt 0.000000 0.000000
vt 0.000000 0.000000
vt 0.000000 0.000000
vt 0.000000 0.000000
vt 0.000000 0.000000
vt 0.000000 0.000000
vt 0.000000 0.000000
vt 0.000000 0.000000
vt 0.000000 0.000000
vt 0.000000 0.000000
vt 0.000000 0.000000
vt 0.000000 0.000000
vt 0.000000 0.000000
vt 0.000000 0.000000
vt 0.000000 0.000000
vt 0.000000 0.000000
vt 0.000000 0.000000
vt 0.000000 0.000000
vt 0.000000 0.000000
vt 0.000000 0.000000
vt 0.000000 0.000000
vt 0.000000 0.000000
vt 0.000000 0.000000
vt 0.000000 0.000000
vt 0.000000 0.000000
vt 0.000000 0.000000
vt 0.000000 0.000000
vt 0.000000 0.000000
vt 0.000000 0.000000
vt 0.000000 0.000000
vt 0.000000 0.000000
vt 0.000000 0.000000
vt 0.000000 0.000000
vt 0.000000 0.000000
vt 0.000000 0.000000
vt 0.000000 0.000000
vt 0.000000 0.000000
vt 0.000000 0.000000
vt 0.000000 0.000000
vt 0.000000 0.000000
vt 0.000000 0.000000
vt 0.000000 0.000000
vt 0.000000 0.000000
vt 0.000000 0.000000
vt 0.000000 0.000000
vt 0.000000 0.000000
vt 0.000000 0.000000
vt 0.000000 0.000000
vt 0.000000 0.000000
vt 0.000000 0.000000
vt 0.000000 0.000000
vt 0.000000 0.000000
vt 0.000000 0.000000
vt 0.000000 0.000000
vt 0.000000 0.000000
vt 0.000000 0.000000
vt 0.000000 0.000000
vt 0.000000 0.000000
vt 0.000000 0.000000
vt 0.000000 0.000000
vt 0.000000 0.000000
vt 0.000000 0.000000
vt 0.000000 0.000000
vt 0.000000 0.000000
vt 0.000000 0.000000
vt 0.000000 0.000000
vt 0.000000 0.000000
vt 0.000000 0.000000
vt 0.000000 0.000000
vt 0.000000 0.000000
vt 0.000000 0.000000
vt 0.000000 0.000000
vt 0.000000 0.000000
vt 0.000000 0.000000
vt 0.000000 0.000000
vt 0.000000 0.000000
vt 0.000000 0.000000
vt 0.000000 0.000000
vt 0.000000 0.000000
vt 0.000000 0.000000
vt 0.000000 0.000000
vt 0.000000 0.000000
vt 0.000000 0.000000
vt 0.000000 0.000000
vn 0.0049 -0.0197 -0.9998
vn -0.0049 0.0197 0.9998
vn 0.2606 -0.8378 0.4797
vn 0.2879 -0.8340 0.4708
vn 0.1062 -0.8449 0.5242
vn 0.0565 -0.8423 0.5360
vn -0.7171 0.5113 0.4737
vn -0.7253 0.5007 0.4725
vn -0.5994 0.6373 0.4843
vn -0.5960 0.6403 0.4845
vn 0.3562 -0.8204 0.4473
vn 0.3696 -0.8170 0.4427
vn -0.8190 0.3549 0.4508
vn -0.8292 0.3352 0.4473
vn 0.4065 -0.8061 0.4302
vn 0.4137 -0.8036 0.4279
vn -0.8897 0.1855 0.4172
vn -0.8975 0.1592 0.4113
vn 0.4389 -0.7941 0.4203
vn 0.4433 -0.7923 0.4192
vn -0.9255 0.0227 0.3781
vn -0.9286 -0.0043 0.3712
vn 0.4647 -0.7826 0.4142
vn 0.4673 -0.7813 0.4137
vn -0.9330 -0.1121 0.3421
vn -0.9323 -0.1327 0.3364
vn 0.4882 -0.7701 0.4105
vn 0.4895 -0.7694 0.4104
vn -0.9259 -0.2076 0.3156
vn -0.9240 -0.2209 0.3120
vn 0.5120 -0.7553 0.4092
vn 0.5118 -0.7554 0.4092
vn -0.9153 -0.2698 0.2990
vn -0.9137 -0.2774 0.2971
vn 0.5376 -0.7365 0.4106
vn 0.5358 -0.7379 0.4104
vn -0.9065 -0.3069 0.2900
vn -0.9055 -0.3104 0.2892
vn 0.5666 -0.7115 0.4157
vn 0.5628 -0.7150 0.4148
vn -0.9015 -0.3244 0.2864
vn -0.9013 -0.3253 0.2862
vn 0.6007 -0.6765 0.4261
vn 0.5944 -0.6834 0.4239
vn -0.9012 -0.3256 0.2860
vn -0.9014 -0.3251 0.2860
vn 0.6418 -0.6251 0.4443
vn 0.6325 -0.6376 0.4398
vn -0.9057 -0.3120 0.2870
vn -0.9060 -0.3111 0.2870
vn 0.6912 -0.5458 0.4737
vn 0.6790 -0.5675 0.4658
vn -0.9149 -0.2834 0.2874
vn -0.9150 -0.2833 0.2874
vn 0.7466 -0.4180 0.5176
vn 0.7337 -0.4531 0.5063
vn -0.9284 -0.2384 0.2850
vn -0.9278 -0.2405 0.2852
vn 0.7914 -0.2183 0.5710
vn 0.7851 -0.2630 0.5608
vn -0.9450 -0.1741 0.2769
vn -0.9435 -0.1803 0.2779
vn 0.7916 0.0319 0.6102
vn 0.7943 0.0050 0.6075
vn -0.9619 -0.0864 0.2594
vn -0.9599 -0.0993 0.2623
vn 0.7350 0.2784 0.6183
vn 0.7341 0.2810 0.6182
vn -0.9732 0.0232 0.2288
vn -0.9719 0.0025 0.2352
vn 0.6402 0.4805 0.5995
vn 0.6294 0.4980 0.5966
vn -0.9730 0.1295 0.1911
vn -0.9739 0.1080 0.1994
vn 0.5353 0.6249 0.5683
vn 0.5195 0.6425 0.5633
vn -0.9650 0.2108 0.1560
vn -0.9674 0.1929 0.1643
vn 0.4395 0.7199 0.5373
vn 0.4240 0.7327 0.5323
vn -0.9559 0.2636 0.1297
vn -0.9583 0.2515 0.1361
vn 0.0248 0.8893 0.4566
vn 0.0253 0.8893 0.4566
vn 0.0678 0.8870 0.4567
vn 0.0685 0.8870 0.4567
vn 0.3586 0.7808 0.5116
vn 0.3458 0.7891 0.5077
vn -0.9510 0.2863 0.1171
vn -0.9518 0.2826 0.1193
vn -0.0268 0.8884 0.4583
vn -0.0250 0.8885 0.4582
vn 0.2920 0.8200 0.4923
vn 0.2821 0.8250 0.4897
vn -0.9543 0.2706 0.1270
vn -0.9522 0.2803 0.1210
vn -0.0884 0.8826 0.4618
vn -0.0854 0.8830 0.4616
vn 0.2365 0.8457 0.4784
vn 0.2293 0.8486 0.4768
vn -0.9655 0.1898 0.1782
vn -0.9617 0.2252 0.1560
vn -0.1623 0.8691 0.4672
vn -0.1581 0.8701 0.4669
vn 0.1892 0.8628 0.4688
vn 0.1842 0.8644 0.4679
vn -0.9507 -0.0288 0.3088
vn -0.9640 0.0568 0.2596
vn -0.2504 0.8442 0.4740
vn -0.2456 0.8458 0.4736
vn 0.1472 0.8743 0.4625
vn 0.1439 0.8751 0.4621
vn -0.9247 -0.1237 0.3600
vn -0.3538 0.8023 0.4809
vn -0.3498 0.8041 0.4806
vn 0.1080 0.8821 0.4586
vn 0.1061 0.8824 0.4585
vn -0.5687 -0.6028 0.5596
vn -0.4710 0.7365 0.4856
vn -0.4697 0.7373 0.4855
vn -0.0512 -0.8293 0.5565
usemtl Dirt/Rot
s 1
f 1/1/1 60/2/1 59/3/1 58/4/1 57/5/1 56/6/1 55/7/1 54/8/1 53/9/1 52/10/1 51/11/1 50/12/1 49/13/1 48/14/1 47/15/1 46/16/1 45/17/1 44/18/1 43/19/1 42/20/1 41/21/1 40/22/1 39/23/1 38/24/1 37/25/1 36/26/1 35/27/1 34/28/1 33/29/1 32/30/1 31/31/1 30/32/1 29/33/1 28/34/1 27/35/1 26/36/1 25/37/1 24/38/1 23/39/1 22/40/1 21/41/1 20/42/1 19/43/1 18/44/1 17/45/1 16/46/1 15/47/1 14/48/1 13/49/1 12/50/1 11/51/1 10/52/1 9/53/1 8/54/1 7/55/1 6/56/1 5/57/1 4/58/1 3/59/1 2/60/1
f 61/61/2 62/62/2 63/63/2 64/64/2 65/65/2 66/66/2 67/67/2 68/68/2 69/69/2 70/70/2 71/71/2 72/72/2 73/73/2 74/74/2 75/75/2 76/76/2 77/77/2 78/78/2 79/79/2 80/80/2 81/81/2 82/82/2 83/83/2 84/84/2 85/85/2 86/86/2 87/87/2 88/88/2 89/89/2 90/90/2 91/91/2 92/92/2 93/93/2 94/94/2 95/95/2 96/96/2 97/97/2 98/98/2 99/99/2 100/100/2 101/101/2 102/102/2 103/103/2 104/104/2 105/105/2 106/106/2 107/107/2 108/108/2 109/109/2 110/110/2 111/111/2 112/112/2 113/113/2 114/114/2 115/115/2 116/116/2 117/117/2 118/118/2 119/119/2 120/120/2
f 36/26/3 96/96/4 95/95/5 35/27/6
f 10/52/7 70/70/8 69/69/9 9/53/10
f 37/25/11 97/97/12 96/96/4 36/26/3
f 11/51/13 71/71/14 70/70/8 10/52/7
f 38/24/15 98/98/16 97/97/12 37/25/11
f 12/50/17 72/72/18 71/71/14 11/51/13
f 39/23/19 99/99/20 98/98/16 38/24/15
f 13/49/21 73/73/22 72/72/18 12/50/17
f 40/22/23 100/100/24 99/99/20 39/23/19
f 14/48/25 74/74/26 73/73/22 13/49/21
f 41/21/27 101/101/28 100/100/24 40/22/23
f 15/47/29 75/75/30 74/74/26 14/48/25
f 42/20/31 102/102/32 101/101/28 41/21/27
f 16/46/33 76/76/34 75/75/30 15/47/29
f 43/19/35 103/103/36 102/102/32 42/20/31
f 17/45/37 77/77/38 76/76/34 16/46/33
f 44/18/39 104/104/40 103/103/36 43/19/35
f 18/44/41 78/78/42 77/77/38 17/45/37
f 45/17/43 105/105/44 104/104/40 44/18/39
f 19/43/45 79/79/46 78/78/42 18/44/41
f 46/16/47 106/106/48 105/105/44 45/17/43
f 20/42/49 80/80/50 79/79/46 19/43/45
f 47/15/51 107/107/52 106/106/48 46/16/47
f 21/41/53 81/81/54 80/80/50 20/42/49
f 48/14/55 108/108/56 107/107/52 47/15/51
f 22/40/57 82/82/58 81/81/54 21/41/53
f 49/13/59 109/109/60 108/108/56 48/14/55
f 23/39/61 83/83/62 82/82/58 22/40/57
f 50/12/63 110/110/64 109/109/60 49/13/59
f 24/38/65 84/84/66 83/83/62 23/39/61
f 51/11/67 111/111/68 110/110/64 50/12/63
f 25/37/69 85/85/70 84/84/66 24/38/65
f 52/10/71 112/112/72 111/111/68 51/11/67
f 26/36/73 86/86/74 85/85/70 25/37/69
f 53/9/75 113/113/76 112/112/72 52/10/71
f 27/35/77 87/87/78 86/86/74 26/36/73
f 54/8/79 114/114/80 113/113/76 53/9/75
f 28/34/81 88/88/82 87/87/78 27/35/77
f 2/60/83 62/62/84 61/61/85 1/1/86
f 55/7/87 115/115/88 114/114/80 54/8/79
f 29/33/89 89/89/90 88/88/82 28/34/81
f 3/59/91 63/63/92 62/62/84 2/60/83
f 56/6/93 116/116/94 115/115/88 55/7/87
f 30/32/95 90/90/96 89/89/90 29/33/89
f 4/58/97 64/64/98 63/63/92 3/59/91
f 57/5/99 117/117/100 116/116/94 56/6/93
f 31/31/101 91/91/102 90/90/96 30/32/95
f 5/57/103 65/65/104 64/64/98 4/58/97
f 58/4/105 118/118/106 117/117/100 57/5/99
f 32/30/107 92/92/108 91/91/102 31/31/101
f 6/56/109 66/66/110 65/65/104 5/57/103
f 59/3/111 119/119/112 118/118/106 58/4/105
f 33/29/113 93/93/113 92/92/108 32/30/107
f 7/55/114 67/67/115 66/66/110 6/56/109
f 60/2/116 120/120/117 119/119/112 59/3/111
f 34/28/118 94/94/118 93/93/118 33/29/118
f 8/54/119 68/68/120 67/67/115 7/55/114
f 1/1/86 61/61/85 120/120/117 60/2/116
f 35/27/6 95/95/5 94/94/121 34/28/121
f 9/53/10 69/69/9 68/68/120 8/54/119
