# Blender v2.93.3 OBJ File: 'stains.blend'
# www.blender.org
mtllib stain-1.mtl
o NurbsCurve.025
v -7.312161 -0.455274 0.000001
v -7.189540 -0.628104 0.000001
v -6.278584 -1.562956 0.000001
v -6.097615 -1.830249 0.000001
v -5.385943 -3.838857 0.000000
v -5.287712 -3.978404 0.000000
v -5.172550 -4.093968 0.000000
v -5.037822 -4.181654 0.000000
v -4.881769 -4.238646 0.000000
v -4.706134 -4.266484 0.000000
v -4.513536 -4.267800 -0.000000
v -4.306593 -4.245224 -0.000000
v -4.087928 -4.201382 -0.000000
v -3.860157 -4.138907 -0.000000
v -3.387777 -3.968573 -0.000000
v -1.621777 -3.096258 -0.000001
v -1.432275 -3.029483 -0.000001
v -1.248157 -2.988963 -0.000001
v -1.068654 -2.979999 -0.000001
v -0.892997 -3.007886 -0.000001
v -0.720416 -3.077919 -0.000001
v -0.550142 -3.195396 -0.000001
v -0.213441 -3.593874 -0.000001
v 1.273308 -6.748775 -0.000002
v 1.432302 -6.962101 -0.000002
v 1.589337 -7.095427 -0.000002
v 1.744219 -7.134418 -0.000002
v 1.896836 -7.069165 -0.000002
v 2.047424 -6.907427 -0.000002
v 2.196301 -6.661385 -0.000002
v 4.126046 -1.196434 -0.000003
v 4.456841 -0.674307 -0.000003
v 4.811396 -0.285692 -0.000003
v 4.999439 -0.139729 -0.000003
v 5.195649 -0.025078 -0.000003
v 5.400766 0.058952 -0.000003
v 5.615535 0.113047 -0.000003
v 5.840430 0.138626 -0.000003
v 6.074852 0.140030 -0.000003
v 6.317934 0.122328 -0.000004
v 7.632947 -0.075335 -0.000004
v 7.909807 -0.101210 -0.000004
v 8.189267 -0.110703 -0.000004
v 8.470458 -0.098745 -0.000004
v 8.752516 -0.060267 -0.000004
v 9.034087 0.008551 -0.000004
v 9.311879 0.106503 -0.000005
v 9.582106 0.231137 -0.000005
v 9.840990 0.379997 -0.000005
v 10.309593 0.740570 -0.000005
v 10.687439 1.168580 -0.000005
v 10.944269 1.644381 -0.000005
v 11.049831 2.148330 -0.000005
v 11.037691 2.404843 -0.000005
v 10.892393 2.917330 -0.000005
v 10.610950 3.417574 -0.000005
v 9.760635 4.326012 -0.000005
v 9.252274 4.706543 -0.000005
v 8.728268 5.019979 -0.000004
v 8.206511 5.263743 -0.000004
v 7.693056 5.446057 -0.000004
v 7.193436 5.575606 -0.000004
v 6.950543 5.623310 -0.000004
v 6.482053 5.690006 -0.000004
v 6.041233 5.725658 -0.000004
v 5.631413 5.738297 -0.000003
v 5.247117 5.733321 -0.000003
v 3.241788 5.600414 -0.000003
v 1.799170 5.583729 -0.000002
v -5.194458 5.750031 -0.000000
v -5.739504 5.730039 0.000000
v -6.216349 5.687156 0.000000
v -6.434287 5.655612 0.000000
v -6.641288 5.616522 0.000000
v -6.839387 5.569282 0.000001
v -7.030622 5.513281 0.000001
v -7.400035 5.372815 0.000001
v -7.751181 5.196034 0.000001
v -8.071687 4.989375 0.000001
v -8.348565 4.759514 0.000001
v -8.568828 4.513129 0.000001
v -8.719490 4.256896 0.000001
v -8.764664 4.127173 0.000001
v -8.791786 3.866940 0.000001
v -7.312161 -0.455274 -0.141275
v -7.189540 -0.628104 -0.141275
v -6.278584 -1.562956 -0.141275
v -6.097615 -1.830249 -0.141275
v -5.385943 -3.838857 -0.141276
v -5.287712 -3.978404 -0.141276
v -5.172550 -4.093968 -0.141276
v -5.037822 -4.181654 -0.141276
v -4.881769 -4.238646 -0.141276
v -4.706134 -4.266484 -0.141276
v -4.513536 -4.267800 -0.141276
v -4.306593 -4.245224 -0.141276
v -4.087928 -4.201382 -0.141276
v -3.860157 -4.138907 -0.141276
v -3.387777 -3.968573 -0.141272
v -1.621777 -3.096258 -0.141277
v -1.432275 -3.029483 -0.141277
v -1.248157 -2.988963 -0.141273
v -1.068654 -2.979999 -0.141277
v -0.892997 -3.007886 -0.141277
v -0.720416 -3.077919 -0.141277
v -0.550142 -3.195396 -0.141277
v -0.213441 -3.593874 -0.141277
v 1.273308 -6.748775 -0.141278
v 1.432302 -6.962101 -0.141278
v 1.589337 -7.095427 -0.141278
v 1.744219 -7.134418 -0.141274
v 1.896836 -7.069165 -0.141274
v 2.047424 -6.907427 -0.141274
v 2.196301 -6.661385 -0.141278
v 4.126046 -1.196434 -0.141279
v 4.456841 -0.674307 -0.141279
v 4.811396 -0.285692 -0.141279
v 4.999439 -0.139729 -0.141279
v 5.195649 -0.025078 -0.141275
v 5.400766 0.058952 -0.141279
v 5.615535 0.113047 -0.141279
v 5.840430 0.138626 -0.141279
v 6.074852 0.140030 -0.141279
v 6.317934 0.122328 -0.141275
v 7.632947 -0.075335 -0.141280
v 7.909807 -0.101210 -0.141280
v 8.189267 -0.110703 -0.141280
v 8.470458 -0.098745 -0.141280
v 8.752516 -0.060267 -0.141280
v 9.034087 0.008551 -0.141280
v 9.311879 0.106503 -0.141276
v 9.582106 0.231137 -0.141281
v 9.840990 0.379997 -0.141281
v 10.309593 0.740570 -0.141281
v 10.687439 1.168580 -0.141281
v 10.944269 1.644381 -0.141281
v 11.049831 2.148330 -0.141277
v 11.037691 2.404843 -0.141281
v 10.892393 2.917330 -0.141281
v 10.610950 3.417574 -0.141277
v 9.760635 4.326012 -0.141281
v 9.252274 4.706543 -0.141276
v 8.728268 5.019979 -0.141280
v 8.206511 5.263743 -0.141280
v 7.693056 5.446057 -0.141280
v 7.193436 5.575606 -0.141280
v 6.950543 5.623310 -0.141280
v 6.482053 5.690006 -0.141280
v 6.041233 5.725658 -0.141279
v 5.631413 5.738297 -0.141279
v 5.247117 5.733321 -0.141279
v 3.241788 5.600414 -0.141279
v 1.799170 5.583729 -0.141278
v -5.194458 5.750031 -0.141276
v -5.739504 5.730039 -0.141276
v -6.216349 5.687156 -0.141276
v -6.434287 5.655612 -0.141271
v -6.641288 5.616522 -0.141271
v -6.839387 5.569282 -0.141275
v -7.030622 5.513281 -0.141275
v -7.400035 5.372815 -0.141275
v -7.751181 5.196034 -0.141271
v -8.071687 4.989375 -0.141275
v -8.348565 4.759514 -0.141275
v -8.568828 4.513129 -0.141275
v -8.719490 4.256896 -0.141275
v -8.764664 4.127173 -0.141275
v -8.791786 3.866940 -0.141275
vt 0.000000 0.000000
vt 0.000000 0.000000
vt 0.000000 0.000000
vt 0.000000 0.000000
vt 0.000000 0.000000
vt 0.000000 0.000000
vt 0.000000 0.000000
vt 0.000000 0.000000
vt 0.000000 0.000000
vt 0.000000 0.000000
vt 0.000000 0.000000
vt 0.000000 0.000000
vt 0.000000 0.000000
vt 0.000000 0.000000
vt 0.000000 0.000000
vt 0.000000 0.000000
vt 0.000000 0.000000
vt 0.000000 0.000000
vt 0.000000 0.000000
vt 0.000000 0.000000
vt 0.000000 0.000000
vt 0.000000 0.000000
vt 0.000000 0.000000
vt 0.000000 0.000000
vt 0.000000 0.000000
vt 0.000000 0.000000
vt 0.000000 0.000000
vt 0.000000 0.000000
vt 0.000000 0.000000
vt 0.000000 0.000000
vt 0.000000 0.000000
vt 0.000000 0.000000
vt 0.000000 0.000000
vt 0.000000 0.000000
vt 0.000000 0.000000
vt 0.000000 0.000000
vt 0.000000 0.000000
vt 0.000000 0.000000
vt 0.000000 0.000000
vt 0.000000 0.000000
vt 0.000000 0.000000
vt 0.000000 0.000000
vt 0.000000 0.000000
vt 0.000000 0.000000
vt 0.000000 0.000000
vt 0.000000 0.000000
vt 0.000000 0.000000
vt 0.000000 0.000000
vt 0.000000 0.000000
vt 0.000000 0.000000
vt 0.000000 0.000000
vt 0.000000 0.000000
vt 0.000000 0.000000
vt 0.000000 0.000000
vt 0.000000 0.000000
vt 0.000000 0.000000
vt 0.000000 0.000000
vt 0.000000 0.000000
vt 0.000000 0.000000
vt 0.000000 0.000000
vt 0.000000 0.000000
vt 0.000000 0.000000
vt 0.000000 0.000000
vt 0.000000 0.000000
vt 0.000000 0.000000
vt 0.000000 0.000000
vt 0.000000 0.000000
vt 0.000000 0.000000
vt 0.000000 0.000000
vt 0.000000 0.000000
vt 0.000000 0.000000
vt 0.000000 0.000000
vt 0.000000 0.000000
vt 0.000000 0.000000
vt 0.000000 0.000000
vt 0.000000 0.000000
vt 0.000000 0.000000
vt 0.000000 0.000000
vt 0.000000 0.000000
vt 0.000000 0.000000
vt 0.000000 0.000000
vt 0.000000 0.000000
vt 0.000000 0.000000
vt 0.000000 0.000000
vt 0.000000 0.000000
vt 0.000000 0.000000
vt 0.000000 0.000000
vt 0.000000 0.000000
vt 0.000000 0.000000
vt 0.000000 0.000000
vt 0.000000 0.000000
vt 0.000000 0.000000
vt 0.000000 0.000000
vt 0.000000 0.000000
vt 0.000000 0.000000
vt 0.000000 0.000000
vt 0.000000 0.000000
vt 0.000000 0.000000
vt 0.000000 0.000000
vt 0.000000 0.000000
vt 0.000000 0.000000
vt 0.000000 0.000000
vt 0.000000 0.000000
vt 0.000000 0.000000
vt 0.000000 0.000000
vt 0.000000 0.000000
vt 0.000000 0.000000
vt 0.000000 0.000000
vt 0.000000 0.000000
vt 0.000000 0.000000
vt 0.000000 0.000000
vt 0.000000 0.000000
vt 0.000000 0.000000
vt 0.000000 0.000000
vt 0.000000 0.000000
vt 0.000000 0.000000
vt 0.000000 0.000000
vt 0.000000 0.000000
vt 0.000000 0.000000
vt 0.000000 0.000000
vt 0.000000 0.000000
vt 0.000000 0.000000
vt 0.000000 0.000000
vt 0.000000 0.000000
vt 0.000000 0.000000
vt 0.000000 0.000000
vt 0.000000 0.000000
vt 0.000000 0.000000
vt 0.000000 0.000000
vt 0.000000 0.000000
vt 0.000000 0.000000
vt 0.000000 0.000000
vt 0.000000 0.000000
vt 0.000000 0.000000
vt 0.000000 0.000000
vt 0.000000 0.000000
vt 0.000000 0.000000
vt 0.000000 0.000000
vt 0.000000 0.000000
vt 0.000000 0.000000
vt 0.000000 0.000000
vt 0.000000 0.000000
vt 0.000000 0.000000
vt 0.000000 0.000000
vt 0.000000 0.000000
vt 0.000000 0.000000
vt 0.000000 0.000000
vt 0.000000 0.000000
vt 0.000000 0.000000
vt 0.000000 0.000000
vt 0.000000 0.000000
vt 0.000000 0.000000
vt 0.000000 0.000000
vt 0.000000 0.000000
vt 0.000000 0.000000
vt 0.000000 0.000000
vt 0.000000 0.000000
vt 0.000000 0.000000
vt 0.000000 0.000000
vt 0.000000 0.000000
vt 0.000000 0.000000
vt 0.000000 0.000000
vt 0.000000 0.000000
vt 0.000000 0.000000
vt 0.000000 0.000000
vt 0.000000 0.000000
vt 0.000000 0.000000
vt 0.000000 0.000000
vn 0.0000 0.0000 1.0000
vn -0.0000 -0.0000 -1.0000
vn -0.9936 -0.1127 0.0000
vn -0.8900 -0.4560 0.0000
vn 0.9232 0.3842 0.0000
vn 0.9869 0.1611 0.0000
vn 0.7948 -0.6069 0.0000
vn 0.8995 -0.4368 0.0000
vn -0.8925 -0.4510 0.0000
vn -0.7752 -0.6317 0.0000
vn -0.7658 -0.6431 0.0000
vn -0.8884 -0.4591 0.0000
vn -0.6304 -0.7763 0.0000
vn -0.4471 -0.8945 0.0000
vn -0.2510 -0.9680 0.0000
vn -0.0819 -0.9966 0.0000
vn 0.0509 -0.9987 0.0000
vn 0.1527 -0.9883 0.0000
vn 0.2307 -0.9730 0.0000
vn 0.3021 -0.9533 0.0000
vn 0.2931 0.9561 0.0000
vn 0.3794 0.9252 0.0000
vn -0.4031 0.9152 0.0000
vn -0.3185 0.9479 0.0000
vn 0.3917 -0.9201 0.0000
vn 0.3883 -0.9215 0.0000
vn 0.2741 -0.9617 0.0000
vn 0.1329 -0.9911 0.0000
vn -0.0537 -0.9986 0.0000
vn -0.2681 -0.9634 0.0000
vn -0.4748 -0.8801 0.0000
vn -0.6718 -0.7408 0.0000
vn 0.8066 0.5911 0.0000
vn -0.8414 -0.5405 0.0000
vn -0.8575 -0.5145 0.0000
vn -0.7292 -0.6843 0.0000
vn -0.4576 -0.8892 0.0000
vn -0.2441 -0.9697 0.0000
vn 0.5750 -0.8182 0.0000
vn 0.3931 -0.9195 0.0000
vn 0.7979 -0.6027 0.0000
vn 0.9040 -0.4276 0.0000
vn -0.6941 0.7199 0.0000
vn -0.5914 0.8064 0.0000
vn -0.7682 -0.6402 0.0000
vn -0.1107 -0.9939 0.0000
vn -0.1209 -0.9927 0.0000
vn 0.5600 -0.8285 0.0000
vn 0.6784 -0.7347 0.0000
vn 0.5601 -0.8285 0.0000
vn 0.4429 -0.8966 0.0000
vn 0.3125 -0.9499 0.0000
vn 0.1790 -0.9838 0.0000
vn 0.0596 -0.9982 0.0000
vn -0.0333 -0.9994 0.0000
vn 0.0557 0.9984 0.0000
vn 0.1108 0.9938 0.0000
vn -0.4965 0.8680 0.0000
vn -0.0635 -0.9980 0.0000
vn 0.0043 -1.0000 0.0000
vn 0.0889 -0.9960 0.0000
vn 0.1865 -0.9824 0.0000
vn 0.2853 -0.9584 0.0000
vn 0.3761 -0.9266 0.0000
vn 0.4591 -0.8884 0.0000
vn 0.5554 -0.8316 0.0000
vn -0.0064 1.0000 0.0000
vn 0.0061 1.0000 0.0000
vn 0.0089 1.0000 0.0000
vn 0.4689 0.8832 0.0000
vn 0.9968 -0.0795 0.0000
vn -0.9076 0.4199 0.0000
vn -0.8077 0.5896 0.0000
vn -0.0631 0.9980 0.0000
vn -0.1165 0.9932 0.0000
vn 0.1669 0.9860 0.0000
vn 0.2220 0.9751 0.0000
vn -0.0389 0.9992 0.0000
vn 0.6829 -0.7305 0.0000
vn 0.9391 -0.3436 0.0000
vn 0.8202 -0.5721 0.0000
vn -0.9760 0.2177 0.0000
vn 0.6672 0.7448 0.0000
vn -0.1644 0.9864 0.0000
vn -0.2088 0.9780 0.0000
vn -0.2566 0.9665 0.0000
vn -0.0396 0.9992 0.0000
vn 0.5570 0.8305 0.0000
usemtl Dirt/Rot
s 1
f 84/1/1 1/2/1 2/3/1 3/4/1 4/5/1 5/6/1 6/7/1 7/8/1 8/9/1 9/10/1 10/11/1 11/12/1 12/13/1 13/14/1 14/15/1 15/16/1 16/17/1 17/18/1 18/19/1 19/20/1 20/21/1 21/22/1 22/23/1 23/24/1 24/25/1 25/26/1 26/27/1 27/28/1 28/29/1 29/30/1 30/31/1 31/32/1 32/33/1 33/34/1 34/35/1 35/36/1 36/37/1 37/38/1 38/39/1 39/40/1 40/41/1 41/42/1 42/43/1 43/44/1 44/45/1 45/46/1 46/47/1 47/48/1 48/49/1 49/50/1 50/51/1 51/52/1 52/53/1 53/54/1 54/55/1 55/56/1 56/57/1 57/58/1 58/59/1 59/60/1 60/61/1 61/62/1 62/63/1 63/64/1 64/65/1 65/66/1 66/67/1 67/68/1 68/69/1 69/70/1 70/71/1 71/72/1 72/73/1 73/74/1 74/75/1 75/76/1 76/77/1 77/78/1 78/79/1 79/80/1 80/81/1 81/82/1 82/83/1 83/84/1
f 168/85/2 167/86/2 166/87/2 165/88/2 164/89/2 163/90/2 162/91/2 161/92/2 160/93/2 159/94/2 158/95/2 157/96/2 156/97/2 155/98/2 154/99/2 153/100/2 152/101/2 151/102/2 150/103/2 149/104/2 148/105/2 147/106/2 146/107/2 145/108/2 144/109/2 143/110/2 142/111/2 141/112/2 140/113/2 139/114/2 138/115/2 137/116/2 136/117/2 135/118/2 134/119/2 133/120/2 132/121/2 131/122/2 130/123/2 129/124/2 128/125/2 127/126/2 126/127/2 125/128/2 124/129/2 123/130/2 122/131/2 121/132/2 120/133/2 119/134/2 118/135/2 117/136/2 116/137/2 115/138/2 114/139/2 113/140/2 112/141/2 111/142/2 110/143/2 109/144/2 108/145/2 107/146/2 106/147/2 105/148/2 104/149/2 103/150/2 102/151/2 101/152/2 100/153/2 99/154/2 98/155/2 97/156/2 96/157/2 95/158/2 94/159/2 93/160/2 92/161/2 91/162/2 90/163/2 89/164/2 88/165/2 87/166/2 86/167/2 85/168/2
f 84/1/3 168/85/3 85/168/4 1/2/4
f 55/56/5 54/55/6 138/115/6 139/114/5
f 32/33/7 31/32/8 115/138/8 116/137/7
f 4/5/9 3/4/10 87/166/10 88/165/9
f 6/7/11 5/6/12 89/164/12 90/163/11
f 7/8/13 6/7/11 90/163/11 91/162/13
f 8/9/14 7/8/13 91/162/13 92/161/14
f 9/10/15 8/9/14 92/161/14 93/160/15
f 10/11/16 9/10/15 93/160/15 94/159/16
f 11/12/17 10/11/16 94/159/16 95/158/17
f 12/13/18 11/12/17 95/158/17 96/157/18
f 13/14/19 12/13/18 96/157/18 97/156/19
f 14/15/20 13/14/19 97/156/19 98/155/20
f 61/62/21 60/61/22 144/109/22 145/108/21
f 77/78/23 76/77/24 160/93/24 161/92/23
f 15/16/25 99/154/25 100/153/26 16/17/26
f 17/18/27 16/17/26 100/153/26 101/152/27
f 18/19/28 17/18/27 101/152/27 102/151/28
f 19/20/29 18/19/28 102/151/28 103/150/29
f 20/21/30 19/20/29 103/150/29 104/149/30
f 21/22/31 20/21/30 104/149/30 105/148/31
f 22/23/32 21/22/31 105/148/31 106/147/32
f 56/57/33 55/56/5 139/114/5 140/113/33
f 23/24/34 107/146/34 108/145/35 24/25/35
f 25/26/36 24/25/35 108/145/35 109/144/36
f 26/27/37 25/26/36 109/144/36 110/143/37
f 27/28/38 26/27/37 110/143/37 111/142/38
f 28/29/39 27/28/40 111/142/40 112/141/39
f 29/30/41 28/29/39 112/141/39 113/140/41
f 30/31/42 29/30/41 113/140/41 114/139/42
f 80/81/43 79/80/44 163/90/44 164/89/43
f 2/3/45 86/167/45 87/166/10 3/4/10
f 40/41/46 124/129/46 125/128/47 41/42/47
f 34/35/48 33/34/49 117/136/49 118/135/50
f 35/36/51 34/35/48 118/135/50 119/134/51
f 36/37/52 35/36/51 119/134/51 120/133/52
f 37/38/53 36/37/52 120/133/52 121/132/53
f 38/39/54 37/38/53 121/132/53 122/131/54
f 39/40/55 38/39/54 122/131/54 123/130/55
f 40/41/46 39/40/55 123/130/55 124/129/46
f 65/66/56 64/65/57 148/105/57 149/104/56
f 23/24/34 22/23/32 106/147/32 107/146/34
f 78/79/58 77/78/23 161/92/23 162/91/58
f 42/43/59 41/42/47 125/128/47 126/127/59
f 43/44/60 42/43/59 126/127/59 127/126/60
f 44/45/61 43/44/60 127/126/60 128/125/61
f 45/46/62 44/45/61 128/125/61 129/124/62
f 46/47/63 45/46/62 129/124/62 130/123/63
f 47/48/64 46/47/63 130/123/63 131/122/64
f 48/49/65 47/48/64 131/122/64 132/121/65
f 49/50/66 48/49/65 132/121/65 133/120/66
f 70/71/67 69/70/68 153/100/68 154/99/67
f 66/67/69 65/66/56 149/104/56 150/103/69
f 60/61/22 59/60/70 143/110/70 144/109/22
f 54/55/6 53/54/71 137/116/71 138/115/6
f 82/83/72 81/82/73 165/88/73 166/87/72
f 15/16/25 14/15/20 98/155/20 99/154/25
f 71/72/74 70/71/67 154/99/67 155/98/74
f 79/80/44 78/79/58 162/91/58 163/90/44
f 33/34/49 32/33/7 116/137/7 117/136/49
f 72/73/75 71/72/74 155/98/74 156/97/75
f 63/64/76 62/63/77 146/107/77 147/106/76
f 62/63/77 61/62/21 145/108/21 146/107/77
f 68/69/78 152/101/78 153/100/68 69/70/68
f 50/51/79 49/50/66 133/120/66 134/119/79
f 2/3/45 1/2/4 85/168/4 86/167/45
f 53/54/71 52/53/80 136/117/80 137/116/71
f 5/6/12 4/5/9 88/165/9 89/164/12
f 52/53/80 51/52/81 135/118/81 136/117/80
f 81/82/73 80/81/43 164/89/43 165/88/73
f 84/1/3 83/84/82 167/86/82 168/85/3
f 56/57/33 140/113/33 141/112/83 57/58/83
f 73/74/84 72/73/75 156/97/75 157/96/84
f 74/75/85 73/74/84 157/96/84 158/95/85
f 75/76/86 74/75/85 158/95/85 159/94/86
f 76/77/24 75/76/86 159/94/86 160/93/24
f 64/65/57 63/64/76 147/106/76 148/105/57
f 51/52/81 50/51/79 134/119/79 135/118/81
f 67/68/87 66/67/69 150/103/69 151/102/87
f 30/31/42 114/139/42 115/138/8 31/32/8
f 59/60/70 58/59/88 142/111/88 143/110/70
f 83/84/82 82/83/72 166/87/72 167/86/82
f 58/59/88 57/58/83 141/112/83 142/111/88
f 67/68/87 151/102/87 152/101/78 68/69/78
