# Blender v2.93.3 OBJ File: 'roofs.blend'
# www.blender.org
mtllib Roof-4.mtl
o Cube.004
v 20.000000 1.000000 -50.000000
v 20.000000 1.000000 50.000000
v -20.000000 1.000000 -50.000000
v -20.000000 1.000000 50.000000
v -20.000000 1.000000 33.427345
v 20.000000 1.000000 29.062372
v -18.485315 1.000000 32.622372
v -15.980782 1.000000 30.954880
v -12.592391 1.000000 30.644512
v -10.315216 1.000000 31.185102
v -7.762668 1.000000 31.411243
v -6.736615 1.000000 31.012838
v -4.808359 1.000000 29.583723
v -2.761357 1.000000 29.582804
v -0.731394 1.000000 29.984846
v 0.861292 1.000000 30.912336
v 2.424562 1.000000 30.985207
v 3.729817 1.000000 29.758978
v 6.841036 1.000000 28.322622
v 8.906622 1.000000 28.977108
v 11.818764 1.000000 30.452084
v 13.183088 1.000000 30.418694
v 14.820457 1.000000 29.043844
v 16.832424 1.000000 28.827042
v -20.000000 1.000000 -32.113533
v 20.000000 1.000000 -18.312613
v -17.739756 1.000000 -28.483496
v -15.847182 1.000000 -27.192390
v -14.167315 1.000000 -26.763449
v -12.303964 1.000000 -24.830956
v -9.990631 1.000000 -22.203960
v -7.315468 1.000000 -21.002609
v -3.579834 1.000000 -21.274174
v -2.428739 1.000000 -22.214615
v 0.651946 1.000000 -21.162268
v 3.990386 1.000000 -16.213903
v 5.673871 1.000000 -15.931280
v 8.934184 1.000000 -18.563314
v 12.642932 1.000000 -18.963633
v 13.616805 1.000000 -16.427561
v 16.328516 1.000000 -16.603336
v 20.000000 -1.000000 -50.000000
v 20.000000 -1.000000 50.000000
v -20.000000 -1.000000 -50.000000
v -20.000000 -1.000000 50.000000
v -20.000000 -1.000000 33.427345
v 20.000000 -1.000000 29.062372
v -18.485315 -1.000000 32.622372
v -15.980782 -1.000000 30.954880
v -12.592391 -1.000000 30.644512
v -10.315216 -0.999939 31.185102
v -7.762668 -1.000000 31.411243
v -6.736615 -1.000000 31.012838
v -4.808359 -0.999939 29.583723
v -2.761357 -0.999939 29.582804
v -0.731394 -1.000000 29.984846
v 0.861292 -1.000000 30.912336
v 2.424562 -1.000000 30.985207
v 3.729817 -0.999939 29.758978
v 6.841036 -1.000000 28.322622
v 8.906622 -0.999939 28.977108
v 11.818764 -0.999939 30.452084
v 13.183088 -1.000000 30.418694
v 14.820457 -1.000000 29.043844
v 16.832424 -1.000000 28.827042
v -20.000000 -1.000000 -32.113533
v 20.000000 -0.999939 -18.312613
v -17.739756 -1.000000 -28.483496
v -15.847182 -1.000000 -27.192390
v -14.167315 -1.000000 -26.763449
v -12.303964 -1.000000 -24.830956
v -9.990631 -1.000000 -22.203960
v -7.315468 -1.000000 -21.002609
v -3.579834 -1.000000 -21.274174
v -2.428739 -1.000000 -22.214615
v 0.651946 -1.000000 -21.162268
v 3.990386 -1.000000 -16.213903
v 5.673871 -1.000000 -15.931280
v 8.934184 -1.000000 -18.563314
v 12.642932 -1.000000 -18.963633
v 13.616805 -1.000000 -16.427561
v 16.328516 -1.000000 -16.603336
vt 0.625000 0.500000
vt 0.875000 0.500000
vt 0.875000 0.544716
vt 0.860874 0.553791
vt 0.849045 0.557019
vt 0.838546 0.558091
vt 0.826900 0.562923
vt 0.812441 0.569490
vt 0.795722 0.572493
vt 0.772374 0.571815
vt 0.765180 0.569463
vt 0.745925 0.572094
vt 0.725060 0.584465
vt 0.714538 0.585172
vt 0.694161 0.578592
vt 0.670982 0.577591
vt 0.664895 0.583931
vt 0.647947 0.583492
vt 0.625000 0.579219
vt 0.625000 0.697656
vt 0.644797 0.697068
vt 0.657372 0.697610
vt 0.667606 0.701047
vt 0.676133 0.701130
vt 0.694334 0.697443
vt 0.707244 0.695807
vt 0.726689 0.699397
vt 0.734846 0.702463
vt 0.744617 0.702281
vt 0.754571 0.699962
vt 0.767258 0.698957
vt 0.780052 0.698959
vt 0.792104 0.702532
vt 0.798517 0.703528
vt 0.814470 0.702963
vt 0.828702 0.701611
vt 0.849880 0.702387
vt 0.865533 0.706556
vt 0.875000 0.708568
vt 0.875000 0.750000
vt 0.625000 0.750000
vt 0.625000 0.500000
vt 0.625000 0.579219
vt 0.647947 0.583492
vt 0.664895 0.583931
vt 0.670982 0.577591
vt 0.694161 0.578592
vt 0.714538 0.585172
vt 0.725060 0.584465
vt 0.745925 0.572094
vt 0.765180 0.569463
vt 0.772374 0.571815
vt 0.795722 0.572493
vt 0.812441 0.569490
vt 0.826900 0.562923
vt 0.838546 0.558091
vt 0.849045 0.557019
vt 0.860874 0.553791
vt 0.875000 0.544716
vt 0.875000 0.500000
vt 0.625000 0.697656
vt 0.625000 0.750000
vt 0.875000 0.750000
vt 0.875000 0.708568
vt 0.865533 0.706556
vt 0.849880 0.702387
vt 0.828702 0.701611
vt 0.814470 0.702963
vt 0.798517 0.703528
vt 0.792104 0.702532
vt 0.780052 0.698959
vt 0.767258 0.698957
vt 0.754571 0.699962
vt 0.744617 0.702281
vt 0.734846 0.702463
vt 0.726689 0.699397
vt 0.707244 0.695807
vt 0.694334 0.697443
vt 0.676133 0.701130
vt 0.667606 0.701047
vt 0.657372 0.697610
vt 0.644797 0.697068
vn 0.0000 1.0000 0.0000
vn 0.0000 -1.0000 0.0000
vn 0.0000 0.0000 1.0000
vn 1.0000 0.0000 0.0000
vn -1.0000 0.0000 0.0000
vn 0.0000 0.0000 -1.0000
vn -0.4693 0.0000 -0.8830
vn -0.5124 0.0000 -0.8588
vn -0.3329 0.0000 -0.9430
vn 0.0708 0.0000 -0.9975
vn 0.1600 0.0000 -0.9871
vn -0.1405 0.0000 -0.9901
vn -0.4830 0.0000 -0.8756
vn -0.5954 0.0000 -0.8034
vn -0.0004 0.0000 -1.0000
vn 0.0974 0.0000 -0.9952
vn 0.3536 0.0000 -0.9354
vn 0.2830 0.0000 -0.9591
vn 0.0466 0.0000 -0.9989
vn -0.6847 0.0000 -0.7288
vn -0.5591 0.0000 -0.8291
vn -0.4192 0.0000 -0.9079
vn 0.3021 0.0000 -0.9533
vn 0.3782 0.0000 -0.9257
vn 0.2204 0.0000 -0.9754
vn -0.0245 0.0000 -0.9997
vn -0.6430 0.0000 -0.7658
vn -0.1071 0.0000 -0.9942
vn -0.0166 0.0000 -0.9999
vn 0.0741 0.0000 -0.9973
vn -0.7217 0.0000 0.6922
vn -0.8489 0.0000 0.5286
vn -0.4117 0.0000 0.9113
vn -0.2474 0.0000 0.9689
vn -0.7354 0.0000 0.6777
vn -0.7199 0.0000 0.6941
vn -0.5935 0.0000 0.8048
vn -0.1739 0.0000 0.9848
vn 0.0725 0.0000 0.9974
vn 0.6327 0.0000 0.7744
vn -0.3233 0.0000 0.9463
vn -0.8290 0.0000 0.5593
vn -0.1656 0.0000 0.9862
vn 0.6281 0.0000 0.7781
vn 0.1073 0.0000 0.9942
vn -0.9335 0.0000 0.3585
vn 0.2476 0.0000 0.9689
vn 0.0647 0.0000 0.9979
vn 0.4221 0.0000 0.9066
usemtl Material
s 1
f 1/1/1 3/2/1 25/3/1 27/4/1 28/5/1 29/6/1 30/7/1 31/8/1 32/9/1 33/10/1 34/11/1 35/12/1 36/13/1 37/14/1 38/15/1 39/16/1 40/17/1 41/18/1 26/19/1
f 6/20/1 24/21/1 23/22/1 22/23/1 21/24/1 20/25/1 19/26/1 18/27/1 17/28/1 16/29/1 15/30/1 14/31/1 13/32/1 12/33/1 11/34/1 10/35/1 9/36/1 8/37/1 7/38/1 5/39/1 4/40/1 2/41/1
f 42/42/2 67/43/2 82/44/2 81/45/2 80/46/2 79/47/2 78/48/2 77/49/2 76/50/2 75/51/2 74/52/2 73/53/2 72/54/2 71/55/2 70/56/2 69/57/2 68/58/2 66/59/2 44/60/2
f 47/61/2 43/62/2 45/63/2 46/64/2 48/65/2 49/66/2 50/67/2 51/68/2 52/69/2 53/70/2 54/71/2 55/72/2 56/73/2 57/74/2 58/75/2 59/76/2 60/77/2 61/78/2 62/79/2 63/80/2 64/81/2 65/82/2
f 2/41/3 4/40/3 45/63/3 43/62/3
f 6/20/4 2/41/4 43/62/4 47/61/4
f 25/3/5 3/2/5 44/60/5 66/59/5
f 3/2/6 1/1/6 42/42/6 44/60/6
f 4/40/5 5/39/5 46/64/5 45/63/5
f 5/39/7 7/38/8 48/65/8 46/64/7
f 7/38/8 8/37/9 49/66/9 48/65/8
f 8/37/9 9/36/10 50/67/10 49/66/9
f 9/36/10 10/35/11 51/68/11 50/67/10
f 10/35/11 11/34/12 52/69/12 51/68/11
f 11/34/12 12/33/13 53/70/13 52/69/12
f 12/33/13 13/32/14 54/71/14 53/70/13
f 13/32/15 14/31/16 55/72/16 54/71/15
f 14/31/16 15/30/17 56/73/17 55/72/16
f 15/30/17 16/29/18 57/74/18 56/73/17
f 16/29/18 17/28/19 58/75/19 57/74/18
f 17/28/20 18/27/21 59/76/21 58/75/20
f 18/27/21 19/26/22 60/77/22 59/76/21
f 19/26/23 20/25/24 61/78/24 60/77/23
f 20/25/24 21/24/25 62/79/25 61/78/24
f 21/24/25 22/23/26 63/80/26 62/79/25
f 22/23/27 23/22/27 64/81/27 63/80/27
f 23/22/28 24/21/29 65/82/29 64/81/28
f 24/21/29 6/20/30 47/61/30 65/82/29
f 1/1/4 26/19/4 67/43/4 42/42/4
f 27/4/31 25/3/32 66/59/32 68/58/31
f 28/5/33 27/4/31 68/58/31 69/57/33
f 29/6/34 28/5/33 69/57/33 70/56/34
f 30/7/35 29/6/36 70/56/36 71/55/35
f 31/8/37 30/7/35 71/55/35 72/54/37
f 32/9/38 31/8/37 72/54/37 73/53/38
f 33/10/39 32/9/38 73/53/38 74/52/39
f 34/11/40 33/10/40 74/52/40 75/51/40
f 35/12/41 34/11/41 75/51/41 76/50/41
f 36/13/42 35/12/42 76/50/42 77/49/42
f 37/14/43 36/13/43 77/49/43 78/48/43
f 38/15/44 37/14/44 78/48/44 79/47/44
f 39/16/45 38/15/45 79/47/45 80/46/45
f 40/17/46 39/16/46 80/46/46 81/45/46
f 41/18/47 40/17/48 81/45/48 82/44/47
f 26/19/49 41/18/47 82/44/47 67/43/49
