# Blender v2.93.3 OBJ File: 'roofs.blend'
# www.blender.org
mtllib Roof-14.mtl
o Cube.014_Cube.031
v 20.000000 1.000000 -50.000000
v -20.000000 1.000000 -50.000000
v -20.000000 1.000000 10.617185
v 20.000000 1.000000 18.692863
v -17.240993 1.000000 14.407736
v -15.959086 1.000000 18.272823
v -13.315304 1.000000 19.706940
v -8.787489 1.000000 21.408981
v -4.962099 1.000000 23.483610
v 0.078430 1.000000 25.563276
v 3.822781 1.000000 26.007748
v 6.269814 1.000000 25.272196
v 8.717650 1.000000 22.758747
v 12.347528 1.000000 23.098772
v 14.132683 1.000000 23.358368
v 17.103069 1.000000 20.154425
v 20.000000 -1.000000 -50.000000
v -20.000000 -1.000000 -50.000000
v -20.000000 -1.000000 10.617185
v 20.000000 -1.000000 18.692863
v -17.240993 -1.000000 14.407736
v -15.959086 -0.999939 18.272823
v -13.315304 -1.000000 19.706940
v -8.787489 -0.999939 21.408981
v -4.962099 -0.999939 23.483610
v 0.078430 -1.000000 25.563276
v 3.822781 -1.000000 26.007748
v 6.269814 -1.000000 25.272196
v 8.717650 -1.000000 22.758747
v 12.347528 -1.000000 23.098772
v 14.132683 -0.999939 23.358368
v 17.103069 -0.999939 20.154425
vt 0.625000 0.500000
vt 0.875000 0.500000
vt 0.875000 0.651543
vt 0.857756 0.661019
vt 0.849744 0.670682
vt 0.833221 0.674267
vt 0.804922 0.678522
vt 0.781013 0.683709
vt 0.749510 0.688908
vt 0.726108 0.690019
vt 0.710814 0.688180
vt 0.695515 0.681897
vt 0.672828 0.682747
vt 0.661671 0.683396
vt 0.643106 0.675386
vt 0.625000 0.671732
vt 0.625000 0.500000
vt 0.625000 0.671732
vt 0.643106 0.675386
vt 0.661671 0.683396
vt 0.672828 0.682747
vt 0.695515 0.681897
vt 0.710814 0.688180
vt 0.726108 0.690019
vt 0.749510 0.688908
vt 0.781013 0.683709
vt 0.804922 0.678522
vt 0.833221 0.674267
vt 0.849744 0.670682
vt 0.857756 0.661019
vt 0.875000 0.651543
vt 0.875000 0.500000
vn 0.0000 1.0000 0.0000
vn -0.0000 -1.0000 0.0000
vn -1.0000 0.0000 0.0000
vn 0.0000 0.0000 -1.0000
vn 1.0000 0.0000 0.0000
vn -0.8894 0.0000 0.4571
vn -0.8085 0.0000 0.5885
vn -0.9492 0.0000 0.3148
vn -0.4153 0.0000 0.9097
vn -0.4768 0.0000 0.8790
vn -0.4297 0.0000 0.9030
vn -0.2520 0.0000 0.9677
vn 0.0868 0.0000 0.9962
vn 0.5187 0.0000 0.8550
vn 0.7164 0.0000 0.6977
vn -0.1186 0.0000 0.9929
vn -0.0933 0.0000 0.9956
vn -0.1439 0.0000 0.9896
vn 0.6014 0.0000 0.7990
vn 0.7333 0.0000 0.6799
vn 0.4504 0.0000 0.8928
usemtl Material
s 1
f 1/1/1 2/2/1 3/3/1 5/4/1 6/5/1 7/6/1 8/7/1 9/8/1 10/9/1 11/10/1 12/11/1 13/12/1 14/13/1 15/14/1 16/15/1 4/16/1
f 17/17/2 20/18/2 32/19/2 31/20/2 30/21/2 29/22/2 28/23/2 27/24/2 26/25/2 25/26/2 24/27/2 23/28/2 22/29/2 21/30/2 19/31/2 18/32/2
f 3/3/3 2/2/3 18/32/3 19/31/3
f 2/2/4 1/1/4 17/17/4 18/32/4
f 1/1/5 4/16/5 20/18/5 17/17/5
f 5/4/6 3/3/7 19/31/7 21/30/6
f 6/5/8 5/4/6 21/30/6 22/29/8
f 7/6/9 6/5/10 22/29/10 23/28/9
f 8/7/9 7/6/9 23/28/9 24/27/9
f 9/8/11 8/7/9 24/27/9 25/26/11
f 10/9/12 9/8/11 25/26/11 26/25/12
f 11/10/13 10/9/12 26/25/12 27/24/13
f 12/11/14 11/10/13 27/24/13 28/23/14
f 13/12/15 12/11/14 28/23/14 29/22/15
f 14/13/16 13/12/17 29/22/17 30/21/16
f 15/14/18 14/13/16 30/21/16 31/20/18
f 16/15/19 15/14/20 31/20/20 32/19/19
f 4/16/21 16/15/19 32/19/19 20/18/21
