# Blender v2.93.3 OBJ File: 'roofs.blend'
# www.blender.org
mtllib Roof-11.mtl
o Cube.011_Cube.028
v 20.000000 1.000000 -50.000000
v -20.000000 1.000000 -50.000000
v -20.000000 1.000000 -9.118551
v 17.348005 1.000000 -28.908804
v 17.348007 1.000000 -33.672810
v 15.337168 1.000000 -38.434029
v 12.526281 1.000000 -41.611153
v 8.475028 1.000000 -42.747986
v 2.805237 1.000000 -44.152107
v -4.192553 1.000000 -44.684391
v -11.232881 1.000000 -44.555107
v -15.389460 1.000000 -44.196831
v -17.066610 1.000000 -42.823860
v -17.066629 1.000000 -36.532410
v -17.066620 1.000000 -32.461460
v -16.249863 1.000000 -25.965807
v -17.066620 1.000000 -16.560518
v -17.521141 1.000000 -13.058403
v 20.000000 1.000000 10.626131
v 17.342554 1.000000 -29.907873
v 16.137144 1.000000 -25.246885
v 15.337173 1.000000 -19.234533
v 14.537173 1.000000 -11.297268
v 14.537174 1.000000 -7.497357
v 15.337151 1.000000 -1.910022
v 16.537125 1.000000 3.977320
v 18.141649 1.000000 7.698214
v 20.000000 -1.000000 -50.000000
v -20.000000 -1.000000 -50.000000
v -20.000000 -1.000000 -9.118551
v -6.670061 -0.384503 11.116221
v 17.348007 -1.000000 -33.672810
v 15.337168 -1.000000 -38.434029
v 12.526281 -1.000000 -41.611153
v 8.475028 -0.999939 -42.747986
v 2.805237 -1.000000 -44.152107
v -4.192553 -0.999939 -44.684391
v -11.232881 -0.999939 -44.555107
v -15.389460 -0.999939 -44.196831
v -17.066610 -1.000000 -42.823860
v -17.066629 -1.000000 -36.532410
v -17.066620 -1.000000 -32.461460
v -16.249863 -1.000000 -25.965807
v -17.066620 -1.000000 -16.560518
v -17.521141 -0.999939 -13.058403
v 20.000000 -1.000000 10.626131
v 17.342554 -1.000000 -29.907873
v 16.137144 -1.000000 -25.246885
v 15.337173 -1.000000 -19.234533
v 14.537173 -1.000000 -11.297268
v 14.537174 -1.000000 -7.497357
v 15.337151 -1.000000 -1.910022
v 16.537125 -1.000000 3.977320
v 18.141649 -1.000000 7.698214
vt 0.625000 0.500000
vt 0.875000 0.500000
vt 0.875000 0.602204
vt 0.859507 0.592354
vt 0.856666 0.583599
vt 0.851562 0.560086
vt 0.856666 0.543846
vt 0.856666 0.533669
vt 0.856666 0.517940
vt 0.846184 0.514508
vt 0.820205 0.513612
vt 0.776203 0.513289
vt 0.732467 0.514620
vt 0.697031 0.518130
vt 0.671711 0.520972
vt 0.654143 0.528915
vt 0.641575 0.540818
vt 0.641609 0.550230
vt 0.649143 0.561883
vt 0.654143 0.576914
vt 0.659143 0.596757
vt 0.659143 0.606257
vt 0.654143 0.620225
vt 0.646643 0.634943
vt 0.636615 0.644246
vt 0.625000 0.651565
vt 0.625000 0.500000
vt 0.641575 0.540818
vt 0.654143 0.528915
vt 0.671711 0.520972
vt 0.697031 0.518130
vt 0.732467 0.514620
vt 0.776203 0.513289
vt 0.820205 0.513612
vt 0.846184 0.514508
vt 0.856666 0.517940
vt 0.856666 0.533669
vt 0.856666 0.543846
vt 0.851562 0.560086
vt 0.856666 0.583599
vt 0.859507 0.592354
vt 0.875000 0.602204
vt 0.875000 0.500000
vt 0.625000 0.651565
vt 0.636615 0.644246
vt 0.646643 0.634943
vt 0.654143 0.620225
vt 0.659143 0.606257
vt 0.659143 0.596757
vt 0.654143 0.576914
vt 0.649143 0.561883
vt 0.641609 0.550230
vn 0.0000 1.0000 -0.0000
vn 0.0000 -1.0000 0.0000
vn -1.0000 0.0000 0.0000
vn 0.0000 0.0000 -1.0000
vn 1.0000 0.0000 0.0000
vn -0.9802 0.0000 0.1978
vn -0.8462 0.0000 0.5328
vn -0.7490 0.0000 0.6626
vn -0.2702 0.0000 0.9628
vn -0.2553 0.0000 0.9669
vn -0.1587 0.0000 0.9873
vn -0.0288 0.0000 0.9996
vn 0.0521 0.0000 0.9986
vn 0.0859 0.0000 0.9963
vn 0.6334 0.0000 0.7738
vn 0.9980 0.0000 -0.0625
vn 0.9998 0.0000 -0.0192
vn 0.9942 0.0000 0.1076
vn 0.9410 0.0000 0.3385
vn 0.8464 0.0000 0.5325
vn -0.9919 0.0000 -0.1269
vn -0.9815 0.0000 -0.1915
vn -0.9932 0.0000 -0.1161
vn -0.9987 0.0000 -0.0502
vn -0.9975 0.0000 0.0710
vn -0.9853 0.0000 0.1708
vn -0.9541 0.0000 0.2994
vn -0.8841 0.0000 0.4674
vn -0.8443 0.0000 0.5359
usemtl Material
s 1
f 1/1/1 2/2/1 3/3/1 18/4/1 17/5/1 16/6/1 15/7/1 14/8/1 13/9/1 12/10/1 11/11/1 10/12/1 9/13/1 8/14/1 7/15/1 6/16/1 5/17/1
f 5/17/1 20/18/1 21/19/1 22/20/1 23/21/1 24/22/1 25/23/1 26/24/1 27/25/1 19/26/1 1/1/1
f 28/27/2 32/28/2 33/29/2 34/30/2 35/31/2 36/32/2 37/33/2 38/34/2 39/35/2 40/36/2 41/37/2 42/38/2 43/39/2 44/40/2 45/41/2 30/42/2 29/43/2
f 32/28/2 28/27/2 46/44/2 54/45/2 53/46/2 52/47/2 51/48/2 50/49/2 49/50/2 48/51/2 47/52/2
f 3/3/3 2/2/3 29/43/3 30/42/3
f 2/2/4 1/1/4 28/27/4 29/43/4
f 1/1/5 19/26/5 46/44/5 28/27/5
f 5/17/6 6/16/7 33/29/7 32/28/6
f 6/16/7 7/15/8 34/30/8 33/29/7
f 7/15/9 8/14/10 35/31/10 34/30/9
f 8/14/10 9/13/11 36/32/11 35/31/10
f 9/13/11 10/12/12 37/33/12 36/32/11
f 10/12/12 11/11/13 38/34/13 37/33/12
f 11/11/13 12/10/14 39/35/14 38/34/13
f 12/10/15 13/9/15 40/36/15 39/35/15
f 13/9/5 14/8/5 41/37/5 40/36/5
f 14/8/5 15/7/16 42/38/16 41/37/5
f 15/7/16 16/6/17 43/39/17 42/38/16
f 16/6/17 17/5/18 44/40/18 43/39/17
f 17/5/18 18/4/19 45/41/19 44/40/18
f 18/4/19 3/3/20 30/42/20 45/41/19
f 20/18/21 5/17/6 32/28/6 47/52/21
f 21/19/22 20/18/21 47/52/21 48/51/22
f 22/20/23 21/19/22 48/51/22 49/50/23
f 23/21/24 22/20/23 49/50/23 50/49/24
f 24/22/25 23/21/24 50/49/24 51/48/25
f 25/23/26 24/22/25 51/48/25 52/47/26
f 26/24/27 25/23/26 52/47/26 53/46/27
f 27/25/28 26/24/27 53/46/27 54/45/28
f 19/26/29 27/25/28 54/45/28 46/44/29
