# Blender v2.93.3 OBJ File: 'roofs.blend'
# www.blender.org
mtllib Roof-15.mtl
o Cube.015_Cube.032
v 20.000000 1.000000 50.000000
v -20.000000 1.000000 50.000000
v 20.000000 1.000000 8.271111
v -20.000000 1.000000 -5.590677
v -15.974667 1.000000 -6.836331
v -10.101418 1.000000 -9.012255
v -8.152420 1.000000 -9.962672
v -3.169415 1.000000 -7.496900
v 0.780802 1.000000 -4.088047
v 5.647088 1.000000 -3.318252
v 8.565513 1.000000 -6.361401
v 9.542994 1.000000 -7.969851
v 11.481592 1.000000 -7.067244
v 13.386421 1.000000 -2.956140
v 16.229740 1.000000 1.045945
v 20.000000 -1.000000 50.000000
v -20.000000 -1.000000 50.000000
v 20.000000 -1.000000 8.271111
v -20.000000 -1.000000 -5.590677
v -15.974667 -1.000000 -6.836331
v -10.101418 -1.000000 -9.012255
v -8.152420 -1.000000 -9.962672
v -3.169415 -1.000000 -7.496900
v 0.780802 -1.000000 -4.088047
v 5.647088 -1.000000 -3.318252
v 8.565513 -1.000000 -6.361401
v 9.542994 -1.000000 -7.969851
v 11.481592 -1.000000 -7.067244
v 13.386421 -1.000000 -2.956140
v 16.229740 -1.000000 1.045945
vt 0.625000 0.645678
vt 0.648564 0.627615
vt 0.666335 0.617610
vt 0.678240 0.607332
vt 0.690356 0.605075
vt 0.696466 0.609097
vt 0.714706 0.616704
vt 0.745120 0.614780
vt 0.769809 0.606258
vt 0.800953 0.600093
vt 0.813134 0.602469
vt 0.849842 0.607909
vt 0.875000 0.611023
vt 0.875000 0.750000
vt 0.625000 0.750000
vt 0.625000 0.645678
vt 0.625000 0.750000
vt 0.875000 0.750000
vt 0.875000 0.611023
vt 0.849842 0.607909
vt 0.813134 0.602469
vt 0.800953 0.600093
vt 0.769809 0.606258
vt 0.745120 0.614780
vt 0.714706 0.616704
vt 0.696466 0.609097
vt 0.690356 0.605075
vt 0.678240 0.607332
vt 0.666335 0.617610
vt 0.648564 0.627615
vn 0.0000 1.0000 0.0000
vn 0.0000 -1.0000 0.0000
vn 0.0000 0.0000 1.0000
vn 0.9712 0.0000 -0.2382
vn 1.0000 0.0000 0.0000
vn -1.0000 0.0000 0.0000
vn -0.2956 0.0000 -0.9553
vn -0.3216 0.0000 -0.9469
vn -0.3933 0.0000 -0.9194
vn -0.4383 0.0000 -0.8988
vn 0.4435 0.0000 -0.8963
vn 0.5528 0.0000 -0.8333
vn 0.6533 0.0000 -0.7571
vn 0.1562 0.0000 -0.9877
vn -0.7217 0.0000 -0.6922
vn -0.7929 0.0000 -0.6094
vn -0.8546 0.0000 -0.5193
vn 0.4221 0.0000 -0.9066
vn 0.9073 0.0000 -0.4204
vn 0.8649 0.0000 -0.5019
vn 0.8529 0.0000 -0.5221
usemtl Material
s 1
f 3/1/1 15/2/1 14/3/1 13/4/1 12/5/1 11/6/1 10/7/1 9/8/1 8/9/1 7/10/1 6/11/1 5/12/1 4/13/1 2/14/1 1/15/1
f 18/16/2 16/17/2 17/18/2 19/19/2 20/20/2 21/21/2 22/22/2 23/23/2 24/24/2 25/25/2 26/26/2 27/27/2 28/28/2 29/29/2 30/30/2
f 1/15/3 2/14/3 17/18/3 16/17/3
f 3/1/4 1/15/5 16/17/5 18/16/4
f 2/14/6 4/13/6 19/19/6 17/18/6
f 4/13/7 5/12/8 20/20/8 19/19/7
f 5/12/8 6/11/9 21/21/9 20/20/8
f 6/11/9 7/10/10 22/22/10 21/21/9
f 7/10/11 8/9/12 23/23/12 22/22/11
f 8/9/12 9/8/13 24/24/13 23/23/12
f 9/8/14 10/7/14 25/25/14 24/24/14
f 10/7/15 11/6/16 26/26/16 25/25/15
f 11/6/16 12/5/17 27/27/17 26/26/16
f 12/5/18 13/4/18 28/28/18 27/27/18
f 13/4/19 14/3/20 29/29/20 28/28/19
f 14/3/20 15/2/21 30/30/21 29/29/20
f 15/2/21 3/1/4 18/16/4 30/30/21
