# Blender v2.93.3 OBJ File: 'roofs.blend'
# www.blender.org
mtllib Roof-20.mtl
o Cube.020_Cube.037
v 20.000000 1.000000 50.000000
v -20.000000 1.000000 -50.000000
v -20.000000 1.000000 50.000000
v -1.008244 1.000000 -50.000000
v -0.023078 1.000000 -46.114601
v 0.765398 1.000000 -32.168354
v -0.023028 1.000000 -24.665457
v 2.391031 1.000000 -19.706451
v 3.986894 1.000000 -12.618977
v 3.964444 1.000000 -8.287334
v -0.050132 1.000000 -2.793565
v -0.050130 1.000000 3.607854
v 0.765443 1.000000 7.083214
v 2.342391 1.000000 11.801765
v 2.342397 1.000000 13.526585
v -0.050130 1.000000 17.076729
v 0.739219 1.000000 20.850983
v 2.342387 1.000000 25.723392
v 4.772654 1.000000 29.162445
v 6.383576 1.000000 31.017429
v 9.583582 1.000000 32.860836
v 14.318944 1.000000 34.253487
v 18.990875 1.000000 35.301514
v 20.000000 1.000000 35.321159
v 20.000000 -1.000000 50.000000
v -20.000000 -1.000000 -50.000000
v -20.000000 -1.000000 50.000000
v -1.008244 -1.000000 -50.000000
v -0.023078 -1.000000 -46.114601
v 0.765398 -1.000000 -32.168354
v -0.023028 -1.000000 -24.665457
v 2.391031 -1.000000 -19.706451
v 3.986894 -1.000000 -12.618977
v 3.964444 -1.000000 -8.287334
v -0.050132 -1.000000 -2.793565
v -0.050130 -1.000000 3.607854
v 0.765443 -1.000000 7.083214
v 2.342391 -1.000000 11.801765
v 2.342397 -0.999939 13.526585
v -0.050130 -1.000000 17.076729
v 0.739219 -1.000000 20.850983
v 2.342387 -1.000000 25.723392
v 4.772654 -1.000000 29.162445
v 6.383576 -1.000000 31.017429
v 9.583582 -0.999939 32.860836
v 14.318944 -1.000000 34.253487
v 18.990875 -1.000000 35.301514
v 20.000000 -0.999939 35.321159
vt 0.625000 0.750000
vt 0.631307 0.713254
vt 0.660507 0.710634
vt 0.690103 0.707152
vt 0.710103 0.702544
vt 0.720171 0.697906
vt 0.735360 0.689309
vt 0.745380 0.677127
vt 0.750313 0.667692
vt 0.735360 0.658816
vt 0.735360 0.654504
vt 0.745216 0.642708
vt 0.750313 0.634020
vt 0.750313 0.618016
vt 0.725222 0.604282
vt 0.725082 0.593453
vt 0.735056 0.575734
vt 0.750144 0.563336
vt 0.745216 0.544579
vt 0.750144 0.509714
vt 0.756302 0.500000
vt 0.875000 0.500000
vt 0.875000 0.750000
vt 0.625000 0.713303
vt 0.625000 0.750000
vt 0.875000 0.750000
vt 0.875000 0.500000
vt 0.756302 0.500000
vt 0.750144 0.509714
vt 0.745216 0.544579
vt 0.750144 0.563336
vt 0.735056 0.575734
vt 0.725082 0.593453
vt 0.725222 0.604282
vt 0.750313 0.618016
vt 0.750313 0.634020
vt 0.745216 0.642708
vt 0.735360 0.654504
vt 0.735360 0.658816
vt 0.750313 0.667692
vt 0.745380 0.677127
vt 0.735360 0.689309
vt 0.720171 0.697906
vt 0.710103 0.702544
vt 0.690103 0.707152
vt 0.660507 0.710634
vt 0.631307 0.713254
vt 0.625000 0.713303
vn 0.0000 1.0000 0.0000
vn 0.0000 -1.0000 -0.0000
vn 0.0001 -1.0000 -0.0000
vn 0.0000 0.0000 1.0000
vn 1.0000 0.0000 0.0000
vn -1.0000 0.0000 0.0000
vn 0.0000 0.0000 -1.0000
vn 0.9693 0.0000 -0.2458
vn 0.9884 0.0000 -0.1518
vn 0.9997 0.0000 0.0241
vn 0.9945 0.0000 0.1045
vn 0.8991 0.0000 -0.4377
vn 0.9437 0.0000 -0.3309
vn 0.9942 0.0000 -0.1079
vn 1.0000 0.0000 0.0052
vn 0.8074 0.0000 0.5900
vn 0.9934 0.0000 -0.1150
vn 0.9620 0.0000 -0.2730
vn 0.9870 0.0000 -0.1606
vn 0.8293 0.0000 0.5589
vn 0.9788 0.0000 -0.2047
vn 0.9659 0.0000 -0.2590
vn 0.8931 0.0000 -0.4498
vn 0.7868 0.0000 -0.6172
vn 0.6359 0.0000 -0.7718
vn 0.3934 0.0000 -0.9194
vn 0.2506 0.0000 -0.9681
vn 0.1198 0.0000 -0.9928
vn 0.0195 0.0000 -0.9998
usemtl Material
s 1
f 1/1/1 23/2/1 22/3/1 21/4/1 20/5/1 19/6/1 18/7/1 17/8/1 16/9/1 15/10/1 14/11/1 13/12/1 12/13/1 11/14/1 10/15/1 9/16/1 8/17/1 7/18/1 6/19/1 5/20/1 4/21/1 2/22/1 3/23/1
f 24/24/1 23/2/1 1/1/1
f 25/25/2 27/26/2 26/27/2 28/28/2 29/29/2 30/30/2 31/31/2 32/32/2 33/33/2 34/34/2 35/35/2 36/36/2 37/37/2 38/38/2 39/39/2 40/40/2 41/41/2 42/42/2 43/43/2 44/44/2 45/45/2 46/46/2 47/47/2
f 48/48/3 25/25/2 47/47/2
f 1/1/4 3/23/4 27/26/4 25/25/4
f 24/24/5 1/1/5 25/25/5 48/48/5
f 3/23/6 2/22/6 26/27/6 27/26/6
f 2/22/7 4/21/7 28/28/7 26/27/7
f 4/21/8 5/20/9 29/29/9 28/28/8
f 5/20/9 6/19/10 30/30/10 29/29/9
f 6/19/10 7/18/11 31/31/11 30/30/10
f 7/18/12 8/17/13 32/32/13 31/31/12
f 8/17/13 9/16/14 33/33/14 32/32/13
f 9/16/14 10/15/15 34/34/15 33/33/14
f 10/15/16 11/14/16 35/35/16 34/34/16
f 11/14/5 12/13/17 36/36/17 35/35/5
f 12/13/17 13/12/18 37/37/18 36/36/17
f 13/12/18 14/11/19 38/38/19 37/37/18
f 14/11/19 15/10/5 39/39/5 38/38/19
f 15/10/20 16/9/20 40/40/20 39/39/20
f 16/9/21 17/8/22 41/41/22 40/40/21
f 17/8/22 18/7/23 42/42/23 41/41/22
f 18/7/23 19/6/24 43/43/24 42/42/23
f 19/6/24 20/5/25 44/44/25 43/43/24
f 20/5/25 21/4/26 45/45/26 44/44/25
f 21/4/26 22/3/27 46/46/27 45/45/26
f 22/3/27 23/2/28 47/47/28 46/46/27
f 23/2/28 24/24/29 48/48/29 47/47/28
