# Blender v2.93.3 OBJ File: 'roofs.blend'
# www.blender.org
mtllib Roof-5.mtl
o Cube.005_Cube.022
v 20.000000 1.000000 -50.000000
v 20.000000 1.000000 50.000000
v -20.000000 1.000000 -50.000000
v -20.000000 1.000000 50.000000
v -20.000000 1.000000 -15.125340
v 20.000000 1.000000 -27.459604
v -18.754725 1.000000 -16.257010
v -15.053846 1.000000 -20.647234
v -14.124544 1.000000 -22.527487
v -11.305270 1.000000 -26.865828
v -10.342514 1.000000 -26.107824
v -8.471846 1.000000 -24.651237
v -6.614563 1.000000 -26.981104
v -4.194378 1.000000 -29.978483
v -1.423573 1.000000 -30.002106
v 1.297130 1.000000 -27.705288
v 2.787376 1.000000 -27.329302
v 3.960543 1.000000 -29.872757
v 6.047020 1.000000 -29.914749
v 8.522131 1.000000 -28.247934
v 10.267704 1.000000 -27.249319
v 13.703103 1.000000 -26.224581
v 16.392258 1.000000 -27.191055
v 20.000000 1.000000 31.512123
v -20.000000 1.000000 29.271412
v -17.575350 1.000000 29.001570
v -13.464022 1.000000 28.850508
v -9.989641 1.000000 27.383226
v -6.892882 1.000000 26.583406
v -0.633274 1.000000 24.835629
v 2.491984 1.000000 26.232586
v 5.466661 1.000000 27.803560
v 8.956203 1.000000 28.414648
v 12.553246 1.000000 29.565107
v 15.956457 1.000000 30.492132
v 20.000000 -1.000000 -50.000000
v 20.000000 -1.000000 50.000000
v -20.000000 -1.000000 -50.000000
v -20.000000 -1.000000 50.000000
v -20.000000 -0.999939 -15.125340
v 20.000000 -1.000000 -27.459604
v -18.754725 -1.000000 -16.257010
v -15.053846 -0.999939 -20.647234
v -14.124544 -1.000000 -22.527487
v -11.305270 -1.000000 -26.865828
v -10.342514 -1.000000 -26.107824
v -8.471846 -1.000000 -24.651237
v -6.614563 -1.000000 -26.981104
v -4.194378 -1.000000 -29.978483
v -1.423573 -1.000000 -30.002106
v 1.297130 -1.000000 -27.705288
v 2.787376 -1.000000 -27.329302
v 3.960543 -1.000000 -29.872757
v 6.047020 -1.000000 -29.914749
v 8.522131 -1.000000 -28.247934
v 10.267704 -1.000000 -27.249319
v 13.703103 -1.000000 -26.224581
v 16.392258 -1.000000 -27.191055
v 20.000000 -0.999939 31.512123
v -20.000000 -1.000000 29.271412
v -17.575350 -1.000000 29.001570
v -13.464022 -1.000000 28.850508
v -9.989641 -1.000000 27.383226
v -6.892882 -0.999939 26.583406
v -0.633274 -1.000000 24.835629
v 2.491984 -1.000000 26.232586
v 5.466661 -0.999939 27.803560
v 8.956203 -1.000000 28.414648
v 12.553246 -1.000000 29.565107
v 15.956457 -1.000000 30.492132
vt 0.625000 0.500000
vt 0.875000 0.500000
vt 0.875000 0.587187
vt 0.867217 0.584358
vt 0.844087 0.573382
vt 0.838279 0.568681
vt 0.820658 0.557835
vt 0.814641 0.559730
vt 0.802949 0.563372
vt 0.791341 0.557547
vt 0.776215 0.550054
vt 0.758897 0.549995
vt 0.741893 0.555737
vt 0.732579 0.556677
vt 0.725247 0.550318
vt 0.712206 0.550213
vt 0.696737 0.554380
vt 0.685827 0.556877
vt 0.664356 0.559439
vt 0.647548 0.557022
vt 0.625000 0.556351
vt 0.625000 0.703780
vt 0.650272 0.701230
vt 0.671542 0.698913
vt 0.694024 0.696037
vt 0.715833 0.694509
vt 0.734425 0.690581
vt 0.753958 0.687089
vt 0.793080 0.691458
vt 0.812435 0.693458
vt 0.834150 0.697126
vt 0.859846 0.697504
vt 0.875000 0.698179
vt 0.875000 0.750000
vt 0.625000 0.750000
vt 0.625000 0.500000
vt 0.625000 0.556351
vt 0.647548 0.557022
vt 0.664356 0.559439
vt 0.685827 0.556877
vt 0.696737 0.554380
vt 0.712206 0.550213
vt 0.725247 0.550318
vt 0.732579 0.556677
vt 0.741893 0.555737
vt 0.758897 0.549995
vt 0.776215 0.550054
vt 0.791341 0.557547
vt 0.802949 0.563372
vt 0.814641 0.559730
vt 0.820658 0.557835
vt 0.838279 0.568681
vt 0.844087 0.573382
vt 0.867217 0.584358
vt 0.875000 0.587187
vt 0.875000 0.500000
vt 0.625000 0.703780
vt 0.625000 0.750000
vt 0.875000 0.750000
vt 0.875000 0.698179
vt 0.859846 0.697504
vt 0.834150 0.697126
vt 0.812435 0.693458
vt 0.793080 0.691458
vt 0.753958 0.687089
vt 0.734425 0.690581
vt 0.715833 0.694509
vt 0.694024 0.696037
vt 0.671542 0.698913
vt 0.650272 0.701230
vn 0.0000 1.0000 -0.0000
vn -0.0000 -1.0000 0.0000
vn 0.0000 0.0000 1.0000
vn 1.0000 0.0000 0.0000
vn -1.0000 0.0000 0.0000
vn 0.0000 0.0000 -1.0000
vn 0.7201 0.0000 0.6938
vn 0.6725 0.0000 0.7401
vn 0.8366 0.0000 0.5478
vn 0.8690 0.0000 0.4948
vn 0.8385 0.0000 0.5449
vn -0.6165 0.0000 0.7874
vn -0.6186 0.0000 0.7857
vn -0.6144 0.0000 0.7890
vn 0.7800 0.0000 0.6258
vn 0.7819 0.0000 0.6233
vn 0.7780 0.0000 0.6282
vn 0.0085 0.0000 1.0000
vn -0.4566 0.0000 0.8897
vn -0.6451 0.0000 0.7641
vn -0.2446 0.0000 0.9696
vn 0.9081 0.0000 0.4188
vn 0.0201 0.0000 0.9998
vn -0.5279 0.0000 0.8493
vn -0.5586 0.0000 0.8295
vn -0.3938 0.0000 0.9192
vn -0.2858 0.0000 0.9583
vn 0.2081 0.0000 0.9781
vn 0.3382 0.0000 0.9411
vn 0.0742 0.0000 0.9972
vn -0.1106 0.0000 -0.9939
vn -0.0737 0.0000 -0.9973
vn -0.2164 0.0000 -0.9763
vn -0.3204 0.0000 -0.9473
vn -0.2595 0.0000 -0.9657
vn -0.2689 0.0000 -0.9632
vn 0.4081 0.0000 -0.9129
vn 0.4378 0.0000 -0.8991
vn 0.3237 0.0000 -0.9462
vn 0.2391 0.0000 -0.9710
vn 0.2838 0.0000 -0.9589
vn 0.2537 0.0000 -0.9673
vn 0.2446 0.0000 -0.9696
usemtl Material
s 1
f 1/1/1 3/2/1 5/3/1 7/4/1 8/5/1 9/6/1 10/7/1 11/8/1 12/9/1 13/10/1 14/11/1 15/12/1 16/13/1 17/14/1 18/15/1 19/16/1 20/17/1 21/18/1 22/19/1 23/20/1 6/21/1
f 24/22/1 35/23/1 34/24/1 33/25/1 32/26/1 31/27/1 30/28/1 29/29/1 28/30/1 27/31/1 26/32/1 25/33/1 4/34/1 2/35/1
f 36/36/2 41/37/2 58/38/2 57/39/2 56/40/2 55/41/2 54/42/2 53/43/2 52/44/2 51/45/2 50/46/2 49/47/2 48/48/2 47/49/2 46/50/2 45/51/2 44/52/2 43/53/2 42/54/2 40/55/2 38/56/2
f 59/57/2 37/58/2 39/59/2 60/60/2 61/61/2 62/62/2 63/63/2 64/64/2 65/65/2 66/66/2 67/67/2 68/68/2 69/69/2 70/70/2
f 2/35/3 4/34/3 39/59/3 37/58/3
f 24/22/4 2/35/4 37/58/4 59/57/4
f 5/3/5 3/2/5 38/56/5 40/55/5
f 3/2/6 1/1/6 36/36/6 38/56/6
f 1/1/4 6/21/4 41/37/4 36/36/4
f 7/4/7 5/3/8 40/55/8 42/54/7
f 8/5/9 7/4/7 42/54/7 43/53/9
f 9/6/10 8/5/9 43/53/9 44/52/10
f 10/7/11 9/6/10 44/52/10 45/51/11
f 11/8/12 10/7/13 45/51/13 46/50/12
f 12/9/14 11/8/12 46/50/12 47/49/14
f 13/10/15 12/9/16 47/49/16 48/48/15
f 14/11/17 13/10/15 48/48/15 49/47/17
f 15/12/18 14/11/18 49/47/18 50/46/18
f 16/13/19 15/12/20 50/46/20 51/45/19
f 17/14/21 16/13/19 51/45/19 52/44/21
f 18/15/22 17/14/22 52/44/22 53/43/22
f 19/16/23 18/15/23 53/43/23 54/42/23
f 20/17/24 19/16/25 54/42/25 55/41/24
f 21/18/26 20/17/24 55/41/24 56/40/26
f 22/19/27 21/18/26 56/40/26 57/39/27
f 23/20/28 22/19/29 57/39/29 58/38/28
f 6/21/30 23/20/28 58/38/28 41/37/30
f 4/34/5 25/33/5 60/60/5 39/59/5
f 25/33/31 26/32/32 61/61/32 60/60/31
f 26/32/32 27/31/33 62/62/33 61/61/32
f 27/31/33 28/30/34 63/63/34 62/62/33
f 28/30/34 29/29/35 64/64/35 63/63/34
f 29/29/35 30/28/36 65/65/36 64/64/35
f 30/28/37 31/27/38 66/66/38 65/65/37
f 31/27/38 32/26/39 67/67/39 66/66/38
f 32/26/39 33/25/40 68/68/40 67/67/39
f 33/25/40 34/24/41 69/69/41 68/68/40
f 34/24/41 35/23/42 70/70/42 69/69/41
f 35/23/42 24/22/43 59/57/43 70/70/42
