# Blender v2.93.3 OBJ File: 'roofs.blend'
# www.blender.org
mtllib Roof-9.mtl
o Cube.009_Cube.026
v 20.000000 1.000000 -50.000000
v 20.000000 1.000000 50.000000
v -20.000000 1.000000 -50.000000
v -20.000000 1.000000 50.000000
v -13.518379 1.000000 33.831005
v -13.518370 1.000000 37.620316
v -12.209287 1.000000 41.512379
v -10.691190 1.000000 41.937847
v -7.824075 1.000000 41.738121
v -4.697468 1.000000 41.030594
v -0.120811 1.000000 41.260292
v 4.504438 1.000000 42.162952
v 7.115228 1.000000 41.733467
v 7.513896 1.000000 40.086170
v 6.012750 1.000000 37.343933
v 9.008025 1.000000 33.458218
v 7.466277 1.000000 28.086603
v 7.067118 1.000000 22.297052
v 8.519424 1.000000 19.200790
v 10.057398 1.000000 14.721764
v 10.407207 1.000000 9.605864
v 9.221530 1.000000 3.886458
v 8.121491 1.000000 -1.250747
v 8.472959 1.000000 -3.754874
v 9.968296 1.000000 -7.753007
v 10.669580 1.000000 -11.215477
v 9.527346 1.000000 -17.395899
v 7.274746 1.000000 -23.436932
v 8.027373 1.000000 -26.445993
v 9.878805 1.000000 -30.268114
v 9.482020 1.000000 -34.396179
v 9.436556 1.000000 -37.741367
v 1.489266 1.000000 -40.038185
v -2.796659 1.000000 -41.415977
v -7.145210 1.000000 -42.949520
v -9.161807 1.000000 -42.612896
v -11.121026 1.000000 -41.492424
v -12.725025 1.000000 -39.112358
v -13.895230 1.000000 -33.317749
v -14.336899 1.000000 -28.331762
v -13.819508 1.000000 -23.812393
v -14.260527 1.000000 -19.528576
v -14.625807 1.000000 -16.789019
v -14.549170 1.000000 -10.929405
v -13.304628 1.000000 -7.146075
v -11.340102 1.000000 -2.859339
v -10.905313 1.000000 -1.063758
v -11.703149 1.000000 5.490720
v -12.866405 1.000000 8.312732
v -13.668568 1.000000 10.504776
v -14.396429 1.000000 15.827316
v -14.396430 1.000000 18.716049
v -13.593370 1.000000 23.602026
v -12.355733 1.000000 28.737713
v -12.355736 1.000000 31.910482
v 20.000000 -1.000000 -50.000000
v 20.000000 -1.000000 50.000000
v -20.000000 -1.000000 -50.000000
v -20.000000 -1.000000 50.000000
v -13.518379 -1.000000 33.831005
v -13.518370 -1.000000 37.620316
v -12.209287 -1.000000 41.512379
v -10.691190 -0.999939 41.937847
v -7.824075 -1.000000 41.738121
v -4.697468 -0.999939 41.030594
v -0.120811 -0.999939 41.260292
v 4.504438 -0.999939 42.162952
v 7.115228 -1.000000 41.733467
v 7.513896 -1.000000 40.086170
v 6.012750 -1.000000 37.343933
v 9.008025 -1.000000 33.458218
v 7.466277 -1.000000 28.086603
v 7.067118 -1.000000 22.297052
v 8.519424 -1.000000 19.200790
v 10.057398 -1.000000 14.721764
v 10.407207 -1.000000 9.605864
v 9.221530 -0.999939 3.886458
v 8.121491 -1.000000 -1.250747
v 8.472959 -1.000000 -3.754874
v 9.968296 -1.000000 -7.753007
v 10.669580 -1.000000 -11.215477
v 9.527346 -0.999939 -17.395899
v 7.274746 -0.999939 -23.436932
v 8.027373 -0.999939 -26.445993
v 9.878805 -1.000000 -30.268114
v 9.482020 -1.000000 -34.396179
v 9.436556 -1.000000 -37.741367
v 1.489266 -0.999939 -40.038185
v -2.796659 -1.000000 -41.415977
v -7.145210 -1.000000 -42.949520
v -9.161807 -0.999939 -42.612896
v -11.121026 -1.000000 -41.492424
v -12.725025 -1.000000 -39.112358
v -13.895230 -1.000000 -33.317749
v -14.336899 -1.000000 -28.331762
v -13.819508 -1.000000 -23.812393
v -14.260527 -1.000000 -19.528576
v -14.625807 -1.000000 -16.789019
v -14.549170 -1.000000 -10.929405
v -13.304628 -1.000000 -7.146075
v -11.340102 -1.000000 -2.859339
v -10.905313 -0.999939 -1.063758
v -11.703149 -1.000000 5.490720
v -12.866405 -1.000000 8.312732
v -13.668568 -0.999939 10.504776
v -14.396429 -0.999939 15.827316
v -14.396430 -1.000000 18.716049
v -13.593370 -1.000000 23.602026
v -12.355733 -1.000000 28.737713
v -12.355736 -1.000000 31.910482
vt 0.625000 0.500000
vt 0.875000 0.500000
vt 0.841411 0.583027
vt 0.839128 0.576178
vt 0.836372 0.565469
vt 0.839606 0.554171
vt 0.836845 0.541706
vt 0.829531 0.527219
vt 0.819506 0.521269
vt 0.807261 0.518468
vt 0.794658 0.517626
vt 0.767479 0.521460
vt 0.740692 0.524905
vt 0.691022 0.530647
vt 0.690737 0.539010
vt 0.688257 0.549330
vt 0.699829 0.558885
vt 0.704533 0.566408
vt 0.690454 0.581510
vt 0.683315 0.596961
vt 0.687698 0.605617
vt 0.697044 0.615613
vt 0.699241 0.621873
vt 0.692365 0.634716
vt 0.684955 0.649015
vt 0.687141 0.661804
vt 0.696754 0.673002
vt 0.705831 0.680743
vt 0.703336 0.695217
vt 0.693700 0.708646
vt 0.712420 0.718360
vt 0.703038 0.725215
vt 0.705530 0.729334
vt 0.721847 0.730407
vt 0.750755 0.728151
vt 0.779359 0.727576
vt 0.798900 0.729345
vt 0.816820 0.729845
vt 0.826308 0.728781
vt 0.834490 0.719051
vt 0.834490 0.709578
vt 0.827223 0.704776
vt 0.827223 0.696844
vt 0.834958 0.684005
vt 0.839978 0.671790
vt 0.839978 0.664568
vt 0.835429 0.651262
vt 0.830415 0.645782
vt 0.823145 0.638727
vt 0.818158 0.622341
vt 0.820876 0.617852
vt 0.833154 0.607135
vt 0.840932 0.597676
vt 0.875000 0.750000
vt 0.625000 0.750000
vt 0.625000 0.500000
vt 0.683315 0.596961
vt 0.690454 0.581510
vt 0.704533 0.566408
vt 0.699829 0.558885
vt 0.688257 0.549330
vt 0.690737 0.539010
vt 0.691022 0.530647
vt 0.740692 0.524905
vt 0.767479 0.521460
vt 0.794658 0.517626
vt 0.807261 0.518468
vt 0.819506 0.521269
vt 0.829531 0.527219
vt 0.836845 0.541706
vt 0.839606 0.554171
vt 0.836372 0.565469
vt 0.839128 0.576178
vt 0.841411 0.583027
vt 0.875000 0.500000
vt 0.687698 0.605617
vt 0.625000 0.750000
vt 0.875000 0.750000
vt 0.840932 0.597676
vt 0.833154 0.607135
vt 0.820876 0.617852
vt 0.818158 0.622341
vt 0.823145 0.638727
vt 0.830415 0.645782
vt 0.835429 0.651262
vt 0.839978 0.664568
vt 0.839978 0.671790
vt 0.834958 0.684005
vt 0.827223 0.696844
vt 0.827223 0.704776
vt 0.834490 0.709578
vt 0.834490 0.719051
vt 0.826308 0.728781
vt 0.816820 0.729845
vt 0.798900 0.729345
vt 0.779359 0.727576
vt 0.750755 0.728151
vt 0.721847 0.730407
vt 0.705530 0.729334
vt 0.703038 0.725215
vt 0.712420 0.718360
vt 0.693700 0.708646
vt 0.703336 0.695217
vt 0.705831 0.680743
vt 0.696754 0.673002
vt 0.687141 0.661804
vt 0.684955 0.649015
vt 0.692365 0.634716
vt 0.699241 0.621873
vt 0.697044 0.615613
vn 0.0000 1.0000 -0.0000
vn -0.0000 -1.0000 0.0000
vn 0.0000 0.0000 1.0000
vn 1.0000 0.0000 0.0000
vn -1.0000 0.0000 0.0000
vn 0.0000 0.0000 -1.0000
vn 0.9869 0.0000 -0.1615
vn 0.9478 0.0000 -0.3188
vn 0.2699 0.0000 -0.9629
vn 0.1017 0.0000 -0.9948
vn -0.1455 0.0000 -0.9894
vn -0.0861 0.0000 -0.9963
vn 0.1211 0.0000 -0.9926
vn 0.0148 0.0000 -0.9999
vn -0.1623 0.0000 -0.9867
vn -0.9719 0.0000 -0.2352
vn -0.8772 0.0000 0.4802
vn -0.7920 0.0000 -0.6105
vn -0.9612 0.0000 0.2759
vn -0.9849 0.0000 0.1733
vn -0.9830 0.0000 -0.1838
vn -0.9269 0.0000 -0.3753
vn -0.9802 0.0000 -0.1982
vn -0.9977 0.0000 0.0680
vn -0.9785 0.0000 0.2062
vn -0.9994 0.0000 0.0357
vn -0.9692 0.0000 -0.2461
vn -0.9614 0.0000 -0.2753
vn -1.0000 0.0000 -0.0085
vn -0.9638 0.0000 0.2666
vn -0.9370 0.0000 0.3494
vn -0.9701 0.0000 -0.2426
vn -0.9400 0.0000 -0.3411
vn -0.9000 0.0000 -0.4359
vn -0.9954 0.0000 0.0957
vn -0.9985 0.0000 0.0547
vn -0.9999 0.0000 0.0136
vn -0.2776 0.0000 0.9607
vn -0.2919 0.0000 0.9565
vn -0.3193 0.0000 0.9476
vn -0.0867 0.0000 0.9962
vn 0.3358 0.0000 0.9419
vn 0.6806 0.0000 0.7326
vn 0.9226 0.0000 0.3859
vn 0.9897 0.0000 0.1433
vn 0.9999 0.0000 -0.0128
vn 1.0000 0.0000 -0.0057
vn 0.9931 0.0000 0.1173
vn 0.9982 0.0000 0.0597
vn 0.9863 0.0000 -0.1647
vn 0.9310 0.0000 -0.3651
vn 0.9449 0.0000 -0.3275
vn 0.9983 0.0000 -0.0582
vn 0.9674 0.0000 0.2533
vn 0.9320 0.0000 0.3625
vn 0.9705 0.0000 0.2410
vn 0.9977 0.0000 0.0679
vn 0.9967 0.0000 -0.0814
vn 0.9801 0.0000 -0.1984
vn 0.9930 0.0000 -0.1180
vn 0.8555 0.0000 0.5179
usemtl Material
s 1
f 1/1/1 3/2/1 43/3/1 42/4/1 41/5/1 40/6/1 39/7/1 38/8/1 37/9/1 36/10/1 35/11/1 34/12/1 33/13/1 32/14/1 31/15/1 30/16/1 29/17/1 28/18/1 27/19/1 26/20/1
f 25/21/1 24/22/1 23/23/1 22/24/1 21/25/1 20/26/1 19/27/1 18/28/1 17/29/1 16/30/1 15/31/1 14/32/1 13/33/1 12/34/1 11/35/1 10/36/1 9/37/1 8/38/1 7/39/1 6/40/1 5/41/1 55/42/1 54/43/1 53/44/1 52/45/1 51/46/1 50/47/1 49/48/1 48/49/1 47/50/1 46/51/1 45/52/1 44/53/1 43/3/1 3/2/1 4/54/1 2/55/1 1/1/1 26/20/1
f 56/56/2 81/57/2 82/58/2 83/59/2 84/60/2 85/61/2 86/62/2 87/63/2 88/64/2 89/65/2 90/66/2 91/67/2 92/68/2 93/69/2 94/70/2 95/71/2 96/72/2 97/73/2 98/74/2 58/75/2
f 80/76/2 81/57/2 56/56/2 57/77/2 59/78/2 58/75/2 98/74/2 99/79/2 100/80/2 101/81/2 102/82/2 103/83/2 104/84/2 105/85/2 106/86/2 107/87/2 108/88/2 109/89/2 110/90/2 60/91/2 61/92/2 62/93/2 63/94/2 64/95/2 65/96/2 66/97/2 67/98/2 68/99/2 69/100/2 70/101/2 71/102/2 72/103/2 73/104/2 74/105/2 75/106/2 76/107/2 77/108/2 78/109/2 79/110/2
f 2/55/3 4/54/3 59/78/3 57/77/3
f 1/1/4 2/55/4 57/77/4 56/56/4
f 4/54/5 3/2/5 58/75/5 59/78/5
f 3/2/6 1/1/6 56/56/6 58/75/6
f 5/41/4 6/40/7 61/92/7 60/91/4
f 6/40/7 7/39/8 62/93/8 61/92/7
f 7/39/9 8/38/10 63/94/10 62/93/9
f 8/38/10 9/37/11 64/95/11 63/94/10
f 9/37/11 10/36/12 65/96/12 64/95/11
f 10/36/12 11/35/13 66/97/13 65/96/12
f 11/35/13 12/34/14 67/98/14 66/97/13
f 12/34/14 13/33/15 68/99/15 67/98/14
f 13/33/16 14/32/16 69/100/16 68/99/16
f 14/32/17 15/31/17 70/101/17 69/100/17
f 15/31/18 16/30/18 71/102/18 70/101/18
f 16/30/19 17/29/20 72/103/20 71/102/19
f 17/29/20 18/28/21 73/104/21 72/103/20
f 18/28/21 19/27/22 74/105/22 73/104/21
f 19/27/22 20/26/23 75/106/23 74/105/22
f 20/26/23 21/25/24 76/107/24 75/106/23
f 21/25/24 22/24/25 77/108/25 76/107/24
f 22/24/25 23/23/26 78/109/26 77/108/25
f 23/23/26 24/22/27 79/110/27 78/109/26
f 24/22/27 25/21/28 80/76/28 79/110/27
f 25/21/28 26/20/29 81/57/29 80/76/28
f 26/20/29 27/19/30 82/58/30 81/57/29
f 27/19/30 28/18/31 83/59/31 82/58/30
f 28/18/32 29/17/33 84/60/33 83/59/32
f 29/17/33 30/16/34 85/61/34 84/60/33
f 30/16/35 31/15/36 86/62/36 85/61/35
f 31/15/36 32/14/37 87/63/37 86/62/36
f 32/14/38 33/13/39 88/64/39 87/63/38
f 33/13/39 34/12/40 89/65/40 88/64/39
f 34/12/40 35/11/41 90/66/41 89/65/40
f 35/11/41 36/10/42 91/67/42 90/66/41
f 36/10/42 37/9/43 92/68/43 91/67/42
f 37/9/43 38/8/44 93/69/44 92/68/43
f 38/8/44 39/7/45 94/70/45 93/69/44
f 39/7/45 40/6/46 95/71/46 94/70/45
f 40/6/46 41/5/47 96/72/47 95/71/46
f 41/5/47 42/4/48 97/73/48 96/72/47
f 42/4/48 43/3/49 98/74/49 97/73/48
f 43/3/49 44/53/50 99/79/50 98/74/49
f 44/53/50 45/52/51 100/80/51 99/79/50
f 45/52/51 46/51/52 101/81/52 100/80/51
f 46/51/52 47/50/53 102/82/53 101/81/52
f 47/50/53 48/49/54 103/83/54 102/82/53
f 48/49/54 49/48/55 104/84/55 103/83/54
f 49/48/55 50/47/56 105/85/56 104/84/55
f 50/47/56 51/46/57 106/86/57 105/85/56
f 51/46/57 52/45/58 107/87/58 106/86/57
f 52/45/58 53/44/59 108/88/59 107/87/58
f 53/44/59 54/43/60 109/89/60 108/88/59
f 54/43/60 55/42/4 110/90/4 109/89/60
f 55/42/61 5/41/61 60/91/61 110/90/61
