# Blender v2.93.3 OBJ File: 'walls.blend'
# www.blender.org
mtllib wall-7.mtl
o Cube.007_Cube.013
v 1.000000 14.000000 -20.000000
v 1.000000 -14.000000 -20.000000
v 1.000000 14.000000 20.000000
v 1.000000 -14.000000 20.000000
v 1.000000 -14.000000 17.568544
v 1.000000 -14.000000 -15.637111
v 1.000000 -13.086244 -15.690603
v 1.000000 -10.126328 -15.466794
v 1.000000 -8.792571 -15.447901
v 1.000000 -7.463949 -15.253628
v 1.000000 -6.202734 -14.884531
v 1.000000 -4.656830 -13.982650
v 1.000000 -3.052129 -13.258509
v 1.000000 -1.939404 -12.893383
v 1.000000 -0.748690 -11.650778
v 1.000000 -0.110250 -10.244968
v 1.000000 0.399233 -8.326424
v 1.000000 0.408307 -7.626212
v 1.000000 -0.047749 -5.888872
v 1.000000 -1.613784 -5.023572
v 1.000000 -2.712797 -4.682281
v 1.000000 -3.534480 -4.163079
v 1.000000 -4.420693 -3.297190
v 1.000000 -5.027110 -2.251176
v 1.000000 -5.909453 -1.031957
v 1.000000 -6.448424 -0.159792
v 1.000000 -8.347925 2.283057
v 1.000000 -9.310275 2.982394
v 1.000000 -9.988420 4.206730
v 1.000000 -10.100897 5.601878
v 1.000000 -10.075189 6.995444
v 1.000000 -9.834534 8.910702
v 1.000000 -10.024639 10.131729
v 1.000000 -11.282463 13.620403
v 1.000000 -11.875603 15.539136
v 1.000000 -12.960358 16.934622
v -1.000000 14.000000 -20.000000
v -1.000000 -14.000000 -20.000000
v -1.000000 14.000000 20.000000
v -1.000000 -14.000000 20.000000
v -0.999939 -14.000000 17.568544
v -1.000000 -14.000000 -15.637111
v -1.000000 -13.086244 -15.690603
v -0.999939 -10.126328 -15.466794
v -1.000000 -8.792571 -15.447901
v -1.000000 -7.463949 -15.253628
v -1.000000 -6.202734 -14.884531
v -1.000000 -4.656830 -13.982650
v -1.000000 -3.052129 -13.258509
v -0.999939 -1.939404 -12.893383
v -1.000000 -0.748690 -11.650778
v -1.000000 -0.110250 -10.244968
v -1.000000 0.399233 -8.326424
v -0.999939 0.408307 -7.626212
v -1.000000 -0.047749 -5.888872
v -1.000000 -1.613784 -5.023572
v -1.000000 -2.712797 -4.682281
v -1.000000 -3.534480 -4.163079
v -1.000000 -4.420693 -3.297190
v -1.000000 -5.027110 -2.251176
v -1.000000 -5.909453 -1.031957
v -1.000000 -6.448424 -0.159792
v -1.000000 -8.347925 2.283057
v -1.000000 -9.310275 2.982394
v -1.000000 -9.988420 4.206730
v -1.000000 -10.100897 5.601878
v -0.999939 -10.075189 6.995444
v -0.999939 -9.834534 8.910702
v -1.000000 -10.024639 10.131729
v -1.000000 -11.282463 13.620403
v -1.000000 -11.875603 15.539136
v -0.999939 -12.960358 16.934622
vt 0.375000 0.500000
vt 0.625000 0.500000
vt 0.625000 0.750000
vt 0.375000 0.750000
vt 0.375000 0.734803
vt 0.384283 0.730841
vt 0.393968 0.722120
vt 0.399264 0.710128
vt 0.410494 0.688323
vt 0.412192 0.680692
vt 0.410043 0.668721
vt 0.409813 0.660012
vt 0.410818 0.651292
vt 0.416873 0.643640
vt 0.425465 0.639269
vt 0.442425 0.624001
vt 0.447237 0.618550
vt 0.455115 0.610930
vt 0.460530 0.604392
vt 0.468442 0.598981
vt 0.475779 0.595736
vt 0.485591 0.593603
vt 0.499574 0.588195
vt 0.503646 0.577336
vt 0.503565 0.572960
vt 0.499016 0.560969
vt 0.493315 0.552183
vt 0.482684 0.544416
vt 0.472749 0.542134
vt 0.458421 0.537608
vt 0.444618 0.531972
vt 0.433358 0.529665
vt 0.421495 0.528451
vt 0.409586 0.528333
vt 0.383159 0.526934
vt 0.375000 0.527268
vt 0.375000 0.500000
vt 0.375000 0.527268
vt 0.383159 0.526934
vt 0.409586 0.528333
vt 0.421495 0.528451
vt 0.433358 0.529665
vt 0.444618 0.531972
vt 0.458421 0.537608
vt 0.472749 0.542134
vt 0.482684 0.544416
vt 0.493315 0.552183
vt 0.499016 0.560969
vt 0.503565 0.572960
vt 0.503646 0.577336
vt 0.499574 0.588195
vt 0.485591 0.593603
vt 0.475779 0.595736
vt 0.468442 0.598981
vt 0.460530 0.604392
vt 0.455115 0.610930
vt 0.447237 0.618550
vt 0.442425 0.624001
vt 0.425465 0.639269
vt 0.416873 0.643640
vt 0.410818 0.651292
vt 0.409813 0.660012
vt 0.410043 0.668721
vt 0.412192 0.680692
vt 0.410494 0.688323
vt 0.399264 0.710128
vt 0.393968 0.722120
vt 0.384283 0.730841
vt 0.375000 0.734803
vt 0.375000 0.750000
vt 0.625000 0.750000
vt 0.625000 0.500000
vn 1.0000 -0.0000 0.0000
vn -1.0000 -0.0000 0.0000
vn 0.0000 0.0000 -1.0000
vn 0.0000 0.0000 1.0000
vn 0.0000 1.0000 0.0000
vn 0.0000 -1.0000 0.0000
vn 0.0000 0.0584 0.9983
vn 0.0000 -0.0085 1.0000
vn 0.0000 -0.0448 0.9990
vn 0.0000 -0.0796 0.9968
vn 0.0000 -0.2133 0.9770
vn 0.0000 -0.3953 0.9185
vn 0.0000 -0.4582 0.8888
vn 0.0000 -0.3621 0.9322
vn 0.0000 -0.5328 0.8462
vn 0.0000 -0.8280 0.5607
vn 0.0000 -0.9418 0.3362
vn 0.0000 -0.9907 0.1358
vn 0.0000 -0.9926 -0.1216
vn 0.0000 -0.9672 -0.2539
vn 0.0000 -0.4836 -0.8753
vn 0.0000 -0.3921 -0.9199
vn 0.0000 -0.4190 -0.9080
vn 0.0000 -0.6199 -0.7847
vn 0.0000 -0.7893 -0.6141
vn 0.0000 -0.8387 -0.5446
vn 0.0000 -0.8309 -0.5564
vn 0.0000 -0.8212 -0.5706
vn 0.0000 -0.6955 -0.7185
vn 0.0000 -0.7491 -0.6625
vn 0.0000 -0.9573 -0.2890
vn 0.0000 -0.9995 -0.0310
vn 0.0000 -0.9974 0.0717
vn 0.0000 -0.9999 -0.0147
vn 0.0000 -0.9689 -0.2476
vn 0.0000 -0.9483 -0.3173
vn 0.0000 -0.8869 -0.4620
vn 0.0000 -0.6660 -0.7460
vn 0.0000 -0.5206 -0.8538
usemtl Material
s 1
f 2/1/1 1/2/1 3/3/1 4/4/1 5/5/1 36/6/1 35/7/1 34/8/1 33/9/1 32/10/1 31/11/1 30/12/1 29/13/1 28/14/1 27/15/1 26/16/1 25/17/1 24/18/1 23/19/1 22/20/1 21/21/1 20/22/1 19/23/1 18/24/1 17/25/1 16/26/1 15/27/1 14/28/1 13/29/1 12/30/1 11/31/1 10/32/1 9/33/1 8/34/1 7/35/1 6/36/1
f 38/37/2 42/38/2 43/39/2 44/40/2 45/41/2 46/42/2 47/43/2 48/44/2 49/45/2 50/46/2 51/47/2 52/48/2 53/49/2 54/50/2 55/51/2 56/52/2 57/53/2 58/54/2 59/55/2 60/56/2 61/57/2 62/58/2 63/59/2 64/60/2 65/61/2 66/62/2 67/63/2 68/64/2 69/65/2 70/66/2 71/67/2 72/68/2 41/69/2 40/70/2 39/71/2 37/72/2
f 1/2/3 2/1/3 38/37/3 37/72/3
f 4/4/4 3/3/4 39/71/4 40/70/4
f 3/3/5 1/2/5 37/72/5 39/71/5
f 2/1/6 6/36/6 42/38/6 38/37/6
f 5/5/6 4/4/6 40/70/6 41/69/6
f 6/36/7 7/35/8 43/39/8 42/38/7
f 7/35/8 8/34/9 44/40/9 43/39/8
f 8/34/9 9/33/10 45/41/10 44/40/9
f 9/33/10 10/32/11 46/42/11 45/41/10
f 10/32/11 11/31/12 47/43/12 46/42/11
f 11/31/12 12/30/13 48/44/13 47/43/12
f 12/30/13 13/29/14 49/45/14 48/44/13
f 13/29/14 14/28/15 50/46/15 49/45/14
f 14/28/15 15/27/16 51/47/16 50/46/15
f 15/27/16 16/26/17 52/48/17 51/47/16
f 16/26/17 17/25/18 53/49/18 52/48/17
f 17/25/18 18/24/19 54/50/19 53/49/18
f 18/24/19 19/23/20 55/51/20 54/50/19
f 19/23/21 20/22/22 56/52/22 55/51/21
f 20/22/22 21/21/23 57/53/23 56/52/22
f 21/21/23 22/20/24 58/54/24 57/53/23
f 22/20/24 23/19/25 59/55/25 58/54/24
f 23/19/25 24/18/26 60/56/26 59/55/25
f 24/18/26 25/17/27 61/57/27 60/56/26
f 25/17/27 26/16/28 62/58/28 61/57/27
f 26/16/28 27/15/29 63/59/29 62/58/28
f 27/15/29 28/14/30 64/60/30 63/59/29
f 28/14/30 29/13/31 65/61/31 64/60/30
f 29/13/31 30/12/32 66/62/32 65/61/31
f 30/12/32 31/11/33 67/63/33 66/62/32
f 31/11/33 32/10/34 68/64/34 67/63/33
f 32/10/34 33/9/35 69/65/35 68/64/34
f 33/9/35 34/8/36 70/66/36 69/65/35
f 34/8/36 35/7/37 71/67/37 70/66/36
f 35/7/37 36/6/38 72/68/38 71/67/37
f 36/6/38 5/5/39 41/69/39 72/68/38
