# Blender v2.93.3 OBJ File: 'walls.blend'
# www.blender.org
mtllib wall-23.mtl
o Cube.023_Cube.029
v 1.000000 14.000000 -20.000000
v 1.000000 -14.000000 14.988370
v 1.000000 14.000000 -2.853336
v 1.000000 12.035898 -2.360965
v 1.000000 10.388151 -1.032761
v 1.000000 9.072736 0.653441
v 1.000000 8.285105 2.017732
v 1.000000 6.368713 4.738073
v 1.000000 4.566169 6.436253
v 1.000000 1.980726 6.749215
v 1.000000 0.340859 6.733197
v 1.000000 -1.834957 8.448667
v 1.000000 -2.914360 10.175373
v 1.000000 -4.758651 11.908119
v 1.000000 -7.881013 12.941160
v 1.000000 -10.408737 13.281406
v 1.000000 -11.743101 13.628366
v 1.000000 -13.067300 14.682161
v 1.000000 6.394923 -20.000000
v 1.000000 -14.000000 -16.572197
v 1.000000 5.292411 -17.392233
v 1.000000 4.489377 -16.353977
v 1.000000 2.474828 -13.990648
v 1.000000 0.168649 -12.309969
v 1.000000 -2.362135 -10.619638
v 1.000000 -5.997952 -11.412148
v 1.000000 -6.775013 -12.475960
v 1.000000 -9.367249 -15.727036
v 1.000000 -10.590878 -17.178942
v -1.000000 14.000000 -20.000000
v -1.000000 -14.000000 14.988370
v -1.000000 14.000000 -2.853336
v -1.000000 12.035898 -2.360965
v -1.000000 10.388151 -1.032761
v -1.000000 9.072736 0.653441
v -1.000000 8.285105 2.017732
v -1.000000 6.368713 4.738073
v -1.000000 4.566169 6.436253
v -1.000000 1.980726 6.749215
v -1.000000 0.340859 6.733197
v -0.999939 -1.834957 8.448667
v -1.000000 -2.914360 10.175373
v -1.000000 -4.758651 11.908119
v -1.000000 -7.881013 12.941160
v -1.000000 -10.408737 13.281406
v -1.000000 -11.743101 13.628366
v -1.000000 -13.067300 14.682161
v -1.000000 6.394923 -20.000000
v -1.000000 -14.000000 -16.572197
v -1.000000 5.292411 -17.392233
v -1.000000 4.489377 -16.353977
v -1.000000 2.474828 -13.990648
v -1.000000 0.168649 -12.309969
v -1.000000 -2.362135 -10.619638
v -1.000000 -5.997952 -11.412148
v -1.000000 -6.775013 -12.475960
v -1.000000 -9.367249 -15.727036
v -0.999939 -10.590878 -17.178942
vt 0.375000 0.521424
vt 0.405439 0.517632
vt 0.416364 0.526706
vt 0.439509 0.547025
vt 0.446447 0.553674
vt 0.478910 0.558627
vt 0.501506 0.548063
vt 0.522097 0.537558
vt 0.540084 0.522788
vt 0.547254 0.516299
vt 0.557098 0.500000
vt 0.625000 0.500000
vt 0.625000 0.607167
vt 0.607463 0.610244
vt 0.592751 0.618545
vt 0.581006 0.629084
vt 0.573974 0.637611
vt 0.556864 0.654613
vt 0.540769 0.665227
vt 0.517685 0.667183
vt 0.503043 0.667082
vt 0.483616 0.677804
vt 0.473979 0.688596
vt 0.457512 0.699426
vt 0.429634 0.705882
vt 0.407065 0.708009
vt 0.395151 0.710177
vt 0.383328 0.716764
vt 0.375000 0.718677
vt 0.375000 0.521424
vt 0.375000 0.718677
vt 0.383328 0.716764
vt 0.395151 0.710177
vt 0.407065 0.708009
vt 0.429634 0.705882
vt 0.457512 0.699426
vt 0.473979 0.688596
vt 0.483616 0.677804
vt 0.503043 0.667082
vt 0.517685 0.667183
vt 0.540769 0.665227
vt 0.556864 0.654613
vt 0.573974 0.637611
vt 0.581006 0.629084
vt 0.592751 0.618545
vt 0.607463 0.610244
vt 0.625000 0.607167
vt 0.625000 0.500000
vt 0.557098 0.500000
vt 0.547254 0.516299
vt 0.540084 0.522788
vt 0.522097 0.537558
vt 0.501506 0.548063
vt 0.478910 0.558627
vt 0.446447 0.553674
vt 0.439509 0.547025
vt 0.416364 0.526706
vt 0.405439 0.517632
vn 1.0000 0.0000 0.0000
vn -1.0000 0.0000 -0.0000
vn 0.0000 1.0000 0.0000
vn 0.0000 0.4458 0.8952
vn 0.0000 0.2432 0.9700
vn 0.0000 0.7127 0.7014
vn 0.0000 0.8292 0.5589
vn 0.0000 0.8426 0.5385
vn 0.0000 0.7554 0.6552
vn 0.0000 0.6857 0.7279
vn 0.0000 0.0553 0.9985
vn 0.0000 0.1202 0.9928
vn 0.0000 -0.0098 1.0000
vn 0.0000 0.7446 0.6676
vn 0.0000 0.6191 0.7853
vn 0.0000 0.7728 0.6347
vn 0.0000 0.5114 0.8593
vn 0.0000 0.2247 0.9744
vn 0.0000 0.1929 0.9812
vn 0.0000 0.4469 0.8946
vn 0.0000 0.4748 0.8801
vn 0.0000 0.3119 0.9501
vn 0.0000 0.0000 -1.0000
vn 0.0000 -1.0000 0.0000
vn 0.0000 -0.9211 -0.3894
vn 0.0000 -0.8632 -0.5048
vn 0.0000 -0.7762 -0.6304
vn 0.0000 -0.6797 -0.7335
vn 0.0000 -0.5723 -0.8200
vn 0.0000 -0.5554 -0.8316
vn 0.0000 0.2130 -0.9771
vn 0.0000 0.8075 -0.5898
vn 0.0000 0.7949 -0.6068
vn 0.0000 0.7733 -0.6340
vn 0.0000 0.7647 -0.6444
vn 0.0000 -0.1752 -0.9845
usemtl Material
s 1
f 20/1/1 29/2/1 28/3/1 27/4/1 26/5/1 25/6/1 24/7/1 23/8/1 22/9/1 21/10/1 19/11/1 1/12/1 3/13/1 4/14/1 5/15/1 6/16/1 7/17/1 8/18/1 9/19/1 10/20/1 11/21/1 12/22/1 13/23/1 14/24/1 15/25/1 16/26/1 17/27/1 18/28/1 2/29/1
f 49/30/2 31/31/2 47/32/2 46/33/2 45/34/2 44/35/2 43/36/2 42/37/2 41/38/2 40/39/2 39/40/2 38/41/2 37/42/2 36/43/2 35/44/2 34/45/2 33/46/2 32/47/2 30/48/2 48/49/2 50/50/2 51/51/2 52/52/2 53/53/2 54/54/2 55/55/2 56/56/2 57/57/2 58/58/2
f 3/13/3 1/12/3 30/48/3 32/47/3
f 4/14/4 3/13/5 32/47/5 33/46/4
f 5/15/6 4/14/4 33/46/4 34/45/6
f 6/16/7 5/15/6 34/45/6 35/44/7
f 7/17/8 6/16/7 35/44/7 36/43/8
f 8/18/9 7/17/8 36/43/8 37/42/9
f 9/19/10 8/18/9 37/42/9 38/41/10
f 10/20/11 9/19/12 38/41/12 39/40/11
f 11/21/13 10/20/11 39/40/11 40/39/13
f 12/22/14 11/21/15 40/39/15 41/38/14
f 13/23/16 12/22/14 41/38/14 42/37/16
f 14/24/17 13/23/16 42/37/16 43/36/17
f 15/25/18 14/24/17 43/36/17 44/35/18
f 16/26/19 15/25/18 44/35/18 45/34/19
f 17/27/20 16/26/19 45/34/19 46/33/20
f 18/28/21 17/27/20 46/33/20 47/32/21
f 2/29/22 18/28/21 47/32/21 31/31/22
f 1/12/23 19/11/23 48/49/23 30/48/23
f 20/1/24 2/29/24 31/31/24 49/30/24
f 19/11/25 21/10/26 50/50/26 48/49/25
f 21/10/26 22/9/27 51/51/27 50/50/26
f 22/9/27 23/8/28 52/52/28 51/51/27
f 23/8/28 24/7/29 53/53/29 52/52/28
f 24/7/29 25/6/30 54/54/30 53/53/29
f 25/6/31 26/5/31 55/55/31 54/54/31
f 26/5/32 27/4/33 56/56/33 55/55/32
f 27/4/33 28/3/34 57/57/34 56/56/33
f 28/3/34 29/2/35 58/58/35 57/57/34
f 29/2/36 20/1/36 49/30/36 58/58/36
