# Blender v2.93.3 OBJ File: 'walls.blend'
# www.blender.org
mtllib wall-15.mtl
o Cube.015_Cube.021
v 1.000000 -14.000000 -20.000000
v 1.000000 14.000000 20.000000
v 1.000000 -14.000000 20.000000
v 1.000000 14.000000 -0.134499
v 1.000000 10.815557 -20.000000
v 1.000000 12.861678 -0.373288
v 1.000000 10.229304 -1.550425
v 1.000000 10.056357 -2.798505
v 1.000000 10.433287 -4.568592
v 1.000000 10.061440 -5.488850
v 1.000000 7.758678 -7.731494
v 1.000000 7.066210 -9.184267
v 1.000000 8.024636 -10.418348
v 1.000000 8.421640 -11.198920
v 1.000000 7.659167 -13.758612
v 1.000000 7.681123 -15.453793
v 1.000000 8.798985 -15.951156
v 1.000000 9.352622 -16.393269
v -1.000000 -14.000000 -20.000000
v -1.000000 14.000000 20.000000
v -1.000000 -14.000000 20.000000
v -1.000000 14.000000 -0.134499
v -1.000000 10.815557 -20.000000
v -1.000000 12.861678 -0.373288
v -1.000000 10.229304 -1.550425
v -1.000000 10.056357 -2.798505
v -1.000000 10.433287 -4.568592
v -1.000000 10.061440 -5.488850
v -1.000000 7.758678 -7.731494
v -1.000000 7.066210 -9.184267
v -1.000000 8.024636 -10.418348
v -1.000000 8.421640 -11.198920
v -1.000000 7.659167 -13.758612
v -1.000000 7.681123 -15.453793
v -1.000000 8.798985 -15.951156
v -0.999939 9.352622 -16.393269
vt 0.375000 0.500000
vt 0.596568 0.500000
vt 0.583506 0.522542
vt 0.578562 0.525305
vt 0.568581 0.528414
vt 0.568385 0.539009
vt 0.575193 0.555007
vt 0.571649 0.559885
vt 0.563091 0.567598
vt 0.569274 0.576678
vt 0.589834 0.590695
vt 0.593154 0.596446
vt 0.589789 0.607509
vt 0.591333 0.615310
vt 0.614836 0.622667
vt 0.625000 0.624159
vt 0.625000 0.750000
vt 0.375000 0.750000
vt 0.375000 0.500000
vt 0.375000 0.750000
vt 0.625000 0.750000
vt 0.625000 0.624159
vt 0.614836 0.622667
vt 0.591333 0.615310
vt 0.589789 0.607509
vt 0.593154 0.596446
vt 0.589834 0.590695
vt 0.569274 0.576678
vt 0.563091 0.567598
vt 0.571649 0.559885
vt 0.575193 0.555007
vt 0.568385 0.539009
vt 0.568581 0.528414
vt 0.578562 0.525305
vt 0.583506 0.522542
vt 0.596568 0.500000
vn 1.0000 0.0000 0.0000
vn -1.0000 0.0000 0.0000
vn 0.0000 0.0000 -1.0000
vn 0.0000 0.0000 1.0000
vn 0.0000 1.0000 0.0000
vn 0.0000 -1.0000 0.0000
vn 0.0000 0.2053 -0.9787
vn 0.0000 0.3085 -0.9512
vn 0.0000 0.4082 -0.9129
vn 0.0000 0.9905 -0.1373
vn 0.0000 0.9994 0.0361
vn 0.0000 0.9781 0.2083
vn 0.0000 0.9272 -0.3746
vn 0.0000 0.8302 -0.5575
vn 0.0000 0.8129 -0.5824
vn 0.0000 0.9027 -0.4303
vn 0.0000 0.7898 0.6134
vn 0.0000 0.8444 0.5358
vn 0.0000 0.8913 0.4533
vn 0.0000 0.9584 -0.2855
vn 0.0000 0.9905 -0.1378
vn 0.0000 0.9999 0.0130
vn 0.0000 0.4065 0.9136
vn 0.0000 0.5195 0.8545
vn 0.0000 0.8014 0.5981
vn 0.0000 0.9267 0.3759
usemtl Material
s 1
f 1/1/1 5/2/1 18/3/1 17/4/1 16/5/1 15/6/1 14/7/1 13/8/1 12/9/1 11/10/1 10/11/1 9/12/1 8/13/1 7/14/1 6/15/1 4/16/1 2/17/1 3/18/1
f 19/19/2 21/20/2 20/21/2 22/22/2 24/23/2 25/24/2 26/25/2 27/26/2 28/27/2 29/28/2 30/29/2 31/30/2 32/31/2 33/32/2 34/33/2 35/34/2 36/35/2 23/36/2
f 5/2/3 1/1/3 19/19/3 23/36/3
f 3/18/4 2/17/4 20/21/4 21/20/4
f 2/17/5 4/16/5 22/22/5 20/21/5
f 1/1/6 3/18/6 21/20/6 19/19/6
f 4/16/7 6/15/8 24/23/8 22/22/7
f 6/15/8 7/14/9 25/24/9 24/23/8
f 7/14/10 8/13/11 26/25/11 25/24/10
f 8/13/11 9/12/12 27/26/12 26/25/11
f 9/12/13 10/11/14 28/27/14 27/26/13
f 10/11/14 11/10/15 29/28/15 28/27/14
f 11/10/15 12/9/16 30/29/16 29/28/15
f 12/9/17 13/8/18 31/30/18 30/29/17
f 13/8/18 14/7/19 32/31/19 31/30/18
f 14/7/20 15/6/21 33/32/21 32/31/20
f 15/6/21 16/5/22 34/33/22 33/32/21
f 16/5/23 17/4/24 35/34/24 34/33/23
f 17/4/24 18/3/25 36/35/25 35/34/24
f 18/3/25 5/2/26 23/36/26 36/35/25
