# Blender v2.93.3 OBJ File: 'walls.blend'
# www.blender.org
mtllib wall-21.mtl
o Cube.021_Cube.027
v 1.000000 14.000000 -20.000000
v 1.000000 -14.000000 -20.000000
v 1.000000 14.000000 20.000000
v 1.000000 -14.000000 20.000000
v 1.000000 -14.000000 -7.949142
v 1.000000 14.000000 -9.116802
v 1.000000 -10.162672 -7.877641
v 1.000000 -8.814401 -8.584341
v 1.000000 -7.542427 -9.641376
v 1.000000 -5.693192 -10.334213
v 1.000000 -3.835871 -9.250593
v 1.000000 -2.058969 -8.879628
v 1.000000 -0.093940 -9.212116
v 1.000000 1.907892 -10.608186
v 1.000000 3.718163 -10.583030
v 1.000000 6.171638 -8.453045
v 1.000000 7.143242 -7.746336
v 1.000000 9.680098 -7.726128
v 1.000000 11.107820 -8.411655
v 1.000000 -14.000000 9.979017
v 1.000000 14.000000 11.530304
v 1.000000 13.198718 11.677605
v 1.000000 12.108975 10.668693
v 1.000000 11.219000 9.982454
v 1.000000 9.382884 10.015783
v 1.000000 7.127831 10.397925
v 1.000000 5.894493 10.760741
v 1.000000 4.148242 9.046576
v 1.000000 1.989636 8.732550
v 1.000000 0.117353 9.454289
v 1.000000 -1.408969 10.178410
v 1.000000 -3.676259 9.512592
v 1.000000 -5.302845 9.177896
v 1.000000 -7.640581 9.564919
v 1.000000 -8.419971 10.289354
v 1.000000 -9.849919 10.310403
v 1.000000 -10.923931 10.324409
v 1.000000 -13.087554 10.359759
v -1.000000 14.000000 -20.000000
v -1.000000 -14.000000 -20.000000
v -1.000000 14.000000 20.000000
v -1.000000 -14.000000 20.000000
v -0.999939 -14.000000 -7.949142
v -1.000000 14.000000 -9.116802
v -1.000000 -10.162672 -7.877641
v -0.999939 -8.814401 -8.584341
v -1.000000 -7.542427 -9.641376
v -1.000000 -5.693192 -10.334213
v -1.000000 -3.835871 -9.250593
v -1.000000 -2.058969 -8.879628
v -1.000000 -0.093940 -9.212116
v -1.000000 1.907892 -10.608186
v -1.000000 3.718163 -10.583030
v -1.000000 6.171638 -8.453045
v -1.000000 7.143242 -7.746336
v -1.000000 9.680098 -7.726128
v -0.999939 11.107820 -8.411655
v -1.000000 -14.000000 9.979017
v -0.999939 14.000000 11.530304
v -0.999939 13.198718 11.677605
v -1.000000 12.108975 10.668693
v -1.000000 11.219000 9.982454
v -1.000000 9.382884 10.015783
v -1.000000 7.127831 10.397925
v -1.000000 5.894493 10.760741
v -1.000000 4.148242 9.046576
v -1.000000 1.989636 8.732550
v -1.000000 0.117353 9.454289
v -1.000000 -1.408969 10.178410
v -1.000000 -3.676259 9.512592
v -1.000000 -5.302845 9.177896
v -1.000000 -7.640581 9.564919
v -0.999939 -8.419971 10.289354
v -1.000000 -9.849919 10.310403
v -1.000000 -10.923931 10.324409
v -1.000000 -13.087554 10.359759
vt 0.375000 0.500000
vt 0.625000 0.500000
vt 0.625000 0.568020
vt 0.599177 0.572427
vt 0.586429 0.576712
vt 0.563779 0.576585
vt 0.555104 0.572168
vt 0.533198 0.558856
vt 0.517035 0.558699
vt 0.499161 0.567424
vt 0.481616 0.569502
vt 0.465751 0.567184
vt 0.449168 0.560411
vt 0.432657 0.564741
vt 0.421300 0.571348
vt 0.409262 0.575765
vt 0.375000 0.575318
vt 0.375000 0.687369
vt 0.383147 0.689748
vt 0.402465 0.689528
vt 0.412054 0.689440
vt 0.424822 0.689309
vt 0.431781 0.684781
vt 0.452653 0.682362
vt 0.467176 0.684454
vt 0.487420 0.688615
vt 0.501048 0.684089
vt 0.517765 0.679578
vt 0.537038 0.681541
vt 0.552629 0.692255
vt 0.563641 0.689987
vt 0.583776 0.687599
vt 0.600170 0.687390
vt 0.608116 0.691679
vt 0.617846 0.697985
vt 0.625000 0.697064
vt 0.625000 0.750000
vt 0.375000 0.750000
vt 0.375000 0.500000
vt 0.375000 0.575318
vt 0.409262 0.575765
vt 0.421300 0.571348
vt 0.432657 0.564741
vt 0.449168 0.560411
vt 0.465751 0.567184
vt 0.481616 0.569502
vt 0.499161 0.567424
vt 0.517035 0.558699
vt 0.533198 0.558856
vt 0.555104 0.572168
vt 0.563779 0.576585
vt 0.586429 0.576712
vt 0.599177 0.572427
vt 0.625000 0.568020
vt 0.625000 0.500000
vt 0.375000 0.687369
vt 0.375000 0.750000
vt 0.625000 0.750000
vt 0.625000 0.697064
vt 0.617846 0.697985
vt 0.608116 0.691679
vt 0.600170 0.687390
vt 0.583776 0.687599
vt 0.563641 0.689987
vt 0.552629 0.692255
vt 0.537038 0.681541
vt 0.517765 0.679578
vt 0.501048 0.684089
vt 0.487420 0.688615
vt 0.467176 0.684454
vt 0.452653 0.682362
vt 0.431781 0.684781
vt 0.424822 0.689309
vt 0.412054 0.689440
vt 0.402465 0.689528
vt 0.383147 0.689748
vn 1.0000 0.0000 0.0000
vn -1.0000 -0.0000 0.0000
vn 0.0000 0.0000 -1.0000
vn 0.0000 0.0000 1.0000
vn 0.0000 1.0000 0.0000
vn 0.0000 -1.0000 0.0000
vn 0.0000 -0.0186 0.9998
vn 0.0000 0.2300 0.9732
vn 0.0000 0.5548 0.8320
vn 0.0000 0.5020 0.8649
vn 0.0000 0.3508 0.9364
vn 0.0000 -0.5039 0.8637
vn 0.0000 -0.3588 0.9334
vn 0.0000 -0.0191 0.9998
vn 0.0000 0.3786 0.9256
vn 0.0000 0.5720 0.8202
vn 0.0000 -0.0139 0.9999
vn 0.0000 -0.6556 0.7551
vn 0.0000 -0.6225 0.7826
vn 0.0000 -0.5882 0.8087
vn 0.0000 -0.0080 1.0000
vn 0.0000 0.2181 0.9759
vn 0.0000 0.3367 0.9416
vn 0.0000 0.2369 0.9715
vn 0.0000 -0.1808 -0.9835
vn 0.0000 0.6794 -0.7338
vn 0.0000 0.6457 -0.7636
vn 0.0000 0.6106 -0.7919
vn 0.0000 -0.0181 -0.9998
vn 0.0000 -0.0929 -0.9957
vn 0.0000 -0.2250 -0.9743
vn 0.0000 -0.2822 -0.9594
vn 0.0000 0.7005 -0.7136
vn 0.0000 0.1440 -0.9896
vn 0.0000 -0.1115 -0.9938
vn 0.0000 -0.3944 -0.9189
vn 0.0000 -0.4286 -0.9035
vn 0.0000 0.2818 -0.9595
vn 0.0000 0.2419 -0.9703
vn 0.0000 0.0194 -0.9998
vn 0.0000 -0.1633 -0.9866
vn 0.0000 -0.6808 -0.7325
vn 0.0000 -0.0147 -0.9999
vn 0.0000 -0.0139 -0.9999
vn 0.0000 0.1884 -0.9821
vn 0.0000 0.3851 -0.9229
usemtl Material
s 1
f 2/1/1 1/2/1 6/3/1 19/4/1 18/5/1 17/6/1 16/7/1 15/8/1 14/9/1 13/10/1 12/11/1 11/12/1 10/13/1 9/14/1 8/15/1 7/16/1 5/17/1
f 20/18/1 38/19/1 37/20/1 36/21/1 35/22/1 34/23/1 33/24/1 32/25/1 31/26/1 30/27/1 29/28/1 28/29/1 27/30/1 26/31/1 25/32/1 24/33/1 23/34/1 22/35/1 21/36/1 3/37/1 4/38/1
f 40/39/2 43/40/2 45/41/2 46/42/2 47/43/2 48/44/2 49/45/2 50/46/2 51/47/2 52/48/2 53/49/2 54/50/2 55/51/2 56/52/2 57/53/2 44/54/2 39/55/2
f 58/56/2 42/57/2 41/58/2 59/59/2 60/60/2 61/61/2 62/62/2 63/63/2 64/64/2 65/65/2 66/66/2 67/67/2 68/68/2 69/69/2 70/70/2 71/71/2 72/72/2 73/73/2 74/74/2 75/75/2 76/76/2
f 1/2/3 2/1/3 40/39/3 39/55/3
f 4/38/4 3/37/4 41/58/4 42/57/4
f 3/37/5 21/36/5 59/59/5 41/58/5
f 2/1/6 5/17/6 43/40/6 40/39/6
f 6/3/5 1/2/5 39/55/5 44/54/5
f 5/17/7 7/16/8 45/41/8 43/40/7
f 7/16/8 8/15/9 46/42/9 45/41/8
f 8/15/9 9/14/10 47/43/10 46/42/9
f 9/14/10 10/13/11 48/44/11 47/43/10
f 10/13/12 11/12/13 49/45/13 48/44/12
f 11/12/13 12/11/14 50/46/14 49/45/13
f 12/11/14 13/10/15 51/47/15 50/46/14
f 13/10/15 14/9/16 52/48/16 51/47/15
f 14/9/17 15/8/17 53/49/17 52/48/17
f 15/8/18 16/7/19 54/50/19 53/49/18
f 16/7/19 17/6/20 55/51/20 54/50/19
f 17/6/21 18/5/22 56/52/22 55/51/21
f 18/5/22 19/4/23 57/53/23 56/52/22
f 19/4/23 6/3/24 44/54/24 57/53/23
f 20/18/6 4/38/6 42/57/6 58/56/6
f 21/36/25 22/35/25 60/60/25 59/59/25
f 22/35/26 23/34/27 61/61/27 60/60/26
f 23/34/27 24/33/28 62/62/28 61/61/27
f 24/33/29 25/32/30 63/63/30 62/62/29
f 25/32/30 26/31/31 64/64/31 63/63/30
f 26/31/31 27/30/32 65/65/32 64/64/31
f 27/30/33 28/29/33 66/66/33 65/65/33
f 28/29/34 29/28/35 67/67/35 66/66/34
f 29/28/35 30/27/36 68/68/36 67/67/35
f 30/27/36 31/26/37 69/69/37 68/68/36
f 31/26/38 32/25/39 70/70/39 69/69/38
f 32/25/39 33/24/40 71/71/40 70/70/39
f 33/24/40 34/23/41 72/72/41 71/71/40
f 34/23/42 35/22/42 73/73/42 72/72/42
f 35/22/43 36/21/44 74/74/44 73/73/43
f 36/21/44 37/20/43 75/75/43 74/74/44
f 37/20/43 38/19/45 76/76/45 75/75/43
f 38/19/45 20/18/46 58/56/46 76/76/45
