# Blender v2.93.3 OBJ File: 'walls.blend'
# www.blender.org
mtllib wall-9.mtl
o Cube.009_Cube.015
v 1.000000 14.000000 -20.000000
v 1.000000 -14.000000 -20.000000
v 1.000000 14.000000 20.000000
v 1.000000 -14.000000 20.000000
v 1.000000 -14.000000 3.053488
v 1.000000 -14.000000 -17.054941
v 1.000000 -11.879751 -14.582434
v 1.000000 -11.343853 -12.968456
v 1.000000 -11.246568 -11.025538
v 1.000000 -10.995784 -6.992842
v 1.000000 -11.342345 -4.411942
v 1.000000 -12.072005 -1.831043
v 1.000000 -12.679431 0.265960
v 1.000000 11.329941 -10.970802
v 1.000000 10.932505 -7.600763
v 1.000000 9.443069 -4.872663
v 1.000000 7.412449 -5.035776
v 1.000000 5.597908 -7.287727
v 1.000000 4.327598 -7.291678
v 1.000000 2.955308 -5.687170
v 1.000000 0.847981 -5.687169
v 1.000000 0.065112 -7.138636
v 1.000000 -0.411412 -9.069889
v 1.000000 1.299808 -9.874580
v 1.000000 1.483378 -10.357404
v 1.000000 -0.268089 -12.288652
v 1.000000 -1.299085 -12.932396
v 1.000000 -0.812500 -14.702703
v 1.000000 1.099894 -14.863654
v 1.000000 2.010211 -13.737097
v 1.000000 2.898750 -13.729437
v 1.000000 3.904048 -14.855371
v 1.000000 5.236061 -15.337895
v 1.000000 6.569369 -15.490076
v 1.000000 8.477265 -15.320795
v 1.000000 9.699801 -14.517480
v 1.000000 12.336781 10.921814
v 1.000000 14.000000 10.694235
v 1.000000 -0.064229 20.000000
v 1.000000 9.749718 12.130918
v 1.000000 8.754822 13.574357
v 1.000000 7.693512 14.857466
v 1.000000 5.743294 16.150009
v 1.000000 4.089615 16.150002
v 1.000000 2.325646 17.122849
v 1.000000 1.828883 17.925705
v 1.000000 0.762597 19.210255
v -1.000000 14.000000 -20.000000
v -1.000000 -14.000000 -20.000000
v -1.000000 14.000000 20.000000
v -1.000000 -14.000000 20.000000
v -1.000000 -14.000000 3.053488
v -1.000000 -14.000000 -17.054941
v -1.000000 -11.879751 -14.582434
v -0.999939 -11.343853 -12.968456
v -1.000000 -11.246568 -11.025538
v -1.000000 -10.995784 -6.992842
v -1.000000 -11.342345 -4.411942
v -1.000000 -12.072005 -1.831043
v -0.999939 -12.679431 0.265960
v -1.000000 11.329941 -10.970802
v -1.000000 10.932505 -7.600763
v -1.000000 9.443069 -4.872663
v -1.000000 7.412449 -5.035776
v -1.000000 5.597908 -7.287727
v -1.000000 4.327598 -7.291678
v -1.000000 2.955308 -5.687170
v -1.000000 0.847981 -5.687169
v -1.000000 0.065112 -7.138636
v -1.000000 -0.411412 -9.069889
v -1.000000 1.299808 -9.874580
v -1.000000 1.483378 -10.357404
v -1.000000 -0.268089 -12.288652
v -1.000000 -1.299085 -12.932396
v -1.000000 -0.812500 -14.702703
v -1.000000 1.099894 -14.863654
v -0.999939 2.010211 -13.737097
v -0.999939 2.898750 -13.729437
v -1.000000 3.904048 -14.855371
v -0.999939 5.236061 -15.337895
v -1.000000 6.569369 -15.490076
v -1.000000 8.477265 -15.320795
v -1.000000 9.699801 -14.517480
v -1.000000 12.336781 10.921814
v -1.000000 14.000000 10.694235
v -1.000000 -0.064229 20.000000
v -1.000000 9.749718 12.130918
v -1.000000 8.754822 13.574357
v -1.000000 7.693512 14.857466
v -1.000000 5.743294 16.150009
v -1.000000 4.089615 16.150002
v -1.000000 2.325646 17.122849
v -1.000000 1.828883 17.925705
v -1.000000 0.762597 19.210255
vt 0.375000 0.500000
vt 0.625000 0.500000
vt 0.558655 0.528187
vt 0.546750 0.529138
vt 0.534858 0.532154
vt 0.525882 0.539191
vt 0.517948 0.539143
vt 0.509821 0.532102
vt 0.492745 0.533108
vt 0.488401 0.544173
vt 0.497606 0.548196
vt 0.513244 0.560266
vt 0.511605 0.563284
vt 0.496327 0.568313
vt 0.500581 0.580384
vt 0.507571 0.589455
vt 0.526387 0.589455
vt 0.538639 0.579427
vt 0.549981 0.579452
vt 0.566183 0.593526
vt 0.584313 0.594546
vt 0.610150 0.693261
vt 0.587051 0.700818
vt 0.578168 0.709840
vt 0.568692 0.717859
vt 0.551279 0.725937
vt 0.536515 0.725937
vt 0.520765 0.732018
vt 0.516329 0.737036
vt 0.506809 0.745064
vt 0.499427 0.750000
vt 0.375000 0.750000
vt 0.375000 0.644084
vt 0.386791 0.626662
vt 0.392214 0.613556
vt 0.398729 0.597425
vt 0.401823 0.581295
vt 0.399584 0.556090
vt 0.398716 0.543947
vt 0.393931 0.533860
vt 0.375000 0.518407
vt 0.625000 0.750000
vt 0.625000 0.691839
vt 0.597612 0.577495
vt 0.601160 0.556432
vt 0.586605 0.534266
vt 0.575690 0.529245
vt 0.375000 0.500000
vt 0.375000 0.518407
vt 0.393931 0.533860
vt 0.398716 0.543947
vt 0.399584 0.556090
vt 0.401823 0.581295
vt 0.398729 0.597425
vt 0.392214 0.613556
vt 0.386791 0.626662
vt 0.375000 0.644084
vt 0.375000 0.750000
vt 0.499427 0.750000
vt 0.506809 0.745064
vt 0.516329 0.737036
vt 0.520765 0.732018
vt 0.536515 0.725937
vt 0.551279 0.725937
vt 0.568692 0.717859
vt 0.578168 0.709840
vt 0.587051 0.700818
vt 0.610150 0.693261
vt 0.584313 0.594546
vt 0.566183 0.593526
vt 0.549981 0.579452
vt 0.538639 0.579427
vt 0.526387 0.589455
vt 0.507571 0.589455
vt 0.500581 0.580384
vt 0.496327 0.568313
vt 0.511605 0.563284
vt 0.513244 0.560266
vt 0.497606 0.548196
vt 0.488401 0.544173
vt 0.492745 0.533108
vt 0.509821 0.532102
vt 0.517948 0.539143
vt 0.525882 0.539191
vt 0.534858 0.532154
vt 0.546750 0.529138
vt 0.558655 0.528187
vt 0.625000 0.500000
vt 0.625000 0.750000
vt 0.625000 0.691839
vt 0.575690 0.529245
vt 0.586605 0.534266
vt 0.601160 0.556432
vt 0.597612 0.577495
vn 1.0000 0.0000 0.0000
vn -1.0000 -0.0000 0.0000
vn 0.0000 0.0000 -1.0000
vn 0.0000 0.0000 1.0000
vn 0.0000 1.0000 0.0000
vn 0.0000 -1.0000 0.0000
vn 0.0000 -0.9756 -0.2194
vn 0.0000 -0.7591 0.6510
vn 0.0000 -0.8704 0.4923
vn 0.0000 -0.9829 0.1842
vn 0.0000 -0.9984 0.0560
vn 0.0000 -0.9994 -0.0357
vn 0.0000 -0.9792 -0.2031
vn 0.0000 -0.9614 -0.2751
vn 0.0000 -0.9351 -0.3543
vn 0.0000 -0.9931 -0.1171
vn 0.0000 -0.9528 -0.3037
vn 0.0000 -0.8777 -0.4792
vn 0.0000 0.0801 -0.9968
vn 0.0000 0.7787 -0.6274
vn 0.0000 0.0031 -1.0000
vn 0.0000 -0.7600 -0.6500
vn 0.0000 0.8801 -0.4747
vn 0.0000 0.9329 -0.3600
vn 0.0000 0.9709 -0.2396
vn 0.0000 0.4255 0.9049
vn 0.0000 0.9347 0.3554
vn 0.0000 0.7407 -0.6718
vn 0.0000 0.6413 -0.7673
vn 0.0000 0.5296 -0.8482
vn 0.0000 0.9642 0.2650
vn 0.0000 0.0839 0.9965
vn 0.0000 -0.7778 0.6285
vn 0.0000 -0.0086 1.0000
vn 0.0000 0.7459 0.6660
vn 0.0000 0.5603 0.8283
vn 0.0000 0.2286 0.9735
vn 0.0000 0.0126 0.9999
vn 0.0000 -0.3287 0.9444
vn 0.0000 -0.5491 0.8357
vn 0.0000 -0.9086 0.4176
vn 0.0000 -0.9836 0.1802
vn 0.0000 0.4234 0.9059
vn 0.0000 0.7977 0.6030
vn 0.0000 0.8234 0.5675
vn 0.0000 0.6687 0.7435
vn 0.0000 0.5524 0.8335
vn 0.0000 0.2493 0.9684
vn 0.0000 0.6892 0.7246
vn 0.0000 0.8119 0.5838
vn 0.0000 0.7313 0.6821
vn 0.0000 0.6907 0.7231
usemtl Material
s 1
f 2/1/1 1/2/1 34/3/1 33/4/1 32/5/1 31/6/1 30/7/1 29/8/1 28/9/1 27/10/1 26/11/1 25/12/1 24/13/1 23/14/1 22/15/1 21/16/1 20/17/1 19/18/1 18/19/1 17/20/1 16/21/1 37/22/1 40/23/1 41/24/1 42/25/1 43/26/1 44/27/1 45/28/1 46/29/1 47/30/1 39/31/1 4/32/1 5/33/1 13/34/1 12/35/1 11/36/1 10/37/1 9/38/1 8/39/1 7/40/1 6/41/1
f 3/42/1 37/22/1 38/43/1
f 38/43/1 37/22/1 16/21/1 15/44/1 14/45/1 36/46/1 35/47/1 34/3/1 1/2/1
f 49/48/2 53/49/2 54/50/2 55/51/2 56/52/2 57/53/2 58/54/2 59/55/2 60/56/2 52/57/2 51/58/2 86/59/2 94/60/2 93/61/2 92/62/2 91/63/2 90/64/2 89/65/2 88/66/2 87/67/2 84/68/2 63/69/2 64/70/2 65/71/2 66/72/2 67/73/2 68/74/2 69/75/2 70/76/2 71/77/2 72/78/2 73/79/2 74/80/2 75/81/2 76/82/2 77/83/2 78/84/2 79/85/2 80/86/2 81/87/2 48/88/2
f 50/89/2 85/90/2 84/68/2
f 85/90/2 48/88/2 81/87/2 82/91/2 83/92/2 61/93/2 62/94/2 63/69/2 84/68/2
f 1/2/3 2/1/3 49/48/3 48/88/3
f 4/32/4 39/31/4 86/59/4 51/58/4
f 3/42/5 38/43/5 85/90/5 50/89/5
f 2/1/6 6/41/6 53/49/6 49/48/6
f 5/33/7 4/32/6 51/58/6 52/57/7
f 6/41/8 7/40/9 54/50/9 53/49/8
f 7/40/9 8/39/10 55/51/10 54/50/9
f 8/39/10 9/38/11 56/52/11 55/51/10
f 9/38/11 10/37/12 57/53/12 56/52/11
f 10/37/12 11/36/13 58/54/13 57/53/12
f 11/36/13 12/35/14 59/55/14 58/54/13
f 12/35/14 13/34/15 60/56/15 59/55/14
f 13/34/15 5/33/7 52/57/7 60/56/15
f 14/45/16 15/44/17 62/94/17 61/93/16
f 15/44/17 16/21/18 63/69/18 62/94/17
f 16/21/19 17/20/19 64/70/19 63/69/19
f 17/20/20 18/19/20 65/71/20 64/70/20
f 18/19/21 19/18/21 66/72/21 65/71/21
f 19/18/22 20/17/22 67/73/22 66/72/22
f 20/17/3 21/16/3 68/74/3 67/73/3
f 21/16/23 22/15/24 69/75/24 68/74/23
f 22/15/24 23/14/25 70/76/25 69/75/24
f 23/14/26 24/13/26 71/77/26 70/76/26
f 24/13/27 25/12/27 72/78/27 71/77/27
f 25/12/28 26/11/29 73/79/29 72/78/28
f 26/11/29 27/10/30 74/80/30 73/79/29
f 27/10/31 28/9/31 75/81/31 74/80/31
f 28/9/32 29/8/32 76/82/32 75/81/32
f 29/8/33 30/7/33 77/83/33 76/82/33
f 30/7/34 31/6/34 78/84/34 77/83/34
f 31/6/35 32/5/36 79/85/36 78/84/35
f 32/5/36 33/4/37 80/86/37 79/85/36
f 33/4/37 34/3/38 81/87/38 80/86/37
f 34/3/38 35/47/39 82/91/39 81/87/38
f 35/47/39 36/46/40 83/92/40 82/91/39
f 36/46/41 14/45/41 61/93/41 83/92/41
f 37/22/42 3/42/42 50/89/42 84/68/42
f 38/43/5 1/2/5 48/88/5 85/90/5
f 40/23/43 37/22/43 84/68/43 87/67/43
f 41/24/44 40/23/45 87/67/45 88/66/44
f 42/25/46 41/24/44 88/66/44 89/65/46
f 43/26/47 42/25/46 89/65/46 90/64/47
f 44/27/48 43/26/4 90/64/4 91/63/48
f 45/28/49 44/27/48 91/63/48 92/62/49
f 46/29/50 45/28/49 92/62/49 93/61/50
f 47/30/51 46/29/50 93/61/50 94/60/51
f 39/31/52 47/30/51 94/60/51 86/59/52
