# Blender v2.93.3 OBJ File: 'walls.blend'
# www.blender.org
mtllib wall-13.mtl
o Cube.013_Cube.019
v 1.000000 -14.000000 -20.000000
v 1.000000 -14.000000 14.473786
v 1.000000 1.957308 -20.000000
v 1.000000 2.438631 -18.683582
v 1.000000 4.595279 -14.593861
v 1.000000 5.157179 -13.660662
v 1.000000 6.081489 -12.958602
v 1.000000 6.918015 -11.327062
v 1.000000 7.233291 -8.445753
v 1.000000 5.725794 -5.819476
v 1.000000 2.646437 -4.581738
v 1.000000 1.844669 -3.204976
v 1.000000 1.965892 -1.240236
v 1.000000 4.954010 3.494520
v 1.000000 2.718642 6.480646
v 1.000000 0.090289 8.094052
v 1.000000 -2.837717 8.673421
v 1.000000 -4.196400 10.063421
v 1.000000 -5.923773 12.035698
v 1.000000 -7.379733 13.548721
v 1.000000 -11.356921 15.316204
v -1.000000 -14.000000 -20.000000
v -1.000000 -14.000000 14.473786
v -1.000000 1.957308 -20.000000
v -1.000000 2.438631 -18.683582
v -1.000000 4.595279 -14.593861
v -1.000000 5.157179 -13.660662
v -1.000000 6.081489 -12.958602
v -1.000000 6.918015 -11.327062
v -1.000000 7.233291 -8.445753
v -1.000000 5.725794 -5.819476
v -1.000000 2.646437 -4.581738
v -1.000000 1.844669 -3.204976
v -1.000000 1.965892 -1.240236
v -1.000000 4.954010 3.494520
v -1.000000 2.718642 6.480646
v -1.000000 0.090289 8.094052
v -0.999939 -2.837717 8.673421
v -0.999939 -4.196400 10.063421
v -0.999939 -5.923773 12.035698
v -1.000000 -7.379733 13.548721
v -1.000000 -11.356921 15.316204
vt 0.375000 0.500000
vt 0.517476 0.500000
vt 0.521774 0.508228
vt 0.541029 0.533788
vt 0.546046 0.539621
vt 0.554299 0.544009
vt 0.561768 0.554206
vt 0.564583 0.572214
vt 0.551123 0.588628
vt 0.523629 0.596364
vt 0.516470 0.604969
vt 0.517553 0.617249
vt 0.544232 0.646841
vt 0.524274 0.665504
vt 0.500806 0.675588
vt 0.474663 0.679209
vt 0.462532 0.687896
vt 0.447109 0.700223
vt 0.434110 0.709679
vt 0.398599 0.720726
vt 0.375000 0.715461
vt 0.375000 0.500000
vt 0.375000 0.715461
vt 0.398599 0.720726
vt 0.434110 0.709679
vt 0.447109 0.700223
vt 0.462532 0.687896
vt 0.474663 0.679209
vt 0.500806 0.675588
vt 0.524274 0.665504
vt 0.544232 0.646841
vt 0.517553 0.617249
vt 0.516470 0.604969
vt 0.523629 0.596364
vt 0.551123 0.588628
vt 0.564583 0.572214
vt 0.561768 0.554206
vt 0.554299 0.544009
vt 0.546046 0.539621
vt 0.541029 0.533788
vt 0.521774 0.508228
vt 0.517476 0.500000
vn 1.0000 0.0000 0.0000
vn -1.0000 0.0000 0.0000
vn 0.0000 0.0000 -1.0000
vn 0.0000 -1.0000 0.0000
vn 0.0000 0.9139 -0.4058
vn 0.0000 0.9392 -0.3434
vn 0.0000 0.8710 -0.4913
vn 0.0000 0.7441 -0.6681
vn 0.0000 0.7665 -0.6423
vn 0.0000 0.9578 -0.2873
vn 0.0000 0.9941 -0.1088
vn 0.0000 0.8673 0.4978
vn 0.0000 0.3729 0.9279
vn 0.0000 0.8641 0.5032
vn 0.0000 0.9516 -0.3072
vn 0.0000 0.9981 -0.0616
vn 0.0000 0.8457 -0.5337
vn 0.0000 0.6738 0.7389
vn 0.0000 0.8005 0.5993
vn 0.0000 0.3644 0.9313
vn 0.0000 0.1941 0.9810
vn 0.0000 0.7340 0.6792
vn 0.0000 0.7151 0.6990
vn 0.0000 0.7366 0.6763
vn 0.0000 0.5740 0.8188
vn 0.0000 0.4061 0.9138
vn 0.0000 -0.3037 0.9528
usemtl Material
s 1
f 1/1/1 3/2/1 4/3/1 5/4/1 6/5/1 7/6/1 8/7/1 9/8/1 10/9/1 11/10/1 12/11/1 13/12/1 14/13/1 15/14/1 16/15/1 17/16/1 18/17/1 19/18/1 20/19/1 21/20/1 2/21/1
f 22/22/2 23/23/2 42/24/2 41/25/2 40/26/2 39/27/2 38/28/2 37/29/2 36/30/2 35/31/2 34/32/2 33/33/2 32/34/2 31/35/2 30/36/2 29/37/2 28/38/2 27/39/2 26/40/2 25/41/2 24/42/2
f 3/2/3 1/1/3 22/22/3 24/42/3
f 1/1/4 2/21/4 23/23/4 22/22/4
f 4/3/5 3/2/6 24/42/6 25/41/5
f 5/4/7 4/3/5 25/41/5 26/40/7
f 6/5/8 5/4/7 26/40/7 27/39/8
f 7/6/9 6/5/8 27/39/8 28/38/9
f 8/7/10 7/6/9 28/38/9 29/37/10
f 9/8/11 8/7/10 29/37/10 30/36/11
f 10/9/12 9/8/12 30/36/12 31/35/12
f 11/10/13 10/9/13 31/35/13 32/34/13
f 12/11/14 11/10/14 32/34/14 33/33/14
f 13/12/15 12/11/16 33/33/16 34/32/15
f 14/13/17 13/12/15 34/32/15 35/31/17
f 15/14/18 14/13/19 35/31/19 36/30/18
f 16/15/20 15/14/18 36/30/18 37/29/20
f 17/16/21 16/15/20 37/29/20 38/28/21
f 18/17/22 17/16/23 38/28/23 39/27/22
f 19/18/24 18/17/22 39/27/22 40/26/24
f 20/19/25 19/18/24 40/26/24 41/25/25
f 21/20/26 20/19/25 41/25/25 42/24/26
f 2/21/27 21/20/27 42/24/27 23/23/27
