# Blender v2.93.3 OBJ File: 'walls.blend'
# www.blender.org
mtllib wall-3.mtl
o Cube.003_Cube.009
v 1.000000 14.000000 -20.000000
v 1.000000 -14.000000 -20.000000
v 1.000000 14.000000 20.000000
v 1.000000 -14.000000 20.000000
v 1.000000 -14.000000 15.100765
v 1.000000 -14.000000 -17.366560
v 1.000000 -12.658305 14.223497
v 1.000000 -11.854507 11.515965
v 1.000000 -12.158080 9.685419
v 1.000000 -11.916793 8.330090
v 1.000000 -9.876906 5.121477
v 1.000000 -9.031597 1.183850
v 1.000000 -10.061412 -1.111472
v 1.000000 -11.539120 -2.508068
v 1.000000 -10.842363 -3.991731
v 1.000000 -9.162802 -5.967426
v 1.000000 -8.442752 -6.171864
v 1.000000 -5.973139 -7.481995
v 1.000000 -3.833632 -8.541614
v 1.000000 -3.528697 -9.894601
v 1.000000 -3.578797 -12.898052
v 1.000000 -5.740891 -13.201632
v 1.000000 -6.986297 -12.764850
v 1.000000 -9.457559 -14.484483
v 1.000000 -11.130304 -15.537610
v 1.000000 -12.279070 -16.262781
v -1.000000 14.000000 -20.000000
v -1.000000 -14.000000 -20.000000
v -1.000000 14.000000 20.000000
v -1.000000 -14.000000 20.000000
v -1.000000 -14.000000 15.100765
v -1.000000 -14.000000 -17.366560
v -1.000000 -12.658305 14.223497
v -1.000000 -11.854507 11.515965
v -1.000000 -12.158080 9.685419
v -1.000000 -11.916793 8.330090
v -1.000000 -9.876906 5.121477
v -1.000000 -9.031597 1.183850
v -1.000000 -10.061412 -1.111472
v -1.000000 -11.539120 -2.508068
v -1.000000 -10.842363 -3.991731
v -1.000000 -9.162802 -5.967426
v -1.000000 -8.442752 -6.171864
v -1.000000 -5.973139 -7.481995
v -1.000000 -3.833632 -8.541614
v -1.000000 -3.528697 -9.894601
v -1.000000 -3.578797 -12.898052
v -1.000000 -5.740891 -13.201632
v -1.000000 -6.986297 -12.764850
v -1.000000 -9.457559 -14.484483
v -1.000000 -11.130304 -15.537610
v -1.000000 -12.279070 -16.262781
vt 0.375000 0.500000
vt 0.625000 0.500000
vt 0.625000 0.750000
vt 0.375000 0.750000
vt 0.375000 0.719380
vt 0.386979 0.713897
vt 0.394156 0.696975
vt 0.391446 0.685534
vt 0.393600 0.677063
vt 0.411813 0.657009
vt 0.419361 0.632399
vt 0.410166 0.618053
vt 0.396972 0.609325
vt 0.403193 0.600052
vt 0.418189 0.587704
vt 0.424618 0.586426
vt 0.446668 0.578238
vt 0.465771 0.571615
vt 0.468494 0.563159
vt 0.468046 0.544387
vt 0.448742 0.542490
vt 0.437622 0.545220
vt 0.415558 0.534472
vt 0.400622 0.527890
vt 0.390365 0.523358
vt 0.375000 0.516459
vt 0.375000 0.500000
vt 0.375000 0.516459
vt 0.390365 0.523358
vt 0.400622 0.527890
vt 0.415558 0.534472
vt 0.437622 0.545220
vt 0.448742 0.542490
vt 0.468046 0.544387
vt 0.468494 0.563159
vt 0.465771 0.571615
vt 0.446668 0.578238
vt 0.424618 0.586426
vt 0.418189 0.587704
vt 0.403193 0.600052
vt 0.396972 0.609325
vt 0.410166 0.618053
vt 0.419361 0.632399
vt 0.411813 0.657009
vt 0.393600 0.677063
vt 0.391446 0.685534
vt 0.394156 0.696975
vt 0.386979 0.713897
vt 0.375000 0.719380
vt 0.375000 0.750000
vt 0.625000 0.750000
vt 0.625000 0.500000
vn 1.0000 -0.0000 0.0000
vn -1.0000 -0.0000 0.0000
vn 0.0000 0.0000 -1.0000
vn 0.0000 0.0000 1.0000
vn 0.0000 1.0000 0.0000
vn 0.0000 -1.0000 0.0000
vn 0.0000 -0.5473 -0.8370
vn 0.0000 -0.9981 -0.0621
vn 0.0000 -0.9586 -0.2846
vn 0.0000 -1.0000 -0.0059
vn 0.0000 -0.9319 -0.3628
vn 0.0000 -0.9253 -0.3792
vn 0.0000 -0.9777 -0.2099
vn 0.0000 -0.8152 0.5791
vn 0.0000 -0.9124 0.4093
vn 0.0000 -0.6869 0.7268
vn 0.0000 -0.8409 -0.5411
vn 0.0000 -0.9052 -0.4251
vn 0.0000 -0.7619 -0.6477
vn 0.0000 -0.3730 -0.9278
vn 0.0000 -0.2731 -0.9620
vn 0.0000 -0.4563 -0.8898
vn 0.0000 -0.4438 -0.8961
vn 0.0000 -0.9948 -0.1023
vn 0.0000 -0.9755 -0.2199
vn 0.0000 -0.9999 0.0167
vn 0.0000 0.0987 0.9951
vn 0.0000 -0.1390 0.9903
vn 0.0000 0.3310 0.9436
vn 0.0000 -0.5521 0.8338
vn 0.0000 -0.5712 0.8208
vn 0.0000 -0.5333 0.8459
vn 0.0000 -0.5368 0.8437
vn 0.0000 -0.5399 0.8417
usemtl Material
s 1
f 2/1/1 1/2/1 3/3/1 4/4/1 5/5/1 7/6/1 8/7/1 9/8/1 10/9/1 11/10/1 12/11/1 13/12/1 14/13/1 15/14/1 16/15/1 17/16/1 18/17/1 19/18/1 20/19/1 21/20/1 22/21/1 23/22/1 24/23/1 25/24/1 26/25/1 6/26/1
f 28/27/2 32/28/2 52/29/2 51/30/2 50/31/2 49/32/2 48/33/2 47/34/2 46/35/2 45/36/2 44/37/2 43/38/2 42/39/2 41/40/2 40/41/2 39/42/2 38/43/2 37/44/2 36/45/2 35/46/2 34/47/2 33/48/2 31/49/2 30/50/2 29/51/2 27/52/2
f 1/2/3 2/1/3 28/27/3 27/52/3
f 4/4/4 3/3/4 29/51/4 30/50/4
f 3/3/5 1/2/5 27/52/5 29/51/5
f 2/1/6 6/26/6 32/28/6 28/27/6
f 5/5/6 4/4/6 30/50/6 31/49/6
f 7/6/7 5/5/7 31/49/7 33/48/7
f 8/7/8 7/6/9 33/48/9 34/47/8
f 9/8/10 8/7/8 34/47/8 35/46/10
f 10/9/11 9/8/10 35/46/10 36/45/11
f 11/10/12 10/9/11 36/45/11 37/44/12
f 12/11/13 11/10/12 37/44/12 38/43/13
f 13/12/14 12/11/15 38/43/15 39/42/14
f 14/13/16 13/12/14 39/42/14 40/41/16
f 15/14/17 14/13/18 40/41/18 41/40/17
f 16/15/19 15/14/17 41/40/17 42/39/19
f 17/16/20 16/15/21 42/39/21 43/38/20
f 18/17/22 17/16/20 43/38/20 44/37/22
f 19/18/23 18/17/22 44/37/22 45/36/23
f 20/19/24 19/18/25 45/36/25 46/35/24
f 21/20/26 20/19/24 46/35/24 47/34/26
f 22/21/27 21/20/28 47/34/28 48/33/27
f 23/22/29 22/21/27 48/33/27 49/32/29
f 24/23/30 23/22/31 49/32/31 50/31/30
f 25/24/32 24/23/30 50/31/30 51/30/32
f 26/25/33 25/24/32 51/30/32 52/29/33
f 6/26/34 26/25/33 52/29/33 32/28/34
