# Blender v2.93.3 OBJ File: 'walls.blend'
# www.blender.org
mtllib wall-22.mtl
o Cube.022_Cube.028
v 1.000000 -14.000000 -20.000000
v 1.000000 14.000000 20.000000
v 1.000000 14.000000 -14.048681
v 1.000000 -7.901670 20.000000
v 1.000000 12.299694 -10.943928
v 1.000000 10.845715 -9.235054
v 1.000000 9.660892 -6.474675
v 1.000000 8.398006 -4.754307
v 1.000000 6.731104 -2.681291
v 1.000000 4.919142 -0.949844
v 1.000000 3.231309 1.138523
v 1.000000 1.474847 3.235247
v 1.000000 0.342443 6.034419
v 1.000000 -1.013934 7.790421
v 1.000000 -2.711399 10.607237
v 1.000000 -3.733898 11.671812
v 1.000000 -5.090825 14.854842
v 1.000000 -6.587676 16.982954
v 1.000000 -1.999423 -20.000000
v 1.000000 -14.000000 3.200946
v 1.000000 -10.266355 -0.260767
v 1.000000 -7.974635 -3.089445
v 1.000000 -7.290822 -4.501510
v 1.000000 -8.102134 -6.630150
v 1.000000 -8.847514 -9.118000
v 1.000000 -7.955603 -11.230738
v 1.000000 -6.166860 -13.692043
v 1.000000 -4.097811 -16.128988
v 1.000000 -2.945763 -18.223888
v -1.000000 -14.000000 -20.000000
v -1.000000 14.000000 20.000000
v -1.000000 14.000000 -14.048681
v -1.000000 -7.901670 20.000000
v -1.000000 12.299694 -10.943928
v -1.000000 10.845715 -9.235054
v -1.000000 9.660892 -6.474675
v -1.000000 8.398006 -4.754307
v -1.000000 6.731104 -2.681291
v -1.000000 4.919142 -0.949844
v -1.000000 3.231309 1.138523
v -1.000000 1.474847 3.235247
v -1.000000 0.342443 6.034419
v -1.000000 -1.013934 7.790421
v -1.000000 -2.711399 10.607237
v -1.000000 -3.733898 11.671812
v -1.000000 -5.090825 14.854842
v -1.000000 -6.587676 16.982954
v -1.000000 -1.999423 -20.000000
v -1.000000 -14.000000 3.200946
v -1.000000 -10.266355 -0.260767
v -1.000000 -7.974635 -3.089445
v -1.000000 -7.290822 -4.501510
v -1.000000 -8.102134 -6.630150
v -1.000000 -8.847514 -9.118000
v -1.000000 -7.955603 -11.230738
v -1.000000 -6.166860 -13.692043
v -1.000000 -4.097811 -16.128988
v -1.000000 -2.945763 -18.223888
vt 0.375000 0.500000
vt 0.482148 0.500000
vt 0.473699 0.511101
vt 0.463412 0.524194
vt 0.444939 0.539425
vt 0.428968 0.554808
vt 0.421004 0.568012
vt 0.427660 0.583562
vt 0.434903 0.596866
vt 0.428798 0.605691
vt 0.408336 0.623370
vt 0.375000 0.645006
vt 0.429449 0.750000
vt 0.441181 0.731143
vt 0.454546 0.717843
vt 0.466662 0.697949
vt 0.475791 0.691295
vt 0.490947 0.673690
vt 0.503057 0.662715
vt 0.513168 0.645220
vt 0.528851 0.632116
vt 0.543921 0.619064
vt 0.560099 0.608242
vt 0.574982 0.595286
vt 0.586258 0.584533
vt 0.596837 0.567281
vt 0.609819 0.556600
vt 0.625000 0.537196
vt 0.625000 0.750000
vt 0.375000 0.500000
vt 0.375000 0.645006
vt 0.408336 0.623370
vt 0.428798 0.605691
vt 0.434903 0.596866
vt 0.427660 0.583562
vt 0.421004 0.568012
vt 0.428968 0.554808
vt 0.444939 0.539425
vt 0.463412 0.524194
vt 0.473699 0.511101
vt 0.482148 0.500000
vt 0.429449 0.750000
vt 0.625000 0.750000
vt 0.625000 0.537196
vt 0.609819 0.556600
vt 0.596837 0.567281
vt 0.586258 0.584533
vt 0.574982 0.595286
vt 0.560099 0.608242
vt 0.543921 0.619064
vt 0.528851 0.632116
vt 0.513168 0.645220
vt 0.503057 0.662715
vt 0.490947 0.673690
vt 0.475791 0.691295
vt 0.466662 0.697949
vt 0.454546 0.717843
vt 0.441181 0.731143
vn 1.0000 0.0000 0.0000
vn -1.0000 0.0000 0.0000
vn 0.0000 0.0000 -1.0000
vn 0.0000 1.0000 0.0000
vn 0.0000 -1.0000 0.0000
vn 0.0000 0.0000 1.0000
vn 0.0000 -0.8771 -0.4803
vn 0.0000 -0.8236 -0.5671
vn 0.0000 -0.8498 -0.5271
vn 0.0000 -0.8681 -0.4963
vn 0.0000 -0.7929 -0.6093
vn 0.0000 -0.7367 -0.6763
vn 0.0000 -0.7358 -0.6772
vn 0.0000 -0.7722 -0.6354
vn 0.0000 -0.8573 -0.5149
vn 0.0000 -0.8673 -0.4978
vn 0.0000 -0.8253 -0.5647
vn 0.0000 -0.7938 -0.6082
vn 0.0000 -0.8342 -0.5515
vn 0.0000 -0.8737 -0.4864
vn 0.0000 -0.8718 -0.4898
vn 0.0000 -0.9168 -0.3993
vn 0.0000 0.6799 0.7333
vn 0.0000 0.7303 0.6831
vn 0.0000 0.8441 0.5362
vn 0.0000 0.9000 0.4358
vn 0.0000 0.9344 -0.3561
vn 0.0000 0.9468 -0.3218
vn 0.0000 0.9579 -0.2870
vn 0.0000 0.9213 0.3889
vn 0.0000 0.8708 0.4916
vn 0.0000 0.7862 0.6180
vn 0.0000 0.8234 0.5674
vn 0.0000 0.8794 0.4761
vn 0.0000 0.8825 0.4702
usemtl Material
s 1
f 1/1/1 19/2/1 29/3/1 28/4/1 27/5/1 26/6/1 25/7/1 24/8/1 23/9/1 22/10/1 21/11/1 20/12/1
f 4/13/1 18/14/1 17/15/1 16/16/1 15/17/1 14/18/1 13/19/1 12/20/1 11/21/1 10/22/1 9/23/1 8/24/1 7/25/1 6/26/1 5/27/1 3/28/1 2/29/1
f 30/30/2 49/31/2 50/32/2 51/33/2 52/34/2 53/35/2 54/36/2 55/37/2 56/38/2 57/39/2 58/40/2 48/41/2
f 33/42/2 31/43/2 32/44/2 34/45/2 35/46/2 36/47/2 37/48/2 38/49/2 39/50/2 40/51/2 41/52/2 42/53/2 43/54/2 44/55/2 45/56/2 46/57/2 47/58/2
f 19/2/3 1/1/3 30/30/3 48/41/3
f 2/29/4 3/28/4 32/44/4 31/43/4
f 1/1/5 20/12/5 49/31/5 30/30/5
f 4/13/6 2/29/6 31/43/6 33/42/6
f 3/28/7 5/27/8 34/45/8 32/44/7
f 5/27/8 6/26/9 35/46/9 34/45/8
f 6/26/9 7/25/10 36/47/10 35/46/9
f 7/25/10 8/24/11 37/48/11 36/47/10
f 8/24/11 9/23/12 38/49/12 37/48/11
f 9/23/12 10/22/13 39/50/13 38/49/12
f 10/22/13 11/21/14 40/51/14 39/50/13
f 11/21/14 12/20/15 41/52/15 40/51/14
f 12/20/15 13/19/16 42/53/16 41/52/15
f 13/19/16 14/18/17 43/54/17 42/53/16
f 14/18/17 15/17/18 44/55/18 43/54/17
f 15/17/18 16/16/19 45/56/19 44/55/18
f 16/16/19 17/15/20 46/57/20 45/56/19
f 17/15/20 18/14/21 47/58/21 46/57/20
f 18/14/21 4/13/22 33/42/22 47/58/21
f 20/12/23 21/11/24 50/32/24 49/31/23
f 21/11/24 22/10/25 51/33/25 50/32/24
f 22/10/25 23/9/26 52/34/26 51/33/25
f 23/9/27 24/8/28 53/35/28 52/34/27
f 24/8/28 25/7/29 54/36/29 53/35/28
f 25/7/30 26/6/31 55/37/31 54/36/30
f 26/6/31 27/5/32 56/38/32 55/37/31
f 27/5/32 28/4/33 57/39/33 56/38/32
f 28/4/33 29/3/34 58/40/34 57/39/33
f 29/3/34 19/2/35 48/41/35 58/40/34
