# Blender v2.93.3 OBJ File: 'walls.blend'
# www.blender.org
mtllib wall-5.mtl
o Cube.005_Cube.011
v 1.000000 14.000000 -20.000000
v 1.000000 -14.000000 -20.000000
v 1.000000 14.000000 20.000000
v 1.000000 -14.000000 20.000000
v 1.000000 -14.000000 15.904205
v 1.000000 -14.000000 -16.901434
v 1.000000 -12.627033 -17.127932
v 1.000000 -9.336942 -17.387993
v 1.000000 -7.221369 -17.006283
v 1.000000 -4.158138 -16.671247
v 1.000000 -2.271716 -16.716440
v 1.000000 -0.593225 -16.859306
v 1.000000 1.551521 -16.975208
v 1.000000 4.362008 -16.235239
v 1.000000 6.559175 -15.763930
v 1.000000 7.304582 -14.564122
v 1.000000 7.787678 -12.780344
v 1.000000 6.019711 -11.543371
v 1.000000 3.167103 -11.341662
v 1.000000 1.503255 -11.203230
v 1.000000 0.544394 -8.252876
v 1.000000 2.563598 -7.126510
v 1.000000 4.157537 -7.103709
v 1.000000 5.680992 -7.256274
v 1.000000 6.576019 -4.380859
v 1.000000 6.997191 -2.446601
v 1.000000 5.762339 -1.029927
v 1.000000 3.323257 -0.459653
v 1.000000 0.271823 0.109763
v 1.000000 -1.517448 1.025546
v 1.000000 -1.739934 3.889607
v 1.000000 -3.594796 4.646106
v 1.000000 -5.601479 5.655327
v 1.000000 -7.130092 6.415000
v 1.000000 -7.296338 8.863807
v 1.000000 -7.036953 11.640894
v 1.000000 -7.847116 11.900381
v 1.000000 -9.445631 12.663651
v 1.000000 -11.733438 13.863552
v 1.000000 -13.205016 15.312923
v -1.000000 14.000000 -20.000000
v -1.000000 -14.000000 -20.000000
v -1.000000 14.000000 20.000000
v -1.000000 -14.000000 20.000000
v -1.000000 -14.000000 15.904205
v -0.999939 -14.000000 -16.901434
v -1.000000 -12.627033 -17.127932
v -0.999939 -9.336942 -17.387993
v -1.000000 -7.221369 -17.006283
v -1.000000 -4.158138 -16.671247
v -1.000000 -2.271716 -16.716440
v -1.000000 -0.593225 -16.859306
v -1.000000 1.551521 -16.975208
v -1.000000 4.362008 -16.235239
v -1.000000 6.559175 -15.763930
v -1.000000 7.304582 -14.564122
v -0.999939 7.787678 -12.780344
v -1.000000 6.019711 -11.543371
v -1.000000 3.167103 -11.341662
v -1.000000 1.503255 -11.203230
v -1.000000 0.544394 -8.252876
v -1.000000 2.563598 -7.126510
v -0.999939 4.157537 -7.103709
v -1.000000 5.680992 -7.256274
v -1.000000 6.576019 -4.380859
v -1.000000 6.997191 -2.446601
v -1.000000 5.762339 -1.029927
v -1.000000 3.323257 -0.459653
v -1.000000 0.271823 0.109763
v -1.000000 -1.517448 1.025546
v -1.000000 -1.739934 3.889607
v -0.999939 -3.594796 4.646106
v -1.000000 -5.601479 5.655327
v -1.000000 -7.130092 6.415000
v -1.000000 -7.296338 8.863807
v -1.000000 -7.036953 11.640894
v -1.000000 -7.847116 11.900381
v -1.000000 -9.445631 12.663651
v -1.000000 -11.733438 13.863552
v -1.000000 -13.205016 15.312923
vt 0.375000 0.500000
vt 0.625000 0.500000
vt 0.625000 0.750000
vt 0.375000 0.750000
vt 0.375000 0.724401
vt 0.382098 0.720706
vt 0.395237 0.711647
vt 0.415664 0.704148
vt 0.429936 0.699377
vt 0.437170 0.697756
vt 0.434854 0.680399
vt 0.436338 0.665094
vt 0.449987 0.660346
vt 0.467904 0.654038
vt 0.484465 0.649310
vt 0.486451 0.631410
vt 0.502427 0.625686
vt 0.529672 0.622127
vt 0.551449 0.618563
vt 0.562475 0.609709
vt 0.558714 0.597620
vt 0.550723 0.579648
vt 0.537121 0.580602
vt 0.522889 0.580459
vt 0.504861 0.573420
vt 0.513422 0.554980
vt 0.528278 0.554115
vt 0.553747 0.552854
vt 0.569533 0.545123
vt 0.565220 0.533974
vt 0.558564 0.526475
vt 0.538946 0.523530
vt 0.513853 0.518905
vt 0.494703 0.519629
vt 0.479717 0.520522
vt 0.462874 0.520805
vt 0.435524 0.518711
vt 0.416634 0.516325
vt 0.387259 0.517950
vt 0.375000 0.519366
vt 0.375000 0.500000
vt 0.375000 0.519366
vt 0.387259 0.517950
vt 0.416634 0.516325
vt 0.435524 0.518711
vt 0.462874 0.520805
vt 0.479717 0.520522
vt 0.494703 0.519629
vt 0.513853 0.518905
vt 0.538946 0.523530
vt 0.558564 0.526475
vt 0.565220 0.533974
vt 0.569533 0.545123
vt 0.553747 0.552854
vt 0.528278 0.554115
vt 0.513422 0.554980
vt 0.504861 0.573420
vt 0.522889 0.580459
vt 0.537121 0.580602
vt 0.550723 0.579648
vt 0.558714 0.597620
vt 0.562475 0.609709
vt 0.551449 0.618563
vt 0.529672 0.622127
vt 0.502427 0.625686
vt 0.486451 0.631410
vt 0.484465 0.649310
vt 0.467904 0.654038
vt 0.449987 0.660346
vt 0.436338 0.665094
vt 0.434854 0.680399
vt 0.437170 0.697756
vt 0.429936 0.699377
vt 0.415664 0.704148
vt 0.395237 0.711647
vt 0.382098 0.720706
vt 0.375000 0.724401
vt 0.375000 0.750000
vt 0.625000 0.750000
vt 0.625000 0.500000
vn 1.0000 0.0000 0.0000
vn -1.0000 -0.0000 0.0000
vn 0.0000 0.0000 -1.0000
vn 0.0000 0.0000 1.0000
vn 0.0000 1.0000 0.0000
vn 0.0000 -1.0000 0.0000
vn 0.0000 0.1628 0.9867
vn 0.0000 0.1209 0.9927
vn 0.0000 -0.0498 0.9988
vn 0.0000 -0.1432 0.9897
vn 0.0000 -0.0425 0.9991
vn 0.0000 0.0544 0.9985
vn 0.0000 0.0694 0.9976
vn 0.0000 -0.1016 0.9948
vn 0.0000 -0.2322 0.9727
vn 0.0000 -0.2097 0.9778
vn 0.0000 -0.8494 0.5277
vn 0.0000 -0.9170 0.3988
vn 0.0000 -0.9652 0.2614
vn 0.0000 -0.5733 -0.8194
vn 0.0000 -0.0705 -0.9975
vn 0.0000 -0.0767 -0.9971
vn 0.0000 -0.0829 -0.9966
vn 0.0000 -0.9510 -0.3091
vn 0.0000 -0.4872 0.8733
vn 0.0000 -0.2586 0.9660
vn 0.0000 0.0427 0.9991
vn 0.0000 0.0996 0.9950
vn 0.0000 -0.9548 0.2972
vn 0.0000 -0.9669 0.2552
vn 0.0000 -0.9771 0.2128
vn 0.0000 -0.7538 -0.6571
vn 0.0000 -0.2277 -0.9737
vn 0.0000 -0.2056 -0.9786
vn 0.0000 -0.3229 -0.9464
vn 0.0000 -0.4556 -0.8902
vn 0.0000 -0.9970 -0.0774
vn 0.0000 -0.3776 -0.9260
vn 0.0000 -0.4138 -0.9104
vn 0.0000 -0.4472 -0.8944
vn 0.0000 -0.4450 -0.8955
vn 0.0000 -0.9977 -0.0677
vn 0.0000 -0.9999 0.0127
vn 0.0000 -0.9957 0.0930
vn 0.0000 -0.3050 -0.9523
vn 0.0000 -0.3688 -0.9295
vn 0.0000 -0.4478 -0.8942
vn 0.0000 -0.5895 -0.8078
vn 0.0000 -0.6508 -0.7592
vn 0.0000 -0.5968 -0.8024
usemtl Material
s 1
f 2/1/1 1/2/1 3/3/1 4/4/1 5/5/1 40/6/1 39/7/1 38/8/1 37/9/1 36/10/1 35/11/1 34/12/1 33/13/1 32/14/1 31/15/1 30/16/1 29/17/1 28/18/1 27/19/1 26/20/1 25/21/1 24/22/1 23/23/1 22/24/1 21/25/1 20/26/1 19/27/1 18/28/1 17/29/1 16/30/1 15/31/1 14/32/1 13/33/1 12/34/1 11/35/1 10/36/1 9/37/1 8/38/1 7/39/1 6/40/1
f 42/41/2 46/42/2 47/43/2 48/44/2 49/45/2 50/46/2 51/47/2 52/48/2 53/49/2 54/50/2 55/51/2 56/52/2 57/53/2 58/54/2 59/55/2 60/56/2 61/57/2 62/58/2 63/59/2 64/60/2 65/61/2 66/62/2 67/63/2 68/64/2 69/65/2 70/66/2 71/67/2 72/68/2 73/69/2 74/70/2 75/71/2 76/72/2 77/73/2 78/74/2 79/75/2 80/76/2 45/77/2 44/78/2 43/79/2 41/80/2
f 1/2/3 2/1/3 42/41/3 41/80/3
f 4/4/4 3/3/4 43/79/4 44/78/4
f 3/3/5 1/2/5 41/80/5 43/79/5
f 2/1/6 6/40/6 46/42/6 42/41/6
f 5/5/6 4/4/6 44/78/6 45/77/6
f 6/40/7 7/39/8 47/43/8 46/42/7
f 7/39/8 8/38/9 48/44/9 47/43/8
f 8/38/9 9/37/10 49/45/10 48/44/9
f 9/37/10 10/36/11 50/46/11 49/45/10
f 10/36/11 11/35/12 51/47/12 50/46/11
f 11/35/12 12/34/13 52/48/13 51/47/12
f 12/34/13 13/33/14 53/49/14 52/48/13
f 13/33/14 14/32/15 54/50/15 53/49/14
f 14/32/15 15/31/16 55/51/16 54/50/15
f 15/31/17 16/30/18 56/52/18 55/51/17
f 16/30/18 17/29/19 57/53/19 56/52/18
f 17/29/20 18/28/20 58/54/20 57/53/20
f 18/28/21 19/27/22 59/55/22 58/54/21
f 19/27/22 20/26/23 60/56/23 59/55/22
f 20/26/24 21/25/24 61/57/24 60/56/24
f 21/25/25 22/24/26 62/58/26 61/57/25
f 22/24/26 23/23/27 63/59/27 62/58/26
f 23/23/27 24/22/28 64/60/28 63/59/27
f 24/22/29 25/21/30 65/61/30 64/60/29
f 25/21/30 26/20/31 66/62/31 65/61/30
f 26/20/32 27/19/32 67/63/32 66/62/32
f 27/19/33 28/18/34 68/64/34 67/63/33
f 28/18/34 29/17/35 69/65/35 68/64/34
f 29/17/35 30/16/36 70/66/36 69/65/35
f 30/16/37 31/15/37 71/67/37 70/66/37
f 31/15/38 32/14/39 72/68/39 71/67/38
f 32/14/39 33/13/40 73/69/40 72/68/39
f 33/13/40 34/12/41 74/70/41 73/69/40
f 34/12/42 35/11/43 75/71/43 74/70/42
f 35/11/43 36/10/44 76/72/44 75/71/43
f 36/10/45 37/9/46 77/73/46 76/72/45
f 37/9/46 38/8/47 78/74/47 77/73/46
f 38/8/47 39/7/48 79/75/48 78/74/47
f 39/7/48 40/6/49 80/76/49 79/75/48
f 40/6/49 5/5/50 45/77/50 80/76/49
