# Blender v2.93.3 OBJ File: 'walls.blend'
# www.blender.org
mtllib wall-6.mtl
o Cube.006_Cube.012
v 1.000000 14.000000 -20.000000
v 1.000000 -14.000000 -20.000000
v 1.000000 14.000000 20.000000
v 1.000000 -2.214138 20.000000
v 1.000000 -14.000000 -16.406223
v 1.000000 -13.100033 -16.574135
v 1.000000 -10.307914 -15.753700
v 1.000000 -7.743557 -15.291105
v 1.000000 -5.882365 -15.183043
v 1.000000 -4.852939 -15.168725
v 1.000000 -1.836620 -14.616981
v 1.000000 0.280289 -14.160686
v 1.000000 1.237252 -13.633290
v 1.000000 2.598901 -13.015618
v 1.000000 3.749819 -12.838696
v 1.000000 6.043975 -12.042425
v 1.000000 8.135756 -10.744996
v 1.000000 8.891735 -9.036074
v 1.000000 8.242009 -7.421223
v 1.000000 6.768185 -7.596704
v 1.000000 5.499316 -7.261481
v 1.000000 4.969758 -6.837877
v 1.000000 4.984710 -5.642943
v 1.000000 6.479086 -3.766562
v 1.000000 7.489736 -3.341246
v 1.000000 7.910248 -1.643612
v 1.000000 8.201820 0.980320
v 1.000000 8.095278 2.843809
v 1.000000 7.772016 3.606160
v 1.000000 7.137064 6.062555
v 1.000000 7.019415 7.496736
v 1.000000 6.433103 8.681919
v 1.000000 5.182257 9.958946
v 1.000000 3.933633 11.406902
v 1.000000 2.829871 14.034222
v 1.000000 2.166775 14.307775
v 1.000000 0.700350 15.091604
v 1.000000 -0.701598 15.781655
v 1.000000 -0.948773 17.226538
v 1.000000 -1.140836 17.991468
v -1.000000 14.000000 -20.000000
v -1.000000 -14.000000 -20.000000
v -1.000000 14.000000 20.000000
v -1.000000 -2.214138 20.000000
v -0.999939 -14.000000 -16.406223
v -1.000000 -13.100033 -16.574135
v -1.000000 -10.307914 -15.753700
v -1.000000 -7.743557 -15.291105
v -1.000000 -5.882365 -15.183043
v -0.999939 -4.852939 -15.168725
v -1.000000 -1.836620 -14.616981
v -1.000000 0.280289 -14.160686
v -1.000000 1.237252 -13.633290
v -1.000000 2.598901 -13.015618
v -0.999939 3.749819 -12.838696
v -1.000000 6.043975 -12.042425
v -1.000000 8.135756 -10.744996
v -1.000000 8.891735 -9.036074
v -1.000000 8.242009 -7.421223
v -1.000000 6.768185 -7.596704
v -1.000000 5.499316 -7.261481
v -1.000000 4.969758 -6.837877
v -1.000000 4.984710 -5.642943
v -1.000000 6.479086 -3.766562
v -1.000000 7.489736 -3.341246
v -0.999939 7.910248 -1.643612
v -1.000000 8.201820 0.980320
v -1.000000 8.095278 2.843809
v -1.000000 7.772016 3.606160
v -1.000000 7.137064 6.062555
v -0.999939 7.019415 7.496736
v -0.999939 6.433103 8.681919
v -1.000000 5.182257 9.958946
v -0.999939 3.933633 11.406902
v -0.999939 2.829871 14.034222
v -1.000000 2.166775 14.307775
v -1.000000 0.700350 15.091604
v -1.000000 -0.701598 15.781655
v -1.000000 -0.948773 17.226538
v -1.000000 -1.140836 17.991468
vt 0.375000 0.500000
vt 0.625000 0.500000
vt 0.625000 0.750000
vt 0.480231 0.750000
vt 0.489814 0.737447
vt 0.491529 0.732666
vt 0.493736 0.723635
vt 0.506253 0.719322
vt 0.519346 0.714424
vt 0.525267 0.712714
vt 0.535122 0.696293
vt 0.546270 0.687243
vt 0.557438 0.679262
vt 0.562673 0.671855
vt 0.563724 0.662891
vt 0.569393 0.647539
vt 0.572279 0.642774
vt 0.573231 0.631127
vt 0.570627 0.614727
vt 0.566873 0.604117
vt 0.557849 0.601459
vt 0.544506 0.589732
vt 0.544373 0.582263
vt 0.549101 0.579616
vt 0.560430 0.577521
vt 0.573589 0.578617
vt 0.579390 0.568525
vt 0.572641 0.557844
vt 0.553964 0.549735
vt 0.533481 0.544758
vt 0.523204 0.543652
vt 0.511047 0.539792
vt 0.502503 0.536496
vt 0.483602 0.533644
vt 0.456670 0.530195
vt 0.447479 0.530106
vt 0.430861 0.529431
vt 0.407965 0.526539
vt 0.383035 0.521412
vt 0.375000 0.522461
vt 0.375000 0.500000
vt 0.375000 0.522461
vt 0.383035 0.521412
vt 0.407965 0.526539
vt 0.430861 0.529431
vt 0.447479 0.530106
vt 0.456670 0.530195
vt 0.483602 0.533644
vt 0.502503 0.536496
vt 0.511047 0.539792
vt 0.523204 0.543652
vt 0.533481 0.544758
vt 0.553964 0.549735
vt 0.572641 0.557844
vt 0.579390 0.568525
vt 0.573589 0.578617
vt 0.560430 0.577521
vt 0.549101 0.579616
vt 0.544373 0.582263
vt 0.544506 0.589732
vt 0.557849 0.601459
vt 0.566873 0.604117
vt 0.570627 0.614727
vt 0.573231 0.631127
vt 0.572279 0.642774
vt 0.569393 0.647539
vt 0.563724 0.662891
vt 0.562673 0.671855
vt 0.557438 0.679262
vt 0.546270 0.687243
vt 0.535122 0.696293
vt 0.525267 0.712714
vt 0.519346 0.714424
vt 0.506253 0.719322
vt 0.493736 0.723635
vt 0.491529 0.732666
vt 0.489814 0.737447
vt 0.480231 0.750000
vt 0.625000 0.750000
vt 0.625000 0.500000
vn 1.0000 0.0000 0.0000
vn -1.0000 -0.0000 0.0000
vn 0.0000 0.0000 -1.0000
vn 0.0000 1.0000 0.0000
vn 0.0000 -1.0000 0.0000
vn 0.0000 0.0000 1.0000
vn 0.0000 0.1834 0.9830
vn 0.0000 -0.0506 0.9987
vn 0.0000 -0.0507 0.9987
vn 0.0000 -0.2301 0.9732
vn 0.0000 -0.1180 0.9930
vn 0.0000 -0.0359 0.9994
vn 0.0000 -0.0973 0.9953
vn 0.0000 -0.1953 0.9807
vn 0.0000 -0.3504 0.9366
vn 0.0000 -0.4482 0.8939
vn 0.0000 -0.2852 0.9585
vn 0.0000 -0.2409 0.9705
vn 0.0000 -0.4301 0.9028
vn 0.0000 -0.5271 0.8498
vn 0.0000 -0.9145 0.4046
vn 0.0000 -0.9277 -0.3733
vn 0.0000 0.1182 -0.9930
vn 0.0000 -0.0698 -0.9976
vn 0.0000 -0.4498 -0.8932
vn 0.0000 -0.6247 -0.7809
vn 0.0000 -0.9999 0.0125
vn 0.0000 -0.7822 0.6230
vn 0.0000 -0.6038 0.7971
vn 0.0000 -0.3879 0.9217
vn 0.0000 -0.9707 0.2404
vn 0.0000 -0.9844 0.1758
vn 0.0000 -0.9996 0.0268
vn 0.0000 -0.9739 -0.2271
vn 0.0000 -0.9470 -0.3212
vn 0.0000 -0.9860 -0.1666
vn 0.0000 -0.9636 -0.2673
vn 0.0000 -0.8155 -0.5788
vn 0.0000 -0.7362 -0.6767
vn 0.0000 -0.8501 -0.5267
vn 0.0000 -0.9219 -0.3873
vn 0.0000 -0.3814 -0.9244
vn 0.0000 -0.4269 -0.9043
vn 0.0000 -0.4566 -0.8897
vn 0.0000 -0.4416 -0.8972
vn 0.0000 -0.9857 -0.1686
vn 0.0000 -0.9785 -0.2062
vn 0.0000 -0.9329 -0.3601
vn 0.0000 -0.8820 -0.4713
usemtl Material
s 1
f 2/1/1 1/2/1 3/3/1 4/4/1 40/5/1 39/6/1 38/7/1 37/8/1 36/9/1 35/10/1 34/11/1 33/12/1 32/13/1 31/14/1 30/15/1 29/16/1 28/17/1 27/18/1 26/19/1 25/20/1 24/21/1 23/22/1 22/23/1 21/24/1 20/25/1 19/26/1 18/27/1 17/28/1 16/29/1 15/30/1 14/31/1 13/32/1 12/33/1 11/34/1 10/35/1 9/36/1 8/37/1 7/38/1 6/39/1 5/40/1
f 42/41/2 45/42/2 46/43/2 47/44/2 48/45/2 49/46/2 50/47/2 51/48/2 52/49/2 53/50/2 54/51/2 55/52/2 56/53/2 57/54/2 58/55/2 59/56/2 60/57/2 61/58/2 62/59/2 63/60/2 64/61/2 65/62/2 66/63/2 67/64/2 68/65/2 69/66/2 70/67/2 71/68/2 72/69/2 73/70/2 74/71/2 75/72/2 76/73/2 77/74/2 78/75/2 79/76/2 80/77/2 44/78/2 43/79/2 41/80/2
f 1/2/3 2/1/3 42/41/3 41/80/3
f 3/3/4 1/2/4 41/80/4 43/79/4
f 2/1/5 5/40/5 45/42/5 42/41/5
f 4/4/6 3/3/6 43/79/6 44/78/6
f 5/40/7 6/39/8 46/43/9 45/42/7
f 6/39/8 7/38/10 47/44/10 46/43/9
f 7/38/10 8/37/11 48/45/11 47/44/10
f 8/37/11 9/36/12 49/46/12 48/45/11
f 9/36/12 10/35/13 50/47/13 49/46/12
f 10/35/13 11/34/14 51/48/14 50/47/13
f 11/34/14 12/33/15 52/49/15 51/48/14
f 12/33/15 13/32/16 53/50/16 52/49/15
f 13/32/16 14/31/17 54/51/17 53/50/16
f 14/31/17 15/30/18 55/52/18 54/51/17
f 15/30/18 16/29/19 56/53/19 55/52/18
f 16/29/19 17/28/20 57/54/20 56/53/19
f 17/28/21 18/27/21 58/55/21 57/54/21
f 18/27/22 19/26/22 59/56/22 58/55/22
f 19/26/23 20/25/24 60/57/24 59/56/23
f 20/25/24 21/24/25 61/58/25 60/57/24
f 21/24/25 22/23/26 62/59/26 61/58/25
f 22/23/27 23/22/27 63/60/27 62/59/27
f 23/22/28 24/21/29 64/61/29 63/60/28
f 24/21/29 25/20/30 65/62/30 64/61/29
f 25/20/31 26/19/32 66/63/32 65/62/31
f 26/19/32 27/18/33 67/64/33 66/63/32
f 27/18/33 28/17/34 68/65/34 67/64/33
f 28/17/34 29/16/35 69/66/35 68/65/34
f 29/16/35 30/15/36 70/67/36 69/66/35
f 30/15/36 31/14/37 71/68/37 70/67/36
f 31/14/37 32/13/38 72/69/38 71/68/37
f 32/13/38 33/12/39 73/70/39 72/69/38
f 33/12/39 34/11/40 74/71/40 73/70/39
f 34/11/40 35/10/41 75/72/41 74/71/40
f 35/10/42 36/9/43 76/73/43 75/72/42
f 36/9/43 37/8/44 77/74/44 76/73/43
f 37/8/44 38/7/45 78/75/45 77/74/44
f 38/7/46 39/6/47 79/76/47 78/75/46
f 39/6/47 40/5/48 80/77/48 79/76/47
f 40/5/48 4/4/49 44/78/49 80/77/48
