# Blender v2.93.3 OBJ File: 'walls.blend'
# www.blender.org
mtllib wall-24.mtl
o Cube.024_Cube.030
v 1.000000 -14.000000 -20.000000
v 1.000000 14.000000 20.000000
v 1.000000 -14.000000 20.000000
v 1.000000 14.000000 12.424767
v 1.000000 -7.658978 -20.000000
v 1.000000 12.993952 12.098539
v 1.000000 12.260688 11.427658
v 1.000000 11.316145 11.094982
v 1.000000 10.098766 9.746515
v 1.000000 8.417392 9.756592
v 1.000000 6.533319 9.766708
v 1.000000 4.223706 9.436459
v 1.000000 2.782168 8.414795
v 1.000000 1.946002 7.385989
v 1.000000 1.997082 6.009562
v 1.000000 2.803601 1.191916
v 1.000000 1.559347 0.150652
v 1.000000 -1.069100 -0.559041
v 1.000000 -2.261574 -1.955287
v 1.000000 -2.204725 -2.648274
v 1.000000 -0.852343 -4.369584
v 1.000000 -1.573983 -6.459756
v 1.000000 -3.255633 -7.528993
v 1.000000 -5.466035 -10.710458
v 1.000000 -6.241383 -19.131708
v -1.000000 -14.000000 -20.000000
v -1.000000 14.000000 20.000000
v -1.000000 -14.000000 20.000000
v -1.000000 14.000000 12.424767
v -1.000000 -7.658978 -20.000000
v -1.000000 12.993952 12.098539
v -1.000000 12.260688 11.427658
v -0.999939 11.316145 11.094982
v -1.000000 10.098766 9.746515
v -1.000000 8.417392 9.756592
v -1.000000 6.533319 9.766708
v -1.000000 4.223706 9.436459
v -1.000000 2.782168 8.414795
v -1.000000 1.946002 7.385989
v -1.000000 1.997082 6.009562
v -0.999939 2.803601 1.191916
v -1.000000 1.559347 0.150652
v -1.000000 -1.069100 -0.559041
v -1.000000 -2.261574 -1.955287
v -1.000000 -2.204725 -2.648274
v -0.999939 -0.852343 -4.369584
v -1.000000 -1.573983 -6.459756
v -1.000000 -3.255633 -7.528993
v -1.000000 -5.466035 -10.710458
v -1.000000 -6.241383 -19.131708
vt 0.375000 0.500000
vt 0.431616 0.500000
vt 0.444273 0.505427
vt 0.451196 0.558060
vt 0.470932 0.577944
vt 0.485947 0.584627
vt 0.492390 0.597690
vt 0.480315 0.608448
vt 0.479807 0.612779
vt 0.490454 0.621506
vt 0.513923 0.625942
vt 0.525032 0.632450
vt 0.517831 0.662560
vt 0.517375 0.671162
vt 0.524841 0.677593
vt 0.537712 0.683978
vt 0.558333 0.686042
vt 0.575155 0.685979
vt 0.590168 0.685916
vt 0.601037 0.694344
vt 0.609470 0.696423
vt 0.616017 0.700616
vt 0.625000 0.702655
vt 0.625000 0.750000
vt 0.375000 0.750000
vt 0.375000 0.500000
vt 0.375000 0.750000
vt 0.625000 0.750000
vt 0.625000 0.702655
vt 0.616017 0.700616
vt 0.609470 0.696423
vt 0.601037 0.694344
vt 0.590168 0.685916
vt 0.575155 0.685979
vt 0.558333 0.686042
vt 0.537712 0.683978
vt 0.524841 0.677593
vt 0.517375 0.671162
vt 0.517831 0.662560
vt 0.525032 0.632450
vt 0.513923 0.625942
vt 0.490454 0.621506
vt 0.479807 0.612779
vt 0.480315 0.608448
vt 0.492390 0.597690
vt 0.485947 0.584627
vt 0.470932 0.577944
vt 0.451196 0.558060
vt 0.444273 0.505427
vt 0.431616 0.500000
vn 1.0000 0.0000 0.0000
vn -1.0000 0.0000 -0.0000
vn 0.0000 0.0000 -1.0000
vn 0.0000 0.0000 1.0000
vn 0.0000 1.0000 0.0000
vn 0.0000 -1.0000 0.0000
vn 0.0000 0.3085 -0.9512
vn 0.0000 0.5032 -0.8642
vn 0.0000 0.5140 -0.8578
vn 0.0000 0.5543 -0.8323
vn 0.0000 0.7423 -0.6701
vn 0.0000 -0.0060 -1.0000
vn 0.0000 -0.0057 -1.0000
vn 0.0000 0.0683 -0.9977
vn 0.0000 0.3703 -0.9289
vn 0.0000 0.6834 -0.7300
vn 0.0000 0.7760 -0.6307
vn 0.0000 0.9993 0.0371
vn 0.0000 0.9949 0.1013
vn 0.0000 0.9863 0.1651
vn 0.0000 0.6418 -0.7669
vn 0.0000 0.4620 -0.8869
vn 0.0000 0.2607 -0.9654
vn 0.0000 0.7604 -0.6494
vn 0.0000 0.9967 0.0818
vn 0.0000 0.7863 0.6178
vn 0.0000 0.9452 -0.3264
vn 0.0000 0.5366 -0.8439
vn 0.0000 0.6925 -0.7214
vn 0.0000 0.9395 -0.3424
vn 0.0000 0.9958 -0.0917
vn 0.0000 0.5223 -0.8528
usemtl Material
s 1
f 1/1/1 5/2/1 25/3/1 24/4/1 23/5/1 22/6/1 21/7/1 20/8/1 19/9/1 18/10/1 17/11/1 16/12/1 15/13/1 14/14/1 13/15/1 12/16/1 11/17/1 10/18/1 9/19/1 8/20/1 7/21/1 6/22/1 4/23/1 2/24/1 3/25/1
f 26/26/2 28/27/2 27/28/2 29/29/2 31/30/2 32/31/2 33/32/2 34/33/2 35/34/2 36/35/2 37/36/2 38/37/2 39/38/2 40/39/2 41/40/2 42/41/2 43/42/2 44/43/2 45/44/2 46/45/2 47/46/2 48/47/2 49/48/2 50/49/2 30/50/2
f 5/2/3 1/1/3 26/26/3 30/50/3
f 3/25/4 2/24/4 27/28/4 28/27/4
f 2/24/5 4/23/5 29/29/5 27/28/5
f 1/1/6 3/25/6 28/27/6 26/26/6
f 4/23/7 6/22/8 31/30/8 29/29/7
f 6/22/8 7/21/9 32/31/9 31/30/8
f 7/21/9 8/20/10 33/32/10 32/31/9
f 8/20/10 9/19/11 34/33/11 33/32/10
f 9/19/12 10/18/13 35/34/13 34/33/12
f 10/18/13 11/17/14 36/35/14 35/34/13
f 11/17/14 12/16/15 37/36/15 36/35/14
f 12/16/15 13/15/16 38/37/16 37/36/15
f 13/15/16 14/14/17 39/38/17 38/37/16
f 14/14/18 15/13/19 40/39/19 39/38/18
f 15/13/19 16/12/20 41/40/20 40/39/19
f 16/12/21 17/11/22 42/41/22 41/40/21
f 17/11/22 18/10/23 43/42/23 42/41/22
f 18/10/24 19/9/24 44/43/24 43/42/24
f 19/9/25 20/8/25 45/44/25 44/43/25
f 20/8/26 21/7/26 46/45/26 45/44/26
f 21/7/27 22/6/27 47/46/27 46/45/27
f 22/6/28 23/5/29 48/47/29 47/46/28
f 23/5/29 24/4/30 49/48/30 48/47/29
f 24/4/30 25/3/31 50/49/31 49/48/30
f 25/3/32 5/2/32 30/50/32 50/49/32
