# Blender v2.93.3 OBJ File: 'walls.blend'
# www.blender.org
mtllib wall-2.mtl
o Cube.002
v 1.000000 14.000000 -20.000000
v 1.000000 -14.000000 -20.000000
v 1.000000 14.000000 20.000000
v 1.000000 -14.000000 20.000000
v 1.000000 -14.000000 16.139355
v 1.000000 -14.000000 0.091987
v 1.000000 -12.864210 16.042727
v 1.000000 -10.746237 15.807887
v 1.000000 -8.502391 15.690077
v 1.000000 -7.029781 15.777430
v 1.000000 -5.514960 14.908014
v 1.000000 -3.553953 14.416946
v 1.000000 -2.355550 14.130413
v 1.000000 -0.782246 13.781549
v 1.000000 1.289844 13.433867
v 1.000000 2.916138 13.146949
v 1.000000 4.273026 11.556356
v 1.000000 4.262481 10.861691
v 1.000000 3.743377 9.532672
v 1.000000 4.416089 8.281573
v 1.000000 6.023319 6.673884
v 1.000000 4.430998 4.243531
v 1.000000 3.739139 4.121857
v 1.000000 2.239103 4.635303
v 1.000000 0.691409 1.743854
v 1.000000 -2.140535 2.971582
v 1.000000 -4.171855 3.263713
v 1.000000 -5.841108 2.769461
v 1.000000 -7.134374 1.816438
v 1.000000 -8.494356 1.179855
v 1.000000 -10.363764 1.086841
v 1.000000 -11.588547 1.220282
v 1.000000 -12.638254 0.401778
v 1.000000 -13.228001 0.072905
v -1.000000 14.000000 -20.000000
v -1.000000 -14.000000 -20.000000
v -1.000000 14.000000 20.000000
v -1.000000 -14.000000 20.000000
v -1.000000 -14.000000 16.139355
v -1.000000 -14.000000 0.091987
v -1.000000 -12.864210 16.042727
v -1.000000 -10.746237 15.807887
v -1.000000 -8.502391 15.690077
v -0.999939 -7.029781 15.777430
v -1.000000 -5.514960 14.908014
v -1.000000 -3.553953 14.416946
v -1.000000 -2.355550 14.130413
v -1.000000 -0.782246 13.781549
v -1.000000 1.289844 13.433867
v -1.000000 2.916138 13.146949
v -0.999939 4.273026 11.556356
v -1.000000 4.262481 10.861691
v -1.000000 3.743377 9.532672
v -1.000000 4.416089 8.281573
v -0.999939 6.023319 6.673884
v -1.000000 4.430998 4.243531
v -1.000000 3.739139 4.121857
v -1.000000 2.239103 4.635303
v -1.000000 0.691409 1.743854
v -1.000000 -2.140535 2.971582
v -1.000000 -4.171855 3.263713
v -1.000000 -5.841108 2.769461
v -1.000000 -7.134374 1.816438
v -1.000000 -8.494356 1.179855
v -0.999939 -10.363764 1.086841
v -1.000000 -11.588547 1.220282
v -1.000000 -12.638254 0.401778
v -1.000000 -13.228001 0.072905
vt 0.375000 0.500000
vt 0.625000 0.500000
vt 0.625000 0.750000
vt 0.375000 0.750000
vt 0.375000 0.725871
vt 0.385141 0.725267
vt 0.404051 0.723799
vt 0.424086 0.723063
vt 0.437234 0.723609
vt 0.450759 0.718175
vt 0.468268 0.715106
vt 0.478968 0.713315
vt 0.493016 0.711135
vt 0.511516 0.708962
vt 0.526037 0.707168
vt 0.538152 0.697227
vt 0.538058 0.692886
vt 0.533423 0.684579
vt 0.539429 0.676760
vt 0.553780 0.666712
vt 0.539562 0.651522
vt 0.533385 0.650762
vt 0.519992 0.653971
vt 0.506173 0.635899
vt 0.480888 0.643572
vt 0.462751 0.645398
vt 0.447847 0.642309
vt 0.436300 0.636353
vt 0.424158 0.632374
vt 0.407466 0.631793
vt 0.396531 0.632627
vt 0.387158 0.627511
vt 0.381893 0.625456
vt 0.375000 0.625575
vt 0.375000 0.500000
vt 0.375000 0.625575
vt 0.381893 0.625456
vt 0.387158 0.627511
vt 0.396531 0.632627
vt 0.407466 0.631793
vt 0.424158 0.632374
vt 0.436300 0.636353
vt 0.447847 0.642309
vt 0.462751 0.645398
vt 0.480888 0.643572
vt 0.506173 0.635899
vt 0.519992 0.653971
vt 0.533385 0.650762
vt 0.539562 0.651522
vt 0.553780 0.666712
vt 0.539429 0.676760
vt 0.533423 0.684579
vt 0.538058 0.692886
vt 0.538152 0.697227
vt 0.526037 0.707168
vt 0.511516 0.708962
vt 0.493016 0.711135
vt 0.478968 0.713315
vt 0.468268 0.715106
vt 0.450759 0.718175
vt 0.437234 0.723609
vt 0.424086 0.723063
vt 0.404051 0.723799
vt 0.385141 0.725267
vt 0.375000 0.725871
vt 0.375000 0.750000
vt 0.625000 0.750000
vt 0.625000 0.500000
vn 1.0000 0.0000 0.0000
vn -1.0000 -0.0000 -0.0000
vn 0.0000 0.0000 -1.0000
vn 0.0000 0.0000 1.0000
vn 0.0000 1.0000 0.0000
vn 0.0000 -1.0000 0.0000
vn 0.0000 -0.0975 -0.9952
vn 0.0000 -0.0848 -0.9964
vn 0.0000 -0.0814 -0.9967
vn 0.0000 0.0034 -1.0000
vn 0.0000 0.0592 -0.9982
vn 0.0000 -0.3739 -0.9275
vn 0.0000 -0.4978 -0.8673
vn 0.0000 -0.2377 -0.9713
vn 0.0000 -0.2245 -0.9745
vn 0.0000 -0.1910 -0.9816
vn 0.0000 -0.1696 -0.9855
vn 0.0000 -0.1737 -0.9848
vn 0.0000 -0.7608 -0.6490
vn 0.0000 -0.9813 0.1926
vn 0.0000 -0.9999 0.0152
vn 0.0000 -0.9315 0.3638
vn 0.0000 -0.8025 -0.5966
vn 0.0000 -0.8808 -0.4736
vn 0.0000 -0.7072 -0.7070
vn 0.0000 -0.8365 0.5480
vn 0.0000 0.0778 0.9970
vn 0.0000 -0.1732 0.9849
vn 0.0000 0.3238 0.9461
vn 0.0000 -0.8816 0.4719
vn 0.0000 0.2725 0.9622
vn 0.0000 0.3978 0.9175
vn 0.0000 -0.0725 0.9974
vn 0.0000 -0.4453 0.8954
vn 0.0000 -0.5111 0.8595
vn 0.0000 -0.2413 0.9704
vn 0.0000 0.0294 0.9996
vn 0.0000 0.1083 0.9941
vn 0.0000 -0.5526 0.8334
vn 0.0000 -0.6149 0.7886
vn 0.0000 -0.4870 0.8734
vn 0.0000 0.0247 0.9997
usemtl Material
s 1
f 2/1/1 1/2/1 3/3/1 4/4/1 5/5/1 7/6/1 8/7/1 9/8/1 10/9/1 11/10/1 12/11/1 13/12/1 14/13/1 15/14/1 16/15/1 17/16/1 18/17/1 19/18/1 20/19/1 21/20/1 22/21/1 23/22/1 24/23/1 25/24/1 26/25/1 27/26/1 28/27/1 29/28/1 30/29/1 31/30/1 32/31/1 33/32/1 34/33/1 6/34/1
f 36/35/2 40/36/2 68/37/2 67/38/2 66/39/2 65/40/2 64/41/2 63/42/2 62/43/2 61/44/2 60/45/2 59/46/2 58/47/2 57/48/2 56/49/2 55/50/2 54/51/2 53/52/2 52/53/2 51/54/2 50/55/2 49/56/2 48/57/2 47/58/2 46/59/2 45/60/2 44/61/2 43/62/2 42/63/2 41/64/2 39/65/2 38/66/2 37/67/2 35/68/2
f 1/2/3 2/1/3 36/35/3 35/68/3
f 4/4/4 3/3/4 37/67/4 38/66/4
f 3/3/5 1/2/5 35/68/5 37/67/5
f 2/1/6 6/34/6 40/36/6 36/35/6
f 5/5/6 4/4/6 38/66/6 39/65/6
f 7/6/7 5/5/8 39/65/8 41/64/7
f 8/7/9 7/6/7 41/64/7 42/63/9
f 9/8/10 8/7/9 42/63/9 43/62/10
f 10/9/11 9/8/10 43/62/10 44/61/11
f 11/10/12 10/9/13 44/61/13 45/60/12
f 12/11/14 11/10/12 45/60/12 46/59/14
f 13/12/15 12/11/14 46/59/14 47/58/15
f 14/13/16 13/12/15 47/58/15 48/57/16
f 15/14/17 14/13/16 48/57/16 49/56/17
f 16/15/18 15/14/17 49/56/17 50/55/18
f 17/16/19 16/15/19 50/55/19 51/54/19
f 18/17/20 17/16/21 51/54/21 52/53/20
f 19/18/22 18/17/20 52/53/20 53/52/22
f 20/19/23 19/18/24 53/52/24 54/51/23
f 21/20/25 20/19/23 54/51/23 55/50/25
f 22/21/26 21/20/26 55/50/26 56/49/26
f 23/22/27 22/21/28 56/49/28 57/48/27
f 24/23/29 23/22/27 57/48/27 58/47/29
f 25/24/30 24/23/30 58/47/30 59/46/30
f 26/25/31 25/24/32 59/46/32 60/45/31
f 27/26/33 26/25/31 60/45/31 61/44/33
f 28/27/34 27/26/33 61/44/33 62/43/34
f 29/28/35 28/27/34 62/43/34 63/42/35
f 30/29/36 29/28/35 63/42/35 64/41/36
f 31/30/37 30/29/36 64/41/36 65/40/37
f 32/31/38 31/30/37 65/40/37 66/39/38
f 33/32/39 32/31/40 66/39/40 67/38/39
f 34/33/41 33/32/39 67/38/39 68/37/41
f 6/34/42 34/33/42 68/37/42 40/36/42
