# Blender v2.93.3 OBJ File: 'walls.blend'
# www.blender.org
mtllib wall-28.mtl
o Cube.028_Cube.034
v 1.000000 14.000000 20.000000
v 1.000000 -14.000000 20.000000
v 1.000000 14.000000 -3.539891
v 1.000000 12.827522 -4.815665
v 1.000000 10.881480 -5.848962
v 1.000000 9.658133 -7.513386
v 1.000000 8.309090 -8.862185
v 1.000000 6.006377 -8.947826
v 1.000000 2.957048 -8.395441
v 1.000000 1.131624 -7.124510
v 1.000000 -0.167806 -5.489430
v 1.000000 -1.128759 -3.500420
v 1.000000 -2.688311 -0.508514
v 1.000000 -5.483430 2.159534
v 1.000000 -7.213919 1.807469
v 1.000000 -8.089660 -0.924572
v 1.000000 -9.178308 -2.994486
v 1.000000 -10.145537 -2.670617
v 1.000000 -10.289601 0.413508
v 1.000000 -10.118224 2.468086
v 1.000000 -9.856013 4.520574
v 1.000000 -10.299129 6.911452
v 1.000000 -13.129116 9.331556
v -1.000000 14.000000 20.000000
v -0.999939 -14.000000 20.000000
v -1.000000 14.000000 -3.539891
v -1.000000 12.827522 -4.815665
v -1.000000 10.881480 -5.848962
v -1.000000 9.658133 -7.513386
v -1.000000 8.309090 -8.862185
v -1.000000 6.006377 -8.947826
v -1.000000 2.957048 -8.395441
v -1.000000 1.131624 -7.124510
v -1.000000 -0.167806 -5.489430
v -1.000000 -1.128759 -3.500420
v -1.000000 -2.688311 -0.508514
v -0.999939 -5.483430 2.159534
v -1.000000 -7.213919 1.807469
v -0.999939 -8.089660 -0.924572
v -1.000000 -9.178308 -2.994486
v -1.000000 -10.145537 -2.670617
v -1.000000 -10.289601 0.413508
v -1.000000 -10.118224 2.468086
v -1.000000 -9.856013 4.520574
v -1.000000 -10.299129 6.911452
v -1.000000 -13.129116 9.331556
vt 0.375000 0.750000
vt 0.382776 0.683322
vt 0.408043 0.668196
vt 0.412000 0.653254
vt 0.409659 0.640426
vt 0.408129 0.627584
vt 0.409415 0.608309
vt 0.418051 0.606284
vt 0.427771 0.619221
vt 0.435590 0.636297
vt 0.451041 0.638497
vt 0.475997 0.621822
vt 0.489922 0.603122
vt 0.498502 0.590691
vt 0.510104 0.580472
vt 0.526402 0.572528
vt 0.553628 0.569076
vt 0.574188 0.569611
vt 0.586233 0.578041
vt 0.597156 0.588444
vt 0.614531 0.594902
vt 0.625000 0.602876
vt 0.625000 0.750000
vt 0.375000 0.750000
vt 0.625000 0.750000
vt 0.625000 0.602876
vt 0.614531 0.594902
vt 0.597156 0.588444
vt 0.586233 0.578041
vt 0.574188 0.569611
vt 0.553628 0.569076
vt 0.526402 0.572528
vt 0.510104 0.580472
vt 0.498502 0.590691
vt 0.489922 0.603122
vt 0.475997 0.621822
vt 0.451041 0.638497
vt 0.435590 0.636297
vt 0.427771 0.619221
vt 0.418051 0.606284
vt 0.409415 0.608309
vt 0.408129 0.627584
vt 0.409659 0.640426
vt 0.412000 0.653254
vt 0.408043 0.668196
vt 0.382776 0.683322
vn 1.0000 0.0000 0.0000
vn -1.0000 -0.0000 0.0000
vn 0.0000 0.0000 1.0000
vn 0.0000 1.0000 0.0000
vn 0.0000 0.7363 -0.6767
vn 0.0000 0.6114 -0.7913
vn 0.0000 0.6538 -0.7567
vn 0.0000 0.7586 -0.6516
vn 0.0000 0.7070 -0.7072
vn 0.0000 0.0372 -0.9993
vn 0.0000 -0.0710 -0.9975
vn 0.0000 -0.3836 -0.9235
vn 0.0000 -0.6844 -0.7291
vn 0.0000 -0.8468 -0.5319
vn 0.0000 -0.8937 -0.4487
vn 0.0000 -0.7994 -0.6009
vn 0.0000 -0.6905 -0.7234
vn 0.0000 0.1994 -0.9799
vn 0.0000 0.9523 -0.3052
vn 0.0000 0.9222 -0.3868
vn 0.0000 0.8851 -0.4655
vn 0.0000 -0.3175 -0.9483
vn 0.0000 -0.9989 -0.0467
vn 0.0000 -0.9998 0.0183
vn 0.0000 -0.9945 0.1049
vn 0.0000 -0.9996 -0.0281
vn 0.0000 -0.9833 -0.1822
vn 0.0000 -0.6499 -0.7600
vn 0.0000 -0.9967 -0.0814
usemtl Material
s 1
f 2/1/1 23/2/1 22/3/1 21/4/1 20/5/1 19/6/1 18/7/1 17/8/1 16/9/1 15/10/1 14/11/1 13/12/1 12/13/1 11/14/1 10/15/1 9/16/1 8/17/1 7/18/1 6/19/1 5/20/1 4/21/1 3/22/1 1/23/1
f 25/24/2 24/25/2 26/26/2 27/27/2 28/28/2 29/29/2 30/30/2 31/31/2 32/32/2 33/33/2 34/34/2 35/35/2 36/36/2 37/37/2 38/38/2 39/39/2 40/40/2 41/41/2 42/42/2 43/43/2 44/44/2 45/45/2 46/46/2
f 2/1/3 1/23/3 24/25/3 25/24/3
f 1/23/4 3/22/4 26/26/4 24/25/4
f 3/22/5 4/21/6 27/27/6 26/26/5
f 4/21/6 5/20/7 28/28/7 27/27/6
f 5/20/7 6/19/8 29/29/8 28/28/7
f 6/19/8 7/18/9 30/30/9 29/29/8
f 7/18/10 8/17/11 31/31/11 30/30/10
f 8/17/11 9/16/12 32/32/12 31/31/11
f 9/16/12 10/15/13 33/33/13 32/32/12
f 10/15/13 11/14/14 34/34/14 33/33/13
f 11/14/14 12/13/15 35/35/15 34/34/14
f 12/13/15 13/12/16 36/36/16 35/35/15
f 13/12/16 14/11/17 37/37/17 36/36/16
f 14/11/18 15/10/18 38/38/18 37/37/18
f 15/10/19 16/9/20 39/39/20 38/38/19
f 16/9/20 17/8/21 40/40/21 39/39/20
f 17/8/22 18/7/22 41/41/22 40/40/22
f 18/7/23 19/6/24 42/42/24 41/41/23
f 19/6/24 20/5/25 43/43/25 42/42/24
f 20/5/25 21/4/26 44/44/26 43/43/25
f 21/4/26 22/3/27 45/45/27 44/44/26
f 22/3/28 23/2/28 46/46/28 45/45/28
f 23/2/29 2/1/29 25/24/29 46/46/29
